G04 #@! TF.GenerationSoftware,KiCad,Pcbnew,5.1.5-52549c5~84~ubuntu18.04.1*
G04 #@! TF.CreationDate,2020-02-05T12:35:19+01:00*
G04 #@! TF.ProjectId,Lab1,4c616231-2e6b-4696-9361-645f70636258,rev?*
G04 #@! TF.SameCoordinates,Original*
G04 #@! TF.FileFunction,Copper,L1,Top*
G04 #@! TF.FilePolarity,Positive*
%FSLAX46Y46*%
G04 Gerber Fmt 4.6, Leading zero omitted, Abs format (unit mm)*
G04 Created by KiCad (PCBNEW 5.1.5-52549c5~84~ubuntu18.04.1) date 2020-02-05 12:35:19*
%MOMM*%
%LPD*%
G04 APERTURE LIST*
%ADD10R,0.800000X0.500000*%
%ADD11R,0.500000X0.800000*%
%ADD12R,1.600000X1.600000*%
%ADD13C,0.100000*%
%ADD14R,1.700000X1.700000*%
%ADD15O,1.700000X1.700000*%
%ADD16R,2.000000X2.500000*%
%ADD17R,0.500000X2.500000*%
%ADD18R,3.800000X2.000000*%
%ADD19R,1.500000X2.000000*%
%ADD20C,0.800000*%
%ADD21C,0.250000*%
%ADD22C,0.254000*%
G04 APERTURE END LIST*
D10*
X150200000Y-138200000D03*
X150200000Y-137400000D03*
X150200000Y-136600000D03*
X150200000Y-135800000D03*
X150200000Y-135000000D03*
X150200000Y-134200000D03*
X150200000Y-133400000D03*
X150200000Y-132600000D03*
X150200000Y-131800000D03*
X150200000Y-131000000D03*
X150200000Y-130200000D03*
X150200000Y-129400000D03*
D11*
X152600000Y-126550000D03*
X153400000Y-126550000D03*
X154200000Y-126550000D03*
X155000000Y-126550000D03*
X155800000Y-126550000D03*
X156600000Y-126550000D03*
X157400000Y-126550000D03*
X158200000Y-126550000D03*
X159000000Y-126550000D03*
X159800000Y-126550000D03*
X160600000Y-126550000D03*
X161400000Y-126550000D03*
D10*
X163800000Y-129400000D03*
X163800000Y-130200000D03*
X163800000Y-131000000D03*
X163800000Y-131800000D03*
X163800000Y-132600000D03*
X163800000Y-133400000D03*
X163800000Y-134200000D03*
X163800000Y-135000000D03*
X163800000Y-135800000D03*
X163800000Y-136600000D03*
X163800000Y-137400000D03*
X163800000Y-138200000D03*
D11*
X161400000Y-141050000D03*
X160600000Y-141050000D03*
X159800000Y-141050000D03*
X159000000Y-141050000D03*
X158200000Y-141050000D03*
X157400000Y-141050000D03*
X156600000Y-141050000D03*
X155800000Y-141050000D03*
X155000000Y-141050000D03*
X154200000Y-141050000D03*
X153400000Y-141050000D03*
X152600000Y-141050000D03*
X152600000Y-140250000D03*
X153400000Y-140250000D03*
X154200000Y-140250000D03*
X155000000Y-140250000D03*
X155800000Y-140250000D03*
X156600000Y-140250000D03*
X157400000Y-140250000D03*
X158200000Y-140250000D03*
X159000000Y-140250000D03*
X159800000Y-140250000D03*
X160600000Y-140250000D03*
X161400000Y-140250000D03*
D10*
X163000000Y-138200000D03*
X163000000Y-137400000D03*
X163000000Y-136600000D03*
X163000000Y-135800000D03*
X163000000Y-135000000D03*
X163000000Y-134200000D03*
X163000000Y-133400000D03*
X163000000Y-132600000D03*
X163000000Y-131800000D03*
X163000000Y-131000000D03*
X163000000Y-130200000D03*
X151000000Y-138200000D03*
X151000000Y-137400000D03*
X151000000Y-136600000D03*
X151000000Y-135800000D03*
X151000000Y-135000000D03*
X151000000Y-134200000D03*
X151000000Y-133400000D03*
X151000000Y-132600000D03*
X151000000Y-131800000D03*
X151000000Y-131000000D03*
X151000000Y-130200000D03*
X151000000Y-129400000D03*
D11*
X152600000Y-127350000D03*
X153400000Y-127350000D03*
X154200000Y-127350000D03*
X155000000Y-127350000D03*
X155800000Y-127350000D03*
X156600000Y-127350000D03*
X157400000Y-127350000D03*
X158200000Y-127350000D03*
X159000000Y-127350000D03*
X159800000Y-127350000D03*
X160600000Y-127350000D03*
X161400000Y-127350000D03*
D10*
X163000000Y-129400000D03*
D12*
X159500000Y-131300000D03*
X159500000Y-133800000D03*
X159500000Y-136300000D03*
X157000000Y-131300000D03*
X157000000Y-133800000D03*
X157000000Y-136300000D03*
X154500000Y-131300000D03*
X154500000Y-133800000D03*
X154500000Y-136300000D03*
D10*
X151800000Y-138200000D03*
X151800000Y-137400000D03*
X151800000Y-136600000D03*
X151800000Y-135800000D03*
X151800000Y-135000000D03*
X151800000Y-134200000D03*
X151800000Y-133400000D03*
D11*
X152600000Y-139450000D03*
X153400000Y-139450000D03*
X154200000Y-139450000D03*
X155000000Y-139450000D03*
X155800000Y-139450000D03*
X156600000Y-139450000D03*
X157400000Y-139450000D03*
X158200000Y-139450000D03*
X159000000Y-139450000D03*
X159800000Y-139450000D03*
X160600000Y-139450000D03*
X159800000Y-128150000D03*
X159000000Y-128150000D03*
X158200000Y-128150000D03*
X157400000Y-128150000D03*
X156600000Y-128150000D03*
X155800000Y-128150000D03*
X155000000Y-128150000D03*
X154200000Y-128150000D03*
X153400000Y-128150000D03*
X152600000Y-128150000D03*
D10*
X151800000Y-129400000D03*
X151800000Y-131000000D03*
X151800000Y-131800000D03*
X151800000Y-132600000D03*
D11*
X161400000Y-139450000D03*
D10*
X162200000Y-138200000D03*
X162200000Y-137400000D03*
X162200000Y-136600000D03*
X162200000Y-135800000D03*
X162200000Y-135000000D03*
X162200000Y-134200000D03*
X162200000Y-133400000D03*
X162200000Y-132600000D03*
X162200000Y-131800000D03*
X162200000Y-131000000D03*
X162200000Y-130200000D03*
X162200000Y-129400000D03*
D11*
X161400000Y-128150000D03*
X160600000Y-128150000D03*
D10*
X151800000Y-130200000D03*
G04 #@! TA.AperFunction,SMDPad,CuDef*
D13*
G36*
X154474505Y-144401204D02*
G01*
X154498773Y-144404804D01*
X154522572Y-144410765D01*
X154545671Y-144419030D01*
X154567850Y-144429520D01*
X154588893Y-144442132D01*
X154608599Y-144456747D01*
X154626777Y-144473223D01*
X154643253Y-144491401D01*
X154657868Y-144511107D01*
X154670480Y-144532150D01*
X154680970Y-144554329D01*
X154689235Y-144577428D01*
X154695196Y-144601227D01*
X154698796Y-144625495D01*
X154700000Y-144649999D01*
X154700000Y-145300001D01*
X154698796Y-145324505D01*
X154695196Y-145348773D01*
X154689235Y-145372572D01*
X154680970Y-145395671D01*
X154670480Y-145417850D01*
X154657868Y-145438893D01*
X154643253Y-145458599D01*
X154626777Y-145476777D01*
X154608599Y-145493253D01*
X154588893Y-145507868D01*
X154567850Y-145520480D01*
X154545671Y-145530970D01*
X154522572Y-145539235D01*
X154498773Y-145545196D01*
X154474505Y-145548796D01*
X154450001Y-145550000D01*
X153549999Y-145550000D01*
X153525495Y-145548796D01*
X153501227Y-145545196D01*
X153477428Y-145539235D01*
X153454329Y-145530970D01*
X153432150Y-145520480D01*
X153411107Y-145507868D01*
X153391401Y-145493253D01*
X153373223Y-145476777D01*
X153356747Y-145458599D01*
X153342132Y-145438893D01*
X153329520Y-145417850D01*
X153319030Y-145395671D01*
X153310765Y-145372572D01*
X153304804Y-145348773D01*
X153301204Y-145324505D01*
X153300000Y-145300001D01*
X153300000Y-144649999D01*
X153301204Y-144625495D01*
X153304804Y-144601227D01*
X153310765Y-144577428D01*
X153319030Y-144554329D01*
X153329520Y-144532150D01*
X153342132Y-144511107D01*
X153356747Y-144491401D01*
X153373223Y-144473223D01*
X153391401Y-144456747D01*
X153411107Y-144442132D01*
X153432150Y-144429520D01*
X153454329Y-144419030D01*
X153477428Y-144410765D01*
X153501227Y-144404804D01*
X153525495Y-144401204D01*
X153549999Y-144400000D01*
X154450001Y-144400000D01*
X154474505Y-144401204D01*
G37*
G04 #@! TD.AperFunction*
G04 #@! TA.AperFunction,SMDPad,CuDef*
G36*
X154474505Y-146451204D02*
G01*
X154498773Y-146454804D01*
X154522572Y-146460765D01*
X154545671Y-146469030D01*
X154567850Y-146479520D01*
X154588893Y-146492132D01*
X154608599Y-146506747D01*
X154626777Y-146523223D01*
X154643253Y-146541401D01*
X154657868Y-146561107D01*
X154670480Y-146582150D01*
X154680970Y-146604329D01*
X154689235Y-146627428D01*
X154695196Y-146651227D01*
X154698796Y-146675495D01*
X154700000Y-146699999D01*
X154700000Y-147350001D01*
X154698796Y-147374505D01*
X154695196Y-147398773D01*
X154689235Y-147422572D01*
X154680970Y-147445671D01*
X154670480Y-147467850D01*
X154657868Y-147488893D01*
X154643253Y-147508599D01*
X154626777Y-147526777D01*
X154608599Y-147543253D01*
X154588893Y-147557868D01*
X154567850Y-147570480D01*
X154545671Y-147580970D01*
X154522572Y-147589235D01*
X154498773Y-147595196D01*
X154474505Y-147598796D01*
X154450001Y-147600000D01*
X153549999Y-147600000D01*
X153525495Y-147598796D01*
X153501227Y-147595196D01*
X153477428Y-147589235D01*
X153454329Y-147580970D01*
X153432150Y-147570480D01*
X153411107Y-147557868D01*
X153391401Y-147543253D01*
X153373223Y-147526777D01*
X153356747Y-147508599D01*
X153342132Y-147488893D01*
X153329520Y-147467850D01*
X153319030Y-147445671D01*
X153310765Y-147422572D01*
X153304804Y-147398773D01*
X153301204Y-147374505D01*
X153300000Y-147350001D01*
X153300000Y-146699999D01*
X153301204Y-146675495D01*
X153304804Y-146651227D01*
X153310765Y-146627428D01*
X153319030Y-146604329D01*
X153329520Y-146582150D01*
X153342132Y-146561107D01*
X153356747Y-146541401D01*
X153373223Y-146523223D01*
X153391401Y-146506747D01*
X153411107Y-146492132D01*
X153432150Y-146479520D01*
X153454329Y-146469030D01*
X153477428Y-146460765D01*
X153501227Y-146454804D01*
X153525495Y-146451204D01*
X153549999Y-146450000D01*
X154450001Y-146450000D01*
X154474505Y-146451204D01*
G37*
G04 #@! TD.AperFunction*
G04 #@! TA.AperFunction,SMDPad,CuDef*
G36*
X150874505Y-146476204D02*
G01*
X150898773Y-146479804D01*
X150922572Y-146485765D01*
X150945671Y-146494030D01*
X150967850Y-146504520D01*
X150988893Y-146517132D01*
X151008599Y-146531747D01*
X151026777Y-146548223D01*
X151043253Y-146566401D01*
X151057868Y-146586107D01*
X151070480Y-146607150D01*
X151080970Y-146629329D01*
X151089235Y-146652428D01*
X151095196Y-146676227D01*
X151098796Y-146700495D01*
X151100000Y-146724999D01*
X151100000Y-147375001D01*
X151098796Y-147399505D01*
X151095196Y-147423773D01*
X151089235Y-147447572D01*
X151080970Y-147470671D01*
X151070480Y-147492850D01*
X151057868Y-147513893D01*
X151043253Y-147533599D01*
X151026777Y-147551777D01*
X151008599Y-147568253D01*
X150988893Y-147582868D01*
X150967850Y-147595480D01*
X150945671Y-147605970D01*
X150922572Y-147614235D01*
X150898773Y-147620196D01*
X150874505Y-147623796D01*
X150850001Y-147625000D01*
X149949999Y-147625000D01*
X149925495Y-147623796D01*
X149901227Y-147620196D01*
X149877428Y-147614235D01*
X149854329Y-147605970D01*
X149832150Y-147595480D01*
X149811107Y-147582868D01*
X149791401Y-147568253D01*
X149773223Y-147551777D01*
X149756747Y-147533599D01*
X149742132Y-147513893D01*
X149729520Y-147492850D01*
X149719030Y-147470671D01*
X149710765Y-147447572D01*
X149704804Y-147423773D01*
X149701204Y-147399505D01*
X149700000Y-147375001D01*
X149700000Y-146724999D01*
X149701204Y-146700495D01*
X149704804Y-146676227D01*
X149710765Y-146652428D01*
X149719030Y-146629329D01*
X149729520Y-146607150D01*
X149742132Y-146586107D01*
X149756747Y-146566401D01*
X149773223Y-146548223D01*
X149791401Y-146531747D01*
X149811107Y-146517132D01*
X149832150Y-146504520D01*
X149854329Y-146494030D01*
X149877428Y-146485765D01*
X149901227Y-146479804D01*
X149925495Y-146476204D01*
X149949999Y-146475000D01*
X150850001Y-146475000D01*
X150874505Y-146476204D01*
G37*
G04 #@! TD.AperFunction*
G04 #@! TA.AperFunction,SMDPad,CuDef*
G36*
X150874505Y-144426204D02*
G01*
X150898773Y-144429804D01*
X150922572Y-144435765D01*
X150945671Y-144444030D01*
X150967850Y-144454520D01*
X150988893Y-144467132D01*
X151008599Y-144481747D01*
X151026777Y-144498223D01*
X151043253Y-144516401D01*
X151057868Y-144536107D01*
X151070480Y-144557150D01*
X151080970Y-144579329D01*
X151089235Y-144602428D01*
X151095196Y-144626227D01*
X151098796Y-144650495D01*
X151100000Y-144674999D01*
X151100000Y-145325001D01*
X151098796Y-145349505D01*
X151095196Y-145373773D01*
X151089235Y-145397572D01*
X151080970Y-145420671D01*
X151070480Y-145442850D01*
X151057868Y-145463893D01*
X151043253Y-145483599D01*
X151026777Y-145501777D01*
X151008599Y-145518253D01*
X150988893Y-145532868D01*
X150967850Y-145545480D01*
X150945671Y-145555970D01*
X150922572Y-145564235D01*
X150898773Y-145570196D01*
X150874505Y-145573796D01*
X150850001Y-145575000D01*
X149949999Y-145575000D01*
X149925495Y-145573796D01*
X149901227Y-145570196D01*
X149877428Y-145564235D01*
X149854329Y-145555970D01*
X149832150Y-145545480D01*
X149811107Y-145532868D01*
X149791401Y-145518253D01*
X149773223Y-145501777D01*
X149756747Y-145483599D01*
X149742132Y-145463893D01*
X149729520Y-145442850D01*
X149719030Y-145420671D01*
X149710765Y-145397572D01*
X149704804Y-145373773D01*
X149701204Y-145349505D01*
X149700000Y-145325001D01*
X149700000Y-144674999D01*
X149701204Y-144650495D01*
X149704804Y-144626227D01*
X149710765Y-144602428D01*
X149719030Y-144579329D01*
X149729520Y-144557150D01*
X149742132Y-144536107D01*
X149756747Y-144516401D01*
X149773223Y-144498223D01*
X149791401Y-144481747D01*
X149811107Y-144467132D01*
X149832150Y-144454520D01*
X149854329Y-144444030D01*
X149877428Y-144435765D01*
X149901227Y-144429804D01*
X149925495Y-144426204D01*
X149949999Y-144425000D01*
X150850001Y-144425000D01*
X150874505Y-144426204D01*
G37*
G04 #@! TD.AperFunction*
G04 #@! TA.AperFunction,SMDPad,CuDef*
G36*
X145424505Y-137501204D02*
G01*
X145448773Y-137504804D01*
X145472572Y-137510765D01*
X145495671Y-137519030D01*
X145517850Y-137529520D01*
X145538893Y-137542132D01*
X145558599Y-137556747D01*
X145576777Y-137573223D01*
X145593253Y-137591401D01*
X145607868Y-137611107D01*
X145620480Y-137632150D01*
X145630970Y-137654329D01*
X145639235Y-137677428D01*
X145645196Y-137701227D01*
X145648796Y-137725495D01*
X145650000Y-137749999D01*
X145650000Y-138650001D01*
X145648796Y-138674505D01*
X145645196Y-138698773D01*
X145639235Y-138722572D01*
X145630970Y-138745671D01*
X145620480Y-138767850D01*
X145607868Y-138788893D01*
X145593253Y-138808599D01*
X145576777Y-138826777D01*
X145558599Y-138843253D01*
X145538893Y-138857868D01*
X145517850Y-138870480D01*
X145495671Y-138880970D01*
X145472572Y-138889235D01*
X145448773Y-138895196D01*
X145424505Y-138898796D01*
X145400001Y-138900000D01*
X144749999Y-138900000D01*
X144725495Y-138898796D01*
X144701227Y-138895196D01*
X144677428Y-138889235D01*
X144654329Y-138880970D01*
X144632150Y-138870480D01*
X144611107Y-138857868D01*
X144591401Y-138843253D01*
X144573223Y-138826777D01*
X144556747Y-138808599D01*
X144542132Y-138788893D01*
X144529520Y-138767850D01*
X144519030Y-138745671D01*
X144510765Y-138722572D01*
X144504804Y-138698773D01*
X144501204Y-138674505D01*
X144500000Y-138650001D01*
X144500000Y-137749999D01*
X144501204Y-137725495D01*
X144504804Y-137701227D01*
X144510765Y-137677428D01*
X144519030Y-137654329D01*
X144529520Y-137632150D01*
X144542132Y-137611107D01*
X144556747Y-137591401D01*
X144573223Y-137573223D01*
X144591401Y-137556747D01*
X144611107Y-137542132D01*
X144632150Y-137529520D01*
X144654329Y-137519030D01*
X144677428Y-137510765D01*
X144701227Y-137504804D01*
X144725495Y-137501204D01*
X144749999Y-137500000D01*
X145400001Y-137500000D01*
X145424505Y-137501204D01*
G37*
G04 #@! TD.AperFunction*
G04 #@! TA.AperFunction,SMDPad,CuDef*
G36*
X147474505Y-137501204D02*
G01*
X147498773Y-137504804D01*
X147522572Y-137510765D01*
X147545671Y-137519030D01*
X147567850Y-137529520D01*
X147588893Y-137542132D01*
X147608599Y-137556747D01*
X147626777Y-137573223D01*
X147643253Y-137591401D01*
X147657868Y-137611107D01*
X147670480Y-137632150D01*
X147680970Y-137654329D01*
X147689235Y-137677428D01*
X147695196Y-137701227D01*
X147698796Y-137725495D01*
X147700000Y-137749999D01*
X147700000Y-138650001D01*
X147698796Y-138674505D01*
X147695196Y-138698773D01*
X147689235Y-138722572D01*
X147680970Y-138745671D01*
X147670480Y-138767850D01*
X147657868Y-138788893D01*
X147643253Y-138808599D01*
X147626777Y-138826777D01*
X147608599Y-138843253D01*
X147588893Y-138857868D01*
X147567850Y-138870480D01*
X147545671Y-138880970D01*
X147522572Y-138889235D01*
X147498773Y-138895196D01*
X147474505Y-138898796D01*
X147450001Y-138900000D01*
X146799999Y-138900000D01*
X146775495Y-138898796D01*
X146751227Y-138895196D01*
X146727428Y-138889235D01*
X146704329Y-138880970D01*
X146682150Y-138870480D01*
X146661107Y-138857868D01*
X146641401Y-138843253D01*
X146623223Y-138826777D01*
X146606747Y-138808599D01*
X146592132Y-138788893D01*
X146579520Y-138767850D01*
X146569030Y-138745671D01*
X146560765Y-138722572D01*
X146554804Y-138698773D01*
X146551204Y-138674505D01*
X146550000Y-138650001D01*
X146550000Y-137749999D01*
X146551204Y-137725495D01*
X146554804Y-137701227D01*
X146560765Y-137677428D01*
X146569030Y-137654329D01*
X146579520Y-137632150D01*
X146592132Y-137611107D01*
X146606747Y-137591401D01*
X146623223Y-137573223D01*
X146641401Y-137556747D01*
X146661107Y-137542132D01*
X146682150Y-137529520D01*
X146704329Y-137519030D01*
X146727428Y-137510765D01*
X146751227Y-137504804D01*
X146775495Y-137501204D01*
X146799999Y-137500000D01*
X147450001Y-137500000D01*
X147474505Y-137501204D01*
G37*
G04 #@! TD.AperFunction*
G04 #@! TA.AperFunction,SMDPad,CuDef*
G36*
X158074505Y-144501204D02*
G01*
X158098773Y-144504804D01*
X158122572Y-144510765D01*
X158145671Y-144519030D01*
X158167850Y-144529520D01*
X158188893Y-144542132D01*
X158208599Y-144556747D01*
X158226777Y-144573223D01*
X158243253Y-144591401D01*
X158257868Y-144611107D01*
X158270480Y-144632150D01*
X158280970Y-144654329D01*
X158289235Y-144677428D01*
X158295196Y-144701227D01*
X158298796Y-144725495D01*
X158300000Y-144749999D01*
X158300000Y-145400001D01*
X158298796Y-145424505D01*
X158295196Y-145448773D01*
X158289235Y-145472572D01*
X158280970Y-145495671D01*
X158270480Y-145517850D01*
X158257868Y-145538893D01*
X158243253Y-145558599D01*
X158226777Y-145576777D01*
X158208599Y-145593253D01*
X158188893Y-145607868D01*
X158167850Y-145620480D01*
X158145671Y-145630970D01*
X158122572Y-145639235D01*
X158098773Y-145645196D01*
X158074505Y-145648796D01*
X158050001Y-145650000D01*
X157149999Y-145650000D01*
X157125495Y-145648796D01*
X157101227Y-145645196D01*
X157077428Y-145639235D01*
X157054329Y-145630970D01*
X157032150Y-145620480D01*
X157011107Y-145607868D01*
X156991401Y-145593253D01*
X156973223Y-145576777D01*
X156956747Y-145558599D01*
X156942132Y-145538893D01*
X156929520Y-145517850D01*
X156919030Y-145495671D01*
X156910765Y-145472572D01*
X156904804Y-145448773D01*
X156901204Y-145424505D01*
X156900000Y-145400001D01*
X156900000Y-144749999D01*
X156901204Y-144725495D01*
X156904804Y-144701227D01*
X156910765Y-144677428D01*
X156919030Y-144654329D01*
X156929520Y-144632150D01*
X156942132Y-144611107D01*
X156956747Y-144591401D01*
X156973223Y-144573223D01*
X156991401Y-144556747D01*
X157011107Y-144542132D01*
X157032150Y-144529520D01*
X157054329Y-144519030D01*
X157077428Y-144510765D01*
X157101227Y-144504804D01*
X157125495Y-144501204D01*
X157149999Y-144500000D01*
X158050001Y-144500000D01*
X158074505Y-144501204D01*
G37*
G04 #@! TD.AperFunction*
G04 #@! TA.AperFunction,SMDPad,CuDef*
G36*
X158074505Y-146551204D02*
G01*
X158098773Y-146554804D01*
X158122572Y-146560765D01*
X158145671Y-146569030D01*
X158167850Y-146579520D01*
X158188893Y-146592132D01*
X158208599Y-146606747D01*
X158226777Y-146623223D01*
X158243253Y-146641401D01*
X158257868Y-146661107D01*
X158270480Y-146682150D01*
X158280970Y-146704329D01*
X158289235Y-146727428D01*
X158295196Y-146751227D01*
X158298796Y-146775495D01*
X158300000Y-146799999D01*
X158300000Y-147450001D01*
X158298796Y-147474505D01*
X158295196Y-147498773D01*
X158289235Y-147522572D01*
X158280970Y-147545671D01*
X158270480Y-147567850D01*
X158257868Y-147588893D01*
X158243253Y-147608599D01*
X158226777Y-147626777D01*
X158208599Y-147643253D01*
X158188893Y-147657868D01*
X158167850Y-147670480D01*
X158145671Y-147680970D01*
X158122572Y-147689235D01*
X158098773Y-147695196D01*
X158074505Y-147698796D01*
X158050001Y-147700000D01*
X157149999Y-147700000D01*
X157125495Y-147698796D01*
X157101227Y-147695196D01*
X157077428Y-147689235D01*
X157054329Y-147680970D01*
X157032150Y-147670480D01*
X157011107Y-147657868D01*
X156991401Y-147643253D01*
X156973223Y-147626777D01*
X156956747Y-147608599D01*
X156942132Y-147588893D01*
X156929520Y-147567850D01*
X156919030Y-147545671D01*
X156910765Y-147522572D01*
X156904804Y-147498773D01*
X156901204Y-147474505D01*
X156900000Y-147450001D01*
X156900000Y-146799999D01*
X156901204Y-146775495D01*
X156904804Y-146751227D01*
X156910765Y-146727428D01*
X156919030Y-146704329D01*
X156929520Y-146682150D01*
X156942132Y-146661107D01*
X156956747Y-146641401D01*
X156973223Y-146623223D01*
X156991401Y-146606747D01*
X157011107Y-146592132D01*
X157032150Y-146579520D01*
X157054329Y-146569030D01*
X157077428Y-146560765D01*
X157101227Y-146554804D01*
X157125495Y-146551204D01*
X157149999Y-146550000D01*
X158050001Y-146550000D01*
X158074505Y-146551204D01*
G37*
G04 #@! TD.AperFunction*
G04 #@! TA.AperFunction,SMDPad,CuDef*
G36*
X166674505Y-144601204D02*
G01*
X166698773Y-144604804D01*
X166722572Y-144610765D01*
X166745671Y-144619030D01*
X166767850Y-144629520D01*
X166788893Y-144642132D01*
X166808599Y-144656747D01*
X166826777Y-144673223D01*
X166843253Y-144691401D01*
X166857868Y-144711107D01*
X166870480Y-144732150D01*
X166880970Y-144754329D01*
X166889235Y-144777428D01*
X166895196Y-144801227D01*
X166898796Y-144825495D01*
X166900000Y-144849999D01*
X166900000Y-145500001D01*
X166898796Y-145524505D01*
X166895196Y-145548773D01*
X166889235Y-145572572D01*
X166880970Y-145595671D01*
X166870480Y-145617850D01*
X166857868Y-145638893D01*
X166843253Y-145658599D01*
X166826777Y-145676777D01*
X166808599Y-145693253D01*
X166788893Y-145707868D01*
X166767850Y-145720480D01*
X166745671Y-145730970D01*
X166722572Y-145739235D01*
X166698773Y-145745196D01*
X166674505Y-145748796D01*
X166650001Y-145750000D01*
X165749999Y-145750000D01*
X165725495Y-145748796D01*
X165701227Y-145745196D01*
X165677428Y-145739235D01*
X165654329Y-145730970D01*
X165632150Y-145720480D01*
X165611107Y-145707868D01*
X165591401Y-145693253D01*
X165573223Y-145676777D01*
X165556747Y-145658599D01*
X165542132Y-145638893D01*
X165529520Y-145617850D01*
X165519030Y-145595671D01*
X165510765Y-145572572D01*
X165504804Y-145548773D01*
X165501204Y-145524505D01*
X165500000Y-145500001D01*
X165500000Y-144849999D01*
X165501204Y-144825495D01*
X165504804Y-144801227D01*
X165510765Y-144777428D01*
X165519030Y-144754329D01*
X165529520Y-144732150D01*
X165542132Y-144711107D01*
X165556747Y-144691401D01*
X165573223Y-144673223D01*
X165591401Y-144656747D01*
X165611107Y-144642132D01*
X165632150Y-144629520D01*
X165654329Y-144619030D01*
X165677428Y-144610765D01*
X165701227Y-144604804D01*
X165725495Y-144601204D01*
X165749999Y-144600000D01*
X166650001Y-144600000D01*
X166674505Y-144601204D01*
G37*
G04 #@! TD.AperFunction*
G04 #@! TA.AperFunction,SMDPad,CuDef*
G36*
X166674505Y-146651204D02*
G01*
X166698773Y-146654804D01*
X166722572Y-146660765D01*
X166745671Y-146669030D01*
X166767850Y-146679520D01*
X166788893Y-146692132D01*
X166808599Y-146706747D01*
X166826777Y-146723223D01*
X166843253Y-146741401D01*
X166857868Y-146761107D01*
X166870480Y-146782150D01*
X166880970Y-146804329D01*
X166889235Y-146827428D01*
X166895196Y-146851227D01*
X166898796Y-146875495D01*
X166900000Y-146899999D01*
X166900000Y-147550001D01*
X166898796Y-147574505D01*
X166895196Y-147598773D01*
X166889235Y-147622572D01*
X166880970Y-147645671D01*
X166870480Y-147667850D01*
X166857868Y-147688893D01*
X166843253Y-147708599D01*
X166826777Y-147726777D01*
X166808599Y-147743253D01*
X166788893Y-147757868D01*
X166767850Y-147770480D01*
X166745671Y-147780970D01*
X166722572Y-147789235D01*
X166698773Y-147795196D01*
X166674505Y-147798796D01*
X166650001Y-147800000D01*
X165749999Y-147800000D01*
X165725495Y-147798796D01*
X165701227Y-147795196D01*
X165677428Y-147789235D01*
X165654329Y-147780970D01*
X165632150Y-147770480D01*
X165611107Y-147757868D01*
X165591401Y-147743253D01*
X165573223Y-147726777D01*
X165556747Y-147708599D01*
X165542132Y-147688893D01*
X165529520Y-147667850D01*
X165519030Y-147645671D01*
X165510765Y-147622572D01*
X165504804Y-147598773D01*
X165501204Y-147574505D01*
X165500000Y-147550001D01*
X165500000Y-146899999D01*
X165501204Y-146875495D01*
X165504804Y-146851227D01*
X165510765Y-146827428D01*
X165519030Y-146804329D01*
X165529520Y-146782150D01*
X165542132Y-146761107D01*
X165556747Y-146741401D01*
X165573223Y-146723223D01*
X165591401Y-146706747D01*
X165611107Y-146692132D01*
X165632150Y-146679520D01*
X165654329Y-146669030D01*
X165677428Y-146660765D01*
X165701227Y-146654804D01*
X165725495Y-146651204D01*
X165749999Y-146650000D01*
X166650001Y-146650000D01*
X166674505Y-146651204D01*
G37*
G04 #@! TD.AperFunction*
G04 #@! TA.AperFunction,SMDPad,CuDef*
G36*
X155974505Y-123851204D02*
G01*
X155998773Y-123854804D01*
X156022572Y-123860765D01*
X156045671Y-123869030D01*
X156067850Y-123879520D01*
X156088893Y-123892132D01*
X156108599Y-123906747D01*
X156126777Y-123923223D01*
X156143253Y-123941401D01*
X156157868Y-123961107D01*
X156170480Y-123982150D01*
X156180970Y-124004329D01*
X156189235Y-124027428D01*
X156195196Y-124051227D01*
X156198796Y-124075495D01*
X156200000Y-124099999D01*
X156200000Y-124750001D01*
X156198796Y-124774505D01*
X156195196Y-124798773D01*
X156189235Y-124822572D01*
X156180970Y-124845671D01*
X156170480Y-124867850D01*
X156157868Y-124888893D01*
X156143253Y-124908599D01*
X156126777Y-124926777D01*
X156108599Y-124943253D01*
X156088893Y-124957868D01*
X156067850Y-124970480D01*
X156045671Y-124980970D01*
X156022572Y-124989235D01*
X155998773Y-124995196D01*
X155974505Y-124998796D01*
X155950001Y-125000000D01*
X155049999Y-125000000D01*
X155025495Y-124998796D01*
X155001227Y-124995196D01*
X154977428Y-124989235D01*
X154954329Y-124980970D01*
X154932150Y-124970480D01*
X154911107Y-124957868D01*
X154891401Y-124943253D01*
X154873223Y-124926777D01*
X154856747Y-124908599D01*
X154842132Y-124888893D01*
X154829520Y-124867850D01*
X154819030Y-124845671D01*
X154810765Y-124822572D01*
X154804804Y-124798773D01*
X154801204Y-124774505D01*
X154800000Y-124750001D01*
X154800000Y-124099999D01*
X154801204Y-124075495D01*
X154804804Y-124051227D01*
X154810765Y-124027428D01*
X154819030Y-124004329D01*
X154829520Y-123982150D01*
X154842132Y-123961107D01*
X154856747Y-123941401D01*
X154873223Y-123923223D01*
X154891401Y-123906747D01*
X154911107Y-123892132D01*
X154932150Y-123879520D01*
X154954329Y-123869030D01*
X154977428Y-123860765D01*
X155001227Y-123854804D01*
X155025495Y-123851204D01*
X155049999Y-123850000D01*
X155950001Y-123850000D01*
X155974505Y-123851204D01*
G37*
G04 #@! TD.AperFunction*
G04 #@! TA.AperFunction,SMDPad,CuDef*
G36*
X155974505Y-121801204D02*
G01*
X155998773Y-121804804D01*
X156022572Y-121810765D01*
X156045671Y-121819030D01*
X156067850Y-121829520D01*
X156088893Y-121842132D01*
X156108599Y-121856747D01*
X156126777Y-121873223D01*
X156143253Y-121891401D01*
X156157868Y-121911107D01*
X156170480Y-121932150D01*
X156180970Y-121954329D01*
X156189235Y-121977428D01*
X156195196Y-122001227D01*
X156198796Y-122025495D01*
X156200000Y-122049999D01*
X156200000Y-122700001D01*
X156198796Y-122724505D01*
X156195196Y-122748773D01*
X156189235Y-122772572D01*
X156180970Y-122795671D01*
X156170480Y-122817850D01*
X156157868Y-122838893D01*
X156143253Y-122858599D01*
X156126777Y-122876777D01*
X156108599Y-122893253D01*
X156088893Y-122907868D01*
X156067850Y-122920480D01*
X156045671Y-122930970D01*
X156022572Y-122939235D01*
X155998773Y-122945196D01*
X155974505Y-122948796D01*
X155950001Y-122950000D01*
X155049999Y-122950000D01*
X155025495Y-122948796D01*
X155001227Y-122945196D01*
X154977428Y-122939235D01*
X154954329Y-122930970D01*
X154932150Y-122920480D01*
X154911107Y-122907868D01*
X154891401Y-122893253D01*
X154873223Y-122876777D01*
X154856747Y-122858599D01*
X154842132Y-122838893D01*
X154829520Y-122817850D01*
X154819030Y-122795671D01*
X154810765Y-122772572D01*
X154804804Y-122748773D01*
X154801204Y-122724505D01*
X154800000Y-122700001D01*
X154800000Y-122049999D01*
X154801204Y-122025495D01*
X154804804Y-122001227D01*
X154810765Y-121977428D01*
X154819030Y-121954329D01*
X154829520Y-121932150D01*
X154842132Y-121911107D01*
X154856747Y-121891401D01*
X154873223Y-121873223D01*
X154891401Y-121856747D01*
X154911107Y-121842132D01*
X154932150Y-121829520D01*
X154954329Y-121819030D01*
X154977428Y-121810765D01*
X155001227Y-121804804D01*
X155025495Y-121801204D01*
X155049999Y-121800000D01*
X155950001Y-121800000D01*
X155974505Y-121801204D01*
G37*
G04 #@! TD.AperFunction*
G04 #@! TA.AperFunction,SMDPad,CuDef*
G36*
X168024505Y-133001204D02*
G01*
X168048773Y-133004804D01*
X168072572Y-133010765D01*
X168095671Y-133019030D01*
X168117850Y-133029520D01*
X168138893Y-133042132D01*
X168158599Y-133056747D01*
X168176777Y-133073223D01*
X168193253Y-133091401D01*
X168207868Y-133111107D01*
X168220480Y-133132150D01*
X168230970Y-133154329D01*
X168239235Y-133177428D01*
X168245196Y-133201227D01*
X168248796Y-133225495D01*
X168250000Y-133249999D01*
X168250000Y-134150001D01*
X168248796Y-134174505D01*
X168245196Y-134198773D01*
X168239235Y-134222572D01*
X168230970Y-134245671D01*
X168220480Y-134267850D01*
X168207868Y-134288893D01*
X168193253Y-134308599D01*
X168176777Y-134326777D01*
X168158599Y-134343253D01*
X168138893Y-134357868D01*
X168117850Y-134370480D01*
X168095671Y-134380970D01*
X168072572Y-134389235D01*
X168048773Y-134395196D01*
X168024505Y-134398796D01*
X168000001Y-134400000D01*
X167349999Y-134400000D01*
X167325495Y-134398796D01*
X167301227Y-134395196D01*
X167277428Y-134389235D01*
X167254329Y-134380970D01*
X167232150Y-134370480D01*
X167211107Y-134357868D01*
X167191401Y-134343253D01*
X167173223Y-134326777D01*
X167156747Y-134308599D01*
X167142132Y-134288893D01*
X167129520Y-134267850D01*
X167119030Y-134245671D01*
X167110765Y-134222572D01*
X167104804Y-134198773D01*
X167101204Y-134174505D01*
X167100000Y-134150001D01*
X167100000Y-133249999D01*
X167101204Y-133225495D01*
X167104804Y-133201227D01*
X167110765Y-133177428D01*
X167119030Y-133154329D01*
X167129520Y-133132150D01*
X167142132Y-133111107D01*
X167156747Y-133091401D01*
X167173223Y-133073223D01*
X167191401Y-133056747D01*
X167211107Y-133042132D01*
X167232150Y-133029520D01*
X167254329Y-133019030D01*
X167277428Y-133010765D01*
X167301227Y-133004804D01*
X167325495Y-133001204D01*
X167349999Y-133000000D01*
X168000001Y-133000000D01*
X168024505Y-133001204D01*
G37*
G04 #@! TD.AperFunction*
G04 #@! TA.AperFunction,SMDPad,CuDef*
G36*
X170074505Y-133001204D02*
G01*
X170098773Y-133004804D01*
X170122572Y-133010765D01*
X170145671Y-133019030D01*
X170167850Y-133029520D01*
X170188893Y-133042132D01*
X170208599Y-133056747D01*
X170226777Y-133073223D01*
X170243253Y-133091401D01*
X170257868Y-133111107D01*
X170270480Y-133132150D01*
X170280970Y-133154329D01*
X170289235Y-133177428D01*
X170295196Y-133201227D01*
X170298796Y-133225495D01*
X170300000Y-133249999D01*
X170300000Y-134150001D01*
X170298796Y-134174505D01*
X170295196Y-134198773D01*
X170289235Y-134222572D01*
X170280970Y-134245671D01*
X170270480Y-134267850D01*
X170257868Y-134288893D01*
X170243253Y-134308599D01*
X170226777Y-134326777D01*
X170208599Y-134343253D01*
X170188893Y-134357868D01*
X170167850Y-134370480D01*
X170145671Y-134380970D01*
X170122572Y-134389235D01*
X170098773Y-134395196D01*
X170074505Y-134398796D01*
X170050001Y-134400000D01*
X169399999Y-134400000D01*
X169375495Y-134398796D01*
X169351227Y-134395196D01*
X169327428Y-134389235D01*
X169304329Y-134380970D01*
X169282150Y-134370480D01*
X169261107Y-134357868D01*
X169241401Y-134343253D01*
X169223223Y-134326777D01*
X169206747Y-134308599D01*
X169192132Y-134288893D01*
X169179520Y-134267850D01*
X169169030Y-134245671D01*
X169160765Y-134222572D01*
X169154804Y-134198773D01*
X169151204Y-134174505D01*
X169150000Y-134150001D01*
X169150000Y-133249999D01*
X169151204Y-133225495D01*
X169154804Y-133201227D01*
X169160765Y-133177428D01*
X169169030Y-133154329D01*
X169179520Y-133132150D01*
X169192132Y-133111107D01*
X169206747Y-133091401D01*
X169223223Y-133073223D01*
X169241401Y-133056747D01*
X169261107Y-133042132D01*
X169282150Y-133029520D01*
X169304329Y-133019030D01*
X169327428Y-133010765D01*
X169351227Y-133004804D01*
X169375495Y-133001204D01*
X169399999Y-133000000D01*
X170050001Y-133000000D01*
X170074505Y-133001204D01*
G37*
G04 #@! TD.AperFunction*
G04 #@! TA.AperFunction,SMDPad,CuDef*
G36*
X161974505Y-144501204D02*
G01*
X161998773Y-144504804D01*
X162022572Y-144510765D01*
X162045671Y-144519030D01*
X162067850Y-144529520D01*
X162088893Y-144542132D01*
X162108599Y-144556747D01*
X162126777Y-144573223D01*
X162143253Y-144591401D01*
X162157868Y-144611107D01*
X162170480Y-144632150D01*
X162180970Y-144654329D01*
X162189235Y-144677428D01*
X162195196Y-144701227D01*
X162198796Y-144725495D01*
X162200000Y-144749999D01*
X162200000Y-145400001D01*
X162198796Y-145424505D01*
X162195196Y-145448773D01*
X162189235Y-145472572D01*
X162180970Y-145495671D01*
X162170480Y-145517850D01*
X162157868Y-145538893D01*
X162143253Y-145558599D01*
X162126777Y-145576777D01*
X162108599Y-145593253D01*
X162088893Y-145607868D01*
X162067850Y-145620480D01*
X162045671Y-145630970D01*
X162022572Y-145639235D01*
X161998773Y-145645196D01*
X161974505Y-145648796D01*
X161950001Y-145650000D01*
X161049999Y-145650000D01*
X161025495Y-145648796D01*
X161001227Y-145645196D01*
X160977428Y-145639235D01*
X160954329Y-145630970D01*
X160932150Y-145620480D01*
X160911107Y-145607868D01*
X160891401Y-145593253D01*
X160873223Y-145576777D01*
X160856747Y-145558599D01*
X160842132Y-145538893D01*
X160829520Y-145517850D01*
X160819030Y-145495671D01*
X160810765Y-145472572D01*
X160804804Y-145448773D01*
X160801204Y-145424505D01*
X160800000Y-145400001D01*
X160800000Y-144749999D01*
X160801204Y-144725495D01*
X160804804Y-144701227D01*
X160810765Y-144677428D01*
X160819030Y-144654329D01*
X160829520Y-144632150D01*
X160842132Y-144611107D01*
X160856747Y-144591401D01*
X160873223Y-144573223D01*
X160891401Y-144556747D01*
X160911107Y-144542132D01*
X160932150Y-144529520D01*
X160954329Y-144519030D01*
X160977428Y-144510765D01*
X161001227Y-144504804D01*
X161025495Y-144501204D01*
X161049999Y-144500000D01*
X161950001Y-144500000D01*
X161974505Y-144501204D01*
G37*
G04 #@! TD.AperFunction*
G04 #@! TA.AperFunction,SMDPad,CuDef*
G36*
X161974505Y-146551204D02*
G01*
X161998773Y-146554804D01*
X162022572Y-146560765D01*
X162045671Y-146569030D01*
X162067850Y-146579520D01*
X162088893Y-146592132D01*
X162108599Y-146606747D01*
X162126777Y-146623223D01*
X162143253Y-146641401D01*
X162157868Y-146661107D01*
X162170480Y-146682150D01*
X162180970Y-146704329D01*
X162189235Y-146727428D01*
X162195196Y-146751227D01*
X162198796Y-146775495D01*
X162200000Y-146799999D01*
X162200000Y-147450001D01*
X162198796Y-147474505D01*
X162195196Y-147498773D01*
X162189235Y-147522572D01*
X162180970Y-147545671D01*
X162170480Y-147567850D01*
X162157868Y-147588893D01*
X162143253Y-147608599D01*
X162126777Y-147626777D01*
X162108599Y-147643253D01*
X162088893Y-147657868D01*
X162067850Y-147670480D01*
X162045671Y-147680970D01*
X162022572Y-147689235D01*
X161998773Y-147695196D01*
X161974505Y-147698796D01*
X161950001Y-147700000D01*
X161049999Y-147700000D01*
X161025495Y-147698796D01*
X161001227Y-147695196D01*
X160977428Y-147689235D01*
X160954329Y-147680970D01*
X160932150Y-147670480D01*
X160911107Y-147657868D01*
X160891401Y-147643253D01*
X160873223Y-147626777D01*
X160856747Y-147608599D01*
X160842132Y-147588893D01*
X160829520Y-147567850D01*
X160819030Y-147545671D01*
X160810765Y-147522572D01*
X160804804Y-147498773D01*
X160801204Y-147474505D01*
X160800000Y-147450001D01*
X160800000Y-146799999D01*
X160801204Y-146775495D01*
X160804804Y-146751227D01*
X160810765Y-146727428D01*
X160819030Y-146704329D01*
X160829520Y-146682150D01*
X160842132Y-146661107D01*
X160856747Y-146641401D01*
X160873223Y-146623223D01*
X160891401Y-146606747D01*
X160911107Y-146592132D01*
X160932150Y-146579520D01*
X160954329Y-146569030D01*
X160977428Y-146560765D01*
X161001227Y-146554804D01*
X161025495Y-146551204D01*
X161049999Y-146550000D01*
X161950001Y-146550000D01*
X161974505Y-146551204D01*
G37*
G04 #@! TD.AperFunction*
G04 #@! TA.AperFunction,SMDPad,CuDef*
G36*
X158024504Y-114601204D02*
G01*
X158048773Y-114604804D01*
X158072571Y-114610765D01*
X158095671Y-114619030D01*
X158117849Y-114629520D01*
X158138893Y-114642133D01*
X158158598Y-114656747D01*
X158176777Y-114673223D01*
X158193253Y-114691402D01*
X158207867Y-114711107D01*
X158220480Y-114732151D01*
X158230970Y-114754329D01*
X158239235Y-114777429D01*
X158245196Y-114801227D01*
X158248796Y-114825496D01*
X158250000Y-114850000D01*
X158250000Y-115950000D01*
X158248796Y-115974504D01*
X158245196Y-115998773D01*
X158239235Y-116022571D01*
X158230970Y-116045671D01*
X158220480Y-116067849D01*
X158207867Y-116088893D01*
X158193253Y-116108598D01*
X158176777Y-116126777D01*
X158158598Y-116143253D01*
X158138893Y-116157867D01*
X158117849Y-116170480D01*
X158095671Y-116180970D01*
X158072571Y-116189235D01*
X158048773Y-116195196D01*
X158024504Y-116198796D01*
X158000000Y-116200000D01*
X155000000Y-116200000D01*
X154975496Y-116198796D01*
X154951227Y-116195196D01*
X154927429Y-116189235D01*
X154904329Y-116180970D01*
X154882151Y-116170480D01*
X154861107Y-116157867D01*
X154841402Y-116143253D01*
X154823223Y-116126777D01*
X154806747Y-116108598D01*
X154792133Y-116088893D01*
X154779520Y-116067849D01*
X154769030Y-116045671D01*
X154760765Y-116022571D01*
X154754804Y-115998773D01*
X154751204Y-115974504D01*
X154750000Y-115950000D01*
X154750000Y-114850000D01*
X154751204Y-114825496D01*
X154754804Y-114801227D01*
X154760765Y-114777429D01*
X154769030Y-114754329D01*
X154779520Y-114732151D01*
X154792133Y-114711107D01*
X154806747Y-114691402D01*
X154823223Y-114673223D01*
X154841402Y-114656747D01*
X154861107Y-114642133D01*
X154882151Y-114629520D01*
X154904329Y-114619030D01*
X154927429Y-114610765D01*
X154951227Y-114604804D01*
X154975496Y-114601204D01*
X155000000Y-114600000D01*
X158000000Y-114600000D01*
X158024504Y-114601204D01*
G37*
G04 #@! TD.AperFunction*
G04 #@! TA.AperFunction,SMDPad,CuDef*
G36*
X152624504Y-114601204D02*
G01*
X152648773Y-114604804D01*
X152672571Y-114610765D01*
X152695671Y-114619030D01*
X152717849Y-114629520D01*
X152738893Y-114642133D01*
X152758598Y-114656747D01*
X152776777Y-114673223D01*
X152793253Y-114691402D01*
X152807867Y-114711107D01*
X152820480Y-114732151D01*
X152830970Y-114754329D01*
X152839235Y-114777429D01*
X152845196Y-114801227D01*
X152848796Y-114825496D01*
X152850000Y-114850000D01*
X152850000Y-115950000D01*
X152848796Y-115974504D01*
X152845196Y-115998773D01*
X152839235Y-116022571D01*
X152830970Y-116045671D01*
X152820480Y-116067849D01*
X152807867Y-116088893D01*
X152793253Y-116108598D01*
X152776777Y-116126777D01*
X152758598Y-116143253D01*
X152738893Y-116157867D01*
X152717849Y-116170480D01*
X152695671Y-116180970D01*
X152672571Y-116189235D01*
X152648773Y-116195196D01*
X152624504Y-116198796D01*
X152600000Y-116200000D01*
X149600000Y-116200000D01*
X149575496Y-116198796D01*
X149551227Y-116195196D01*
X149527429Y-116189235D01*
X149504329Y-116180970D01*
X149482151Y-116170480D01*
X149461107Y-116157867D01*
X149441402Y-116143253D01*
X149423223Y-116126777D01*
X149406747Y-116108598D01*
X149392133Y-116088893D01*
X149379520Y-116067849D01*
X149369030Y-116045671D01*
X149360765Y-116022571D01*
X149354804Y-115998773D01*
X149351204Y-115974504D01*
X149350000Y-115950000D01*
X149350000Y-114850000D01*
X149351204Y-114825496D01*
X149354804Y-114801227D01*
X149360765Y-114777429D01*
X149369030Y-114754329D01*
X149379520Y-114732151D01*
X149392133Y-114711107D01*
X149406747Y-114691402D01*
X149423223Y-114673223D01*
X149441402Y-114656747D01*
X149461107Y-114642133D01*
X149482151Y-114629520D01*
X149504329Y-114619030D01*
X149527429Y-114610765D01*
X149551227Y-114604804D01*
X149575496Y-114601204D01*
X149600000Y-114600000D01*
X152600000Y-114600000D01*
X152624504Y-114601204D01*
G37*
G04 #@! TD.AperFunction*
G04 #@! TA.AperFunction,SMDPad,CuDef*
G36*
X137824504Y-129201204D02*
G01*
X137848773Y-129204804D01*
X137872571Y-129210765D01*
X137895671Y-129219030D01*
X137917849Y-129229520D01*
X137938893Y-129242133D01*
X137958598Y-129256747D01*
X137976777Y-129273223D01*
X137993253Y-129291402D01*
X138007867Y-129311107D01*
X138020480Y-129332151D01*
X138030970Y-129354329D01*
X138039235Y-129377429D01*
X138045196Y-129401227D01*
X138048796Y-129425496D01*
X138050000Y-129450000D01*
X138050000Y-130550000D01*
X138048796Y-130574504D01*
X138045196Y-130598773D01*
X138039235Y-130622571D01*
X138030970Y-130645671D01*
X138020480Y-130667849D01*
X138007867Y-130688893D01*
X137993253Y-130708598D01*
X137976777Y-130726777D01*
X137958598Y-130743253D01*
X137938893Y-130757867D01*
X137917849Y-130770480D01*
X137895671Y-130780970D01*
X137872571Y-130789235D01*
X137848773Y-130795196D01*
X137824504Y-130798796D01*
X137800000Y-130800000D01*
X134800000Y-130800000D01*
X134775496Y-130798796D01*
X134751227Y-130795196D01*
X134727429Y-130789235D01*
X134704329Y-130780970D01*
X134682151Y-130770480D01*
X134661107Y-130757867D01*
X134641402Y-130743253D01*
X134623223Y-130726777D01*
X134606747Y-130708598D01*
X134592133Y-130688893D01*
X134579520Y-130667849D01*
X134569030Y-130645671D01*
X134560765Y-130622571D01*
X134554804Y-130598773D01*
X134551204Y-130574504D01*
X134550000Y-130550000D01*
X134550000Y-129450000D01*
X134551204Y-129425496D01*
X134554804Y-129401227D01*
X134560765Y-129377429D01*
X134569030Y-129354329D01*
X134579520Y-129332151D01*
X134592133Y-129311107D01*
X134606747Y-129291402D01*
X134623223Y-129273223D01*
X134641402Y-129256747D01*
X134661107Y-129242133D01*
X134682151Y-129229520D01*
X134704329Y-129219030D01*
X134727429Y-129210765D01*
X134751227Y-129204804D01*
X134775496Y-129201204D01*
X134800000Y-129200000D01*
X137800000Y-129200000D01*
X137824504Y-129201204D01*
G37*
G04 #@! TD.AperFunction*
G04 #@! TA.AperFunction,SMDPad,CuDef*
G36*
X143224504Y-129201204D02*
G01*
X143248773Y-129204804D01*
X143272571Y-129210765D01*
X143295671Y-129219030D01*
X143317849Y-129229520D01*
X143338893Y-129242133D01*
X143358598Y-129256747D01*
X143376777Y-129273223D01*
X143393253Y-129291402D01*
X143407867Y-129311107D01*
X143420480Y-129332151D01*
X143430970Y-129354329D01*
X143439235Y-129377429D01*
X143445196Y-129401227D01*
X143448796Y-129425496D01*
X143450000Y-129450000D01*
X143450000Y-130550000D01*
X143448796Y-130574504D01*
X143445196Y-130598773D01*
X143439235Y-130622571D01*
X143430970Y-130645671D01*
X143420480Y-130667849D01*
X143407867Y-130688893D01*
X143393253Y-130708598D01*
X143376777Y-130726777D01*
X143358598Y-130743253D01*
X143338893Y-130757867D01*
X143317849Y-130770480D01*
X143295671Y-130780970D01*
X143272571Y-130789235D01*
X143248773Y-130795196D01*
X143224504Y-130798796D01*
X143200000Y-130800000D01*
X140200000Y-130800000D01*
X140175496Y-130798796D01*
X140151227Y-130795196D01*
X140127429Y-130789235D01*
X140104329Y-130780970D01*
X140082151Y-130770480D01*
X140061107Y-130757867D01*
X140041402Y-130743253D01*
X140023223Y-130726777D01*
X140006747Y-130708598D01*
X139992133Y-130688893D01*
X139979520Y-130667849D01*
X139969030Y-130645671D01*
X139960765Y-130622571D01*
X139954804Y-130598773D01*
X139951204Y-130574504D01*
X139950000Y-130550000D01*
X139950000Y-129450000D01*
X139951204Y-129425496D01*
X139954804Y-129401227D01*
X139960765Y-129377429D01*
X139969030Y-129354329D01*
X139979520Y-129332151D01*
X139992133Y-129311107D01*
X140006747Y-129291402D01*
X140023223Y-129273223D01*
X140041402Y-129256747D01*
X140061107Y-129242133D01*
X140082151Y-129229520D01*
X140104329Y-129219030D01*
X140127429Y-129210765D01*
X140151227Y-129204804D01*
X140175496Y-129201204D01*
X140200000Y-129200000D01*
X143200000Y-129200000D01*
X143224504Y-129201204D01*
G37*
G04 #@! TD.AperFunction*
D14*
X136700000Y-122400000D03*
D15*
X139240000Y-122400000D03*
X141780000Y-122400000D03*
X144320000Y-122400000D03*
X146860000Y-122400000D03*
D16*
X171700000Y-112900000D03*
X162900000Y-112900000D03*
X171700000Y-118400000D03*
X162900000Y-118400000D03*
D17*
X168900000Y-118400000D03*
X168100000Y-118400000D03*
X167300000Y-118400000D03*
X166500000Y-118400000D03*
X165700000Y-118400000D03*
G04 #@! TA.AperFunction,SMDPad,CuDef*
D13*
G36*
X145224505Y-133501204D02*
G01*
X145248773Y-133504804D01*
X145272572Y-133510765D01*
X145295671Y-133519030D01*
X145317850Y-133529520D01*
X145338893Y-133542132D01*
X145358599Y-133556747D01*
X145376777Y-133573223D01*
X145393253Y-133591401D01*
X145407868Y-133611107D01*
X145420480Y-133632150D01*
X145430970Y-133654329D01*
X145439235Y-133677428D01*
X145445196Y-133701227D01*
X145448796Y-133725495D01*
X145450000Y-133749999D01*
X145450000Y-134650001D01*
X145448796Y-134674505D01*
X145445196Y-134698773D01*
X145439235Y-134722572D01*
X145430970Y-134745671D01*
X145420480Y-134767850D01*
X145407868Y-134788893D01*
X145393253Y-134808599D01*
X145376777Y-134826777D01*
X145358599Y-134843253D01*
X145338893Y-134857868D01*
X145317850Y-134870480D01*
X145295671Y-134880970D01*
X145272572Y-134889235D01*
X145248773Y-134895196D01*
X145224505Y-134898796D01*
X145200001Y-134900000D01*
X144549999Y-134900000D01*
X144525495Y-134898796D01*
X144501227Y-134895196D01*
X144477428Y-134889235D01*
X144454329Y-134880970D01*
X144432150Y-134870480D01*
X144411107Y-134857868D01*
X144391401Y-134843253D01*
X144373223Y-134826777D01*
X144356747Y-134808599D01*
X144342132Y-134788893D01*
X144329520Y-134767850D01*
X144319030Y-134745671D01*
X144310765Y-134722572D01*
X144304804Y-134698773D01*
X144301204Y-134674505D01*
X144300000Y-134650001D01*
X144300000Y-133749999D01*
X144301204Y-133725495D01*
X144304804Y-133701227D01*
X144310765Y-133677428D01*
X144319030Y-133654329D01*
X144329520Y-133632150D01*
X144342132Y-133611107D01*
X144356747Y-133591401D01*
X144373223Y-133573223D01*
X144391401Y-133556747D01*
X144411107Y-133542132D01*
X144432150Y-133529520D01*
X144454329Y-133519030D01*
X144477428Y-133510765D01*
X144501227Y-133504804D01*
X144525495Y-133501204D01*
X144549999Y-133500000D01*
X145200001Y-133500000D01*
X145224505Y-133501204D01*
G37*
G04 #@! TD.AperFunction*
G04 #@! TA.AperFunction,SMDPad,CuDef*
G36*
X147274505Y-133501204D02*
G01*
X147298773Y-133504804D01*
X147322572Y-133510765D01*
X147345671Y-133519030D01*
X147367850Y-133529520D01*
X147388893Y-133542132D01*
X147408599Y-133556747D01*
X147426777Y-133573223D01*
X147443253Y-133591401D01*
X147457868Y-133611107D01*
X147470480Y-133632150D01*
X147480970Y-133654329D01*
X147489235Y-133677428D01*
X147495196Y-133701227D01*
X147498796Y-133725495D01*
X147500000Y-133749999D01*
X147500000Y-134650001D01*
X147498796Y-134674505D01*
X147495196Y-134698773D01*
X147489235Y-134722572D01*
X147480970Y-134745671D01*
X147470480Y-134767850D01*
X147457868Y-134788893D01*
X147443253Y-134808599D01*
X147426777Y-134826777D01*
X147408599Y-134843253D01*
X147388893Y-134857868D01*
X147367850Y-134870480D01*
X147345671Y-134880970D01*
X147322572Y-134889235D01*
X147298773Y-134895196D01*
X147274505Y-134898796D01*
X147250001Y-134900000D01*
X146599999Y-134900000D01*
X146575495Y-134898796D01*
X146551227Y-134895196D01*
X146527428Y-134889235D01*
X146504329Y-134880970D01*
X146482150Y-134870480D01*
X146461107Y-134857868D01*
X146441401Y-134843253D01*
X146423223Y-134826777D01*
X146406747Y-134808599D01*
X146392132Y-134788893D01*
X146379520Y-134767850D01*
X146369030Y-134745671D01*
X146360765Y-134722572D01*
X146354804Y-134698773D01*
X146351204Y-134674505D01*
X146350000Y-134650001D01*
X146350000Y-133749999D01*
X146351204Y-133725495D01*
X146354804Y-133701227D01*
X146360765Y-133677428D01*
X146369030Y-133654329D01*
X146379520Y-133632150D01*
X146392132Y-133611107D01*
X146406747Y-133591401D01*
X146423223Y-133573223D01*
X146441401Y-133556747D01*
X146461107Y-133542132D01*
X146482150Y-133529520D01*
X146504329Y-133519030D01*
X146527428Y-133510765D01*
X146551227Y-133504804D01*
X146575495Y-133501204D01*
X146599999Y-133500000D01*
X147250001Y-133500000D01*
X147274505Y-133501204D01*
G37*
G04 #@! TD.AperFunction*
G04 #@! TA.AperFunction,SMDPad,CuDef*
G36*
X152974505Y-123851204D02*
G01*
X152998773Y-123854804D01*
X153022572Y-123860765D01*
X153045671Y-123869030D01*
X153067850Y-123879520D01*
X153088893Y-123892132D01*
X153108599Y-123906747D01*
X153126777Y-123923223D01*
X153143253Y-123941401D01*
X153157868Y-123961107D01*
X153170480Y-123982150D01*
X153180970Y-124004329D01*
X153189235Y-124027428D01*
X153195196Y-124051227D01*
X153198796Y-124075495D01*
X153200000Y-124099999D01*
X153200000Y-124750001D01*
X153198796Y-124774505D01*
X153195196Y-124798773D01*
X153189235Y-124822572D01*
X153180970Y-124845671D01*
X153170480Y-124867850D01*
X153157868Y-124888893D01*
X153143253Y-124908599D01*
X153126777Y-124926777D01*
X153108599Y-124943253D01*
X153088893Y-124957868D01*
X153067850Y-124970480D01*
X153045671Y-124980970D01*
X153022572Y-124989235D01*
X152998773Y-124995196D01*
X152974505Y-124998796D01*
X152950001Y-125000000D01*
X152049999Y-125000000D01*
X152025495Y-124998796D01*
X152001227Y-124995196D01*
X151977428Y-124989235D01*
X151954329Y-124980970D01*
X151932150Y-124970480D01*
X151911107Y-124957868D01*
X151891401Y-124943253D01*
X151873223Y-124926777D01*
X151856747Y-124908599D01*
X151842132Y-124888893D01*
X151829520Y-124867850D01*
X151819030Y-124845671D01*
X151810765Y-124822572D01*
X151804804Y-124798773D01*
X151801204Y-124774505D01*
X151800000Y-124750001D01*
X151800000Y-124099999D01*
X151801204Y-124075495D01*
X151804804Y-124051227D01*
X151810765Y-124027428D01*
X151819030Y-124004329D01*
X151829520Y-123982150D01*
X151842132Y-123961107D01*
X151856747Y-123941401D01*
X151873223Y-123923223D01*
X151891401Y-123906747D01*
X151911107Y-123892132D01*
X151932150Y-123879520D01*
X151954329Y-123869030D01*
X151977428Y-123860765D01*
X152001227Y-123854804D01*
X152025495Y-123851204D01*
X152049999Y-123850000D01*
X152950001Y-123850000D01*
X152974505Y-123851204D01*
G37*
G04 #@! TD.AperFunction*
G04 #@! TA.AperFunction,SMDPad,CuDef*
G36*
X152974505Y-121801204D02*
G01*
X152998773Y-121804804D01*
X153022572Y-121810765D01*
X153045671Y-121819030D01*
X153067850Y-121829520D01*
X153088893Y-121842132D01*
X153108599Y-121856747D01*
X153126777Y-121873223D01*
X153143253Y-121891401D01*
X153157868Y-121911107D01*
X153170480Y-121932150D01*
X153180970Y-121954329D01*
X153189235Y-121977428D01*
X153195196Y-122001227D01*
X153198796Y-122025495D01*
X153200000Y-122049999D01*
X153200000Y-122700001D01*
X153198796Y-122724505D01*
X153195196Y-122748773D01*
X153189235Y-122772572D01*
X153180970Y-122795671D01*
X153170480Y-122817850D01*
X153157868Y-122838893D01*
X153143253Y-122858599D01*
X153126777Y-122876777D01*
X153108599Y-122893253D01*
X153088893Y-122907868D01*
X153067850Y-122920480D01*
X153045671Y-122930970D01*
X153022572Y-122939235D01*
X152998773Y-122945196D01*
X152974505Y-122948796D01*
X152950001Y-122950000D01*
X152049999Y-122950000D01*
X152025495Y-122948796D01*
X152001227Y-122945196D01*
X151977428Y-122939235D01*
X151954329Y-122930970D01*
X151932150Y-122920480D01*
X151911107Y-122907868D01*
X151891401Y-122893253D01*
X151873223Y-122876777D01*
X151856747Y-122858599D01*
X151842132Y-122838893D01*
X151829520Y-122817850D01*
X151819030Y-122795671D01*
X151810765Y-122772572D01*
X151804804Y-122748773D01*
X151801204Y-122724505D01*
X151800000Y-122700001D01*
X151800000Y-122049999D01*
X151801204Y-122025495D01*
X151804804Y-122001227D01*
X151810765Y-121977428D01*
X151819030Y-121954329D01*
X151829520Y-121932150D01*
X151842132Y-121911107D01*
X151856747Y-121891401D01*
X151873223Y-121873223D01*
X151891401Y-121856747D01*
X151911107Y-121842132D01*
X151932150Y-121829520D01*
X151954329Y-121819030D01*
X151977428Y-121810765D01*
X152001227Y-121804804D01*
X152025495Y-121801204D01*
X152049999Y-121800000D01*
X152950001Y-121800000D01*
X152974505Y-121801204D01*
G37*
G04 #@! TD.AperFunction*
G04 #@! TA.AperFunction,SMDPad,CuDef*
G36*
X147574505Y-129801204D02*
G01*
X147598773Y-129804804D01*
X147622572Y-129810765D01*
X147645671Y-129819030D01*
X147667850Y-129829520D01*
X147688893Y-129842132D01*
X147708599Y-129856747D01*
X147726777Y-129873223D01*
X147743253Y-129891401D01*
X147757868Y-129911107D01*
X147770480Y-129932150D01*
X147780970Y-129954329D01*
X147789235Y-129977428D01*
X147795196Y-130001227D01*
X147798796Y-130025495D01*
X147800000Y-130049999D01*
X147800000Y-130950001D01*
X147798796Y-130974505D01*
X147795196Y-130998773D01*
X147789235Y-131022572D01*
X147780970Y-131045671D01*
X147770480Y-131067850D01*
X147757868Y-131088893D01*
X147743253Y-131108599D01*
X147726777Y-131126777D01*
X147708599Y-131143253D01*
X147688893Y-131157868D01*
X147667850Y-131170480D01*
X147645671Y-131180970D01*
X147622572Y-131189235D01*
X147598773Y-131195196D01*
X147574505Y-131198796D01*
X147550001Y-131200000D01*
X146899999Y-131200000D01*
X146875495Y-131198796D01*
X146851227Y-131195196D01*
X146827428Y-131189235D01*
X146804329Y-131180970D01*
X146782150Y-131170480D01*
X146761107Y-131157868D01*
X146741401Y-131143253D01*
X146723223Y-131126777D01*
X146706747Y-131108599D01*
X146692132Y-131088893D01*
X146679520Y-131067850D01*
X146669030Y-131045671D01*
X146660765Y-131022572D01*
X146654804Y-130998773D01*
X146651204Y-130974505D01*
X146650000Y-130950001D01*
X146650000Y-130049999D01*
X146651204Y-130025495D01*
X146654804Y-130001227D01*
X146660765Y-129977428D01*
X146669030Y-129954329D01*
X146679520Y-129932150D01*
X146692132Y-129911107D01*
X146706747Y-129891401D01*
X146723223Y-129873223D01*
X146741401Y-129856747D01*
X146761107Y-129842132D01*
X146782150Y-129829520D01*
X146804329Y-129819030D01*
X146827428Y-129810765D01*
X146851227Y-129804804D01*
X146875495Y-129801204D01*
X146899999Y-129800000D01*
X147550001Y-129800000D01*
X147574505Y-129801204D01*
G37*
G04 #@! TD.AperFunction*
G04 #@! TA.AperFunction,SMDPad,CuDef*
G36*
X145524505Y-129801204D02*
G01*
X145548773Y-129804804D01*
X145572572Y-129810765D01*
X145595671Y-129819030D01*
X145617850Y-129829520D01*
X145638893Y-129842132D01*
X145658599Y-129856747D01*
X145676777Y-129873223D01*
X145693253Y-129891401D01*
X145707868Y-129911107D01*
X145720480Y-129932150D01*
X145730970Y-129954329D01*
X145739235Y-129977428D01*
X145745196Y-130001227D01*
X145748796Y-130025495D01*
X145750000Y-130049999D01*
X145750000Y-130950001D01*
X145748796Y-130974505D01*
X145745196Y-130998773D01*
X145739235Y-131022572D01*
X145730970Y-131045671D01*
X145720480Y-131067850D01*
X145707868Y-131088893D01*
X145693253Y-131108599D01*
X145676777Y-131126777D01*
X145658599Y-131143253D01*
X145638893Y-131157868D01*
X145617850Y-131170480D01*
X145595671Y-131180970D01*
X145572572Y-131189235D01*
X145548773Y-131195196D01*
X145524505Y-131198796D01*
X145500001Y-131200000D01*
X144849999Y-131200000D01*
X144825495Y-131198796D01*
X144801227Y-131195196D01*
X144777428Y-131189235D01*
X144754329Y-131180970D01*
X144732150Y-131170480D01*
X144711107Y-131157868D01*
X144691401Y-131143253D01*
X144673223Y-131126777D01*
X144656747Y-131108599D01*
X144642132Y-131088893D01*
X144629520Y-131067850D01*
X144619030Y-131045671D01*
X144610765Y-131022572D01*
X144604804Y-130998773D01*
X144601204Y-130974505D01*
X144600000Y-130950001D01*
X144600000Y-130049999D01*
X144601204Y-130025495D01*
X144604804Y-130001227D01*
X144610765Y-129977428D01*
X144619030Y-129954329D01*
X144629520Y-129932150D01*
X144642132Y-129911107D01*
X144656747Y-129891401D01*
X144673223Y-129873223D01*
X144691401Y-129856747D01*
X144711107Y-129842132D01*
X144732150Y-129829520D01*
X144754329Y-129819030D01*
X144777428Y-129810765D01*
X144801227Y-129804804D01*
X144825495Y-129801204D01*
X144849999Y-129800000D01*
X145500001Y-129800000D01*
X145524505Y-129801204D01*
G37*
G04 #@! TD.AperFunction*
G04 #@! TA.AperFunction,SMDPad,CuDef*
G36*
X168124505Y-136901204D02*
G01*
X168148773Y-136904804D01*
X168172572Y-136910765D01*
X168195671Y-136919030D01*
X168217850Y-136929520D01*
X168238893Y-136942132D01*
X168258599Y-136956747D01*
X168276777Y-136973223D01*
X168293253Y-136991401D01*
X168307868Y-137011107D01*
X168320480Y-137032150D01*
X168330970Y-137054329D01*
X168339235Y-137077428D01*
X168345196Y-137101227D01*
X168348796Y-137125495D01*
X168350000Y-137149999D01*
X168350000Y-138050001D01*
X168348796Y-138074505D01*
X168345196Y-138098773D01*
X168339235Y-138122572D01*
X168330970Y-138145671D01*
X168320480Y-138167850D01*
X168307868Y-138188893D01*
X168293253Y-138208599D01*
X168276777Y-138226777D01*
X168258599Y-138243253D01*
X168238893Y-138257868D01*
X168217850Y-138270480D01*
X168195671Y-138280970D01*
X168172572Y-138289235D01*
X168148773Y-138295196D01*
X168124505Y-138298796D01*
X168100001Y-138300000D01*
X167449999Y-138300000D01*
X167425495Y-138298796D01*
X167401227Y-138295196D01*
X167377428Y-138289235D01*
X167354329Y-138280970D01*
X167332150Y-138270480D01*
X167311107Y-138257868D01*
X167291401Y-138243253D01*
X167273223Y-138226777D01*
X167256747Y-138208599D01*
X167242132Y-138188893D01*
X167229520Y-138167850D01*
X167219030Y-138145671D01*
X167210765Y-138122572D01*
X167204804Y-138098773D01*
X167201204Y-138074505D01*
X167200000Y-138050001D01*
X167200000Y-137149999D01*
X167201204Y-137125495D01*
X167204804Y-137101227D01*
X167210765Y-137077428D01*
X167219030Y-137054329D01*
X167229520Y-137032150D01*
X167242132Y-137011107D01*
X167256747Y-136991401D01*
X167273223Y-136973223D01*
X167291401Y-136956747D01*
X167311107Y-136942132D01*
X167332150Y-136929520D01*
X167354329Y-136919030D01*
X167377428Y-136910765D01*
X167401227Y-136904804D01*
X167425495Y-136901204D01*
X167449999Y-136900000D01*
X168100001Y-136900000D01*
X168124505Y-136901204D01*
G37*
G04 #@! TD.AperFunction*
G04 #@! TA.AperFunction,SMDPad,CuDef*
G36*
X170174505Y-136901204D02*
G01*
X170198773Y-136904804D01*
X170222572Y-136910765D01*
X170245671Y-136919030D01*
X170267850Y-136929520D01*
X170288893Y-136942132D01*
X170308599Y-136956747D01*
X170326777Y-136973223D01*
X170343253Y-136991401D01*
X170357868Y-137011107D01*
X170370480Y-137032150D01*
X170380970Y-137054329D01*
X170389235Y-137077428D01*
X170395196Y-137101227D01*
X170398796Y-137125495D01*
X170400000Y-137149999D01*
X170400000Y-138050001D01*
X170398796Y-138074505D01*
X170395196Y-138098773D01*
X170389235Y-138122572D01*
X170380970Y-138145671D01*
X170370480Y-138167850D01*
X170357868Y-138188893D01*
X170343253Y-138208599D01*
X170326777Y-138226777D01*
X170308599Y-138243253D01*
X170288893Y-138257868D01*
X170267850Y-138270480D01*
X170245671Y-138280970D01*
X170222572Y-138289235D01*
X170198773Y-138295196D01*
X170174505Y-138298796D01*
X170150001Y-138300000D01*
X169499999Y-138300000D01*
X169475495Y-138298796D01*
X169451227Y-138295196D01*
X169427428Y-138289235D01*
X169404329Y-138280970D01*
X169382150Y-138270480D01*
X169361107Y-138257868D01*
X169341401Y-138243253D01*
X169323223Y-138226777D01*
X169306747Y-138208599D01*
X169292132Y-138188893D01*
X169279520Y-138167850D01*
X169269030Y-138145671D01*
X169260765Y-138122572D01*
X169254804Y-138098773D01*
X169251204Y-138074505D01*
X169250000Y-138050001D01*
X169250000Y-137149999D01*
X169251204Y-137125495D01*
X169254804Y-137101227D01*
X169260765Y-137077428D01*
X169269030Y-137054329D01*
X169279520Y-137032150D01*
X169292132Y-137011107D01*
X169306747Y-136991401D01*
X169323223Y-136973223D01*
X169341401Y-136956747D01*
X169361107Y-136942132D01*
X169382150Y-136929520D01*
X169404329Y-136919030D01*
X169427428Y-136910765D01*
X169451227Y-136904804D01*
X169475495Y-136901204D01*
X169499999Y-136900000D01*
X170150001Y-136900000D01*
X170174505Y-136901204D01*
G37*
G04 #@! TD.AperFunction*
D18*
X169400000Y-128950000D03*
D19*
X169400000Y-122650000D03*
X167100000Y-122650000D03*
X171700000Y-122650000D03*
D20*
X145000000Y-132600000D03*
X145000000Y-135900000D03*
X157000000Y-122500000D03*
X169400000Y-120900000D03*
X159900000Y-145400000D03*
X164200000Y-146700000D03*
X145000000Y-127500000D03*
X147300000Y-128700000D03*
X146200000Y-126300000D03*
X148500000Y-132900000D03*
X149300000Y-123200000D03*
X151000000Y-124400000D03*
D21*
X153975000Y-145000000D02*
X154000000Y-144975000D01*
X150400000Y-145000000D02*
X153975000Y-145000000D01*
X155000000Y-144675000D02*
X155000000Y-140100000D01*
X154700000Y-144975000D02*
X155000000Y-144675000D01*
X155000000Y-140100000D02*
X155000000Y-139450000D01*
X154000000Y-144975000D02*
X154700000Y-144975000D01*
X136700000Y-129600000D02*
X136300000Y-130000000D01*
X136700000Y-122400000D02*
X136700000Y-129600000D01*
X144600000Y-130500000D02*
X145175000Y-130500000D01*
X143974990Y-131125010D02*
X144600000Y-130500000D01*
X137425010Y-131125010D02*
X143974990Y-131125010D01*
X136300000Y-130000000D02*
X137425010Y-131125010D01*
X145175000Y-130500000D02*
X145175000Y-132425000D01*
X145175000Y-132425000D02*
X145000000Y-132600000D01*
X145000000Y-138125000D02*
X145075000Y-138200000D01*
X145000000Y-135900000D02*
X145000000Y-138125000D01*
X145075000Y-142425000D02*
X149700000Y-147050000D01*
X149700000Y-147050000D02*
X150400000Y-147050000D01*
X145075000Y-138200000D02*
X145075000Y-142425000D01*
X153975000Y-147050000D02*
X154000000Y-147025000D01*
X150400000Y-147050000D02*
X153975000Y-147050000D01*
X157500000Y-147025000D02*
X157600000Y-147125000D01*
X154000000Y-147025000D02*
X157500000Y-147025000D01*
X158300000Y-147125000D02*
X161500000Y-147125000D01*
X157600000Y-147125000D02*
X158300000Y-147125000D01*
X165500000Y-145175000D02*
X166200000Y-145175000D01*
X164150000Y-145175000D02*
X165500000Y-145175000D01*
X162200000Y-147125000D02*
X164150000Y-145175000D01*
X161500000Y-147125000D02*
X162200000Y-147125000D01*
X151800000Y-122375000D02*
X152500000Y-122375000D01*
X145175000Y-129000000D02*
X151800000Y-122375000D01*
X145175000Y-130500000D02*
X145175000Y-129000000D01*
X152500000Y-122375000D02*
X155500000Y-122375000D01*
X155500000Y-122375000D02*
X156875000Y-122375000D01*
X156875000Y-122375000D02*
X157000000Y-122500000D01*
X169400000Y-120900000D02*
X169400000Y-122650000D01*
X147125000Y-138200000D02*
X151800000Y-138200000D01*
X155575001Y-139225001D02*
X155800000Y-139450000D01*
X155575001Y-138789999D02*
X155575001Y-139225001D01*
X151800000Y-138200000D02*
X154985002Y-138200000D01*
X154985002Y-138200000D02*
X155575001Y-138789999D01*
X155800000Y-139450000D02*
X155800000Y-141050000D01*
X155800000Y-141050000D02*
X156600000Y-141050000D01*
X155800000Y-140250000D02*
X156600000Y-140250000D01*
X155800000Y-139450000D02*
X156600000Y-139450000D01*
X156900000Y-145075000D02*
X157600000Y-145075000D01*
X156600000Y-144775000D02*
X156900000Y-145075000D01*
X156600000Y-141050000D02*
X156600000Y-144775000D01*
X157600000Y-145075000D02*
X159575000Y-145075000D01*
X159575000Y-145075000D02*
X159900000Y-145400000D01*
X165675000Y-146700000D02*
X166200000Y-147225000D01*
X164200000Y-146700000D02*
X165675000Y-146700000D01*
X155800000Y-127500000D02*
X155800000Y-128150000D01*
X155800000Y-125300000D02*
X155800000Y-127500000D01*
X155500000Y-125000000D02*
X155800000Y-125300000D01*
X155500000Y-124425000D02*
X155500000Y-125000000D01*
X167100000Y-123900000D02*
X167100000Y-122650000D01*
X167100000Y-130375000D02*
X167100000Y-123900000D01*
X169725000Y-133000000D02*
X167100000Y-130375000D01*
X169725000Y-133700000D02*
X169725000Y-133000000D01*
X168900000Y-119600000D02*
X168900000Y-118400000D01*
X167100000Y-121400000D02*
X168900000Y-119600000D01*
X167100000Y-122650000D02*
X167100000Y-121400000D01*
X158350000Y-122650000D02*
X167100000Y-122650000D01*
X151100000Y-115400000D02*
X158350000Y-122650000D01*
X139240000Y-122400000D02*
X144340000Y-127500000D01*
X144340000Y-127500000D02*
X145000000Y-127500000D01*
X149550000Y-132600000D02*
X151800000Y-132600000D01*
X149474999Y-132524999D02*
X149550000Y-132600000D01*
X147300000Y-128700000D02*
X149474999Y-130874999D01*
X149474999Y-130874999D02*
X149474999Y-132524999D01*
X144320000Y-122400000D02*
X144320000Y-124420000D01*
X144320000Y-124420000D02*
X146200000Y-126300000D01*
X149000000Y-133400000D02*
X151800000Y-133400000D01*
X148500000Y-132900000D02*
X149000000Y-133400000D01*
X146860000Y-122400000D02*
X148500000Y-122400000D01*
X148500000Y-122400000D02*
X149300000Y-123200000D01*
X152475000Y-124400000D02*
X152500000Y-124425000D01*
X151000000Y-124400000D02*
X152475000Y-124400000D01*
X154200000Y-127500000D02*
X154200000Y-128150000D01*
X154200000Y-125425000D02*
X154200000Y-127500000D01*
X153200000Y-124425000D02*
X154200000Y-125425000D01*
X152500000Y-124425000D02*
X153200000Y-124425000D01*
X146925000Y-134200000D02*
X151800000Y-134200000D01*
X150200000Y-130200000D02*
X151800000Y-130200000D01*
X160600000Y-128150000D02*
X160600000Y-126550000D01*
X162200000Y-129400000D02*
X163800000Y-129400000D01*
X162200000Y-130200000D02*
X163800000Y-130200000D01*
X162200000Y-131000000D02*
X163800000Y-131000000D01*
X162200000Y-131800000D02*
X163800000Y-131800000D01*
X162200000Y-132600000D02*
X163800000Y-132600000D01*
X162200000Y-133400000D02*
X163800000Y-133400000D01*
X162200000Y-134200000D02*
X163800000Y-134200000D01*
X162200000Y-135000000D02*
X163800000Y-135000000D01*
X162200000Y-135800000D02*
X163800000Y-135800000D01*
X162200000Y-136600000D02*
X163800000Y-136600000D01*
X162200000Y-137400000D02*
X163800000Y-137400000D01*
X162200000Y-138200000D02*
X163800000Y-138200000D01*
X150200000Y-131800000D02*
X151800000Y-131800000D01*
X150200000Y-131000000D02*
X151800000Y-131000000D01*
X150200000Y-129400000D02*
X151800000Y-129400000D01*
X152600000Y-126550000D02*
X152600000Y-128150000D01*
X153400000Y-126550000D02*
X153400000Y-128150000D01*
X155000000Y-126550000D02*
X155000000Y-128150000D01*
X156600000Y-126550000D02*
X156600000Y-128150000D01*
X157400000Y-126550000D02*
X157400000Y-128150000D01*
X158200000Y-126550000D02*
X158200000Y-128150000D01*
X159000000Y-126550000D02*
X159000000Y-128150000D01*
X158200000Y-141050000D02*
X158200000Y-139450000D01*
X153400000Y-141050000D02*
X153400000Y-139450000D01*
X152600000Y-141050000D02*
X152600000Y-139450000D01*
X150200000Y-135800000D02*
X151800000Y-135800000D01*
X150200000Y-136600000D02*
X151800000Y-136600000D01*
X150200000Y-137400000D02*
X151800000Y-137400000D01*
D22*
G36*
X134800000Y-131438072D02*
G01*
X136663269Y-131438072D01*
X136861215Y-131636018D01*
X136885009Y-131665011D01*
X136914002Y-131688805D01*
X136914006Y-131688809D01*
X136984695Y-131746821D01*
X137000734Y-131759984D01*
X137132763Y-131830556D01*
X137276024Y-131874013D01*
X137387677Y-131885010D01*
X137387686Y-131885010D01*
X137425009Y-131888686D01*
X137462332Y-131885010D01*
X143937668Y-131885010D01*
X143974990Y-131888686D01*
X144012312Y-131885010D01*
X144012323Y-131885010D01*
X144123976Y-131874013D01*
X144267237Y-131830556D01*
X144374051Y-131773462D01*
X144340226Y-131796063D01*
X144196063Y-131940226D01*
X144082795Y-132109744D01*
X144004774Y-132298102D01*
X143965000Y-132498061D01*
X143965000Y-132701939D01*
X144004774Y-132901898D01*
X144016944Y-132931278D01*
X143945506Y-132969463D01*
X143848815Y-133048815D01*
X143769463Y-133145506D01*
X143710498Y-133255820D01*
X143674188Y-133375518D01*
X143661928Y-133500000D01*
X143665000Y-133914250D01*
X143823750Y-134073000D01*
X144748000Y-134073000D01*
X144748000Y-134053000D01*
X145002000Y-134053000D01*
X145002000Y-134073000D01*
X145022000Y-134073000D01*
X145022000Y-134327000D01*
X145002000Y-134327000D01*
X145002000Y-134347000D01*
X144748000Y-134347000D01*
X144748000Y-134327000D01*
X143823750Y-134327000D01*
X143665000Y-134485750D01*
X143661928Y-134900000D01*
X143674188Y-135024482D01*
X143710498Y-135144180D01*
X143769463Y-135254494D01*
X143848815Y-135351185D01*
X143945506Y-135430537D01*
X144050857Y-135486849D01*
X144004774Y-135598102D01*
X143965000Y-135798061D01*
X143965000Y-136001939D01*
X144004774Y-136201898D01*
X144082795Y-136390256D01*
X144196063Y-136559774D01*
X144240000Y-136603711D01*
X144240001Y-137025229D01*
X144122038Y-137122038D01*
X144011595Y-137256613D01*
X143929528Y-137410149D01*
X143878992Y-137576745D01*
X143861928Y-137749999D01*
X143861928Y-138650001D01*
X143878992Y-138823255D01*
X143929528Y-138989851D01*
X144011595Y-139143387D01*
X144122038Y-139277962D01*
X144256613Y-139388405D01*
X144315000Y-139419614D01*
X144315001Y-142387668D01*
X144311324Y-142425000D01*
X144325998Y-142573985D01*
X144369454Y-142717246D01*
X144440026Y-142849276D01*
X144511201Y-142936002D01*
X144535000Y-142965001D01*
X144563998Y-142988799D01*
X149074135Y-147498937D01*
X149078992Y-147548255D01*
X149129528Y-147714851D01*
X149211595Y-147868387D01*
X149322038Y-148002962D01*
X149456613Y-148113405D01*
X149610149Y-148195472D01*
X149776745Y-148246008D01*
X149949999Y-148263072D01*
X150850001Y-148263072D01*
X151023255Y-148246008D01*
X151189851Y-148195472D01*
X151343387Y-148113405D01*
X151477962Y-148002962D01*
X151588405Y-147868387D01*
X151619614Y-147810000D01*
X152793749Y-147810000D01*
X152811595Y-147843387D01*
X152922038Y-147977962D01*
X153056613Y-148088405D01*
X153210149Y-148170472D01*
X153376745Y-148221008D01*
X153549999Y-148238072D01*
X154450001Y-148238072D01*
X154623255Y-148221008D01*
X154789851Y-148170472D01*
X154943387Y-148088405D01*
X155077962Y-147977962D01*
X155188405Y-147843387D01*
X155219614Y-147785000D01*
X156328056Y-147785000D01*
X156329528Y-147789851D01*
X156411595Y-147943387D01*
X156522038Y-148077962D01*
X156656613Y-148188405D01*
X156810149Y-148270472D01*
X156976745Y-148321008D01*
X157149999Y-148338072D01*
X158050001Y-148338072D01*
X158223255Y-148321008D01*
X158389851Y-148270472D01*
X158543387Y-148188405D01*
X158677962Y-148077962D01*
X158788405Y-147943387D01*
X158819614Y-147885000D01*
X160280386Y-147885000D01*
X160311595Y-147943387D01*
X160422038Y-148077962D01*
X160556613Y-148188405D01*
X160710149Y-148270472D01*
X160876745Y-148321008D01*
X161049999Y-148338072D01*
X161950001Y-148338072D01*
X162123255Y-148321008D01*
X162289851Y-148270472D01*
X162443387Y-148188405D01*
X162577962Y-148077962D01*
X162688405Y-147943387D01*
X162770472Y-147789851D01*
X162821008Y-147623255D01*
X162825866Y-147573936D01*
X163261341Y-147138461D01*
X163282795Y-147190256D01*
X163396063Y-147359774D01*
X163540226Y-147503937D01*
X163709744Y-147617205D01*
X163898102Y-147695226D01*
X164098061Y-147735000D01*
X164301939Y-147735000D01*
X164501898Y-147695226D01*
X164690256Y-147617205D01*
X164859774Y-147503937D01*
X164861928Y-147501783D01*
X164861928Y-147550001D01*
X164878992Y-147723255D01*
X164929528Y-147889851D01*
X165011595Y-148043387D01*
X165122038Y-148177962D01*
X165256613Y-148288405D01*
X165353140Y-148340000D01*
X134660000Y-148340000D01*
X134660000Y-131424283D01*
X134800000Y-131438072D01*
G37*
X134800000Y-131438072D02*
X136663269Y-131438072D01*
X136861215Y-131636018D01*
X136885009Y-131665011D01*
X136914002Y-131688805D01*
X136914006Y-131688809D01*
X136984695Y-131746821D01*
X137000734Y-131759984D01*
X137132763Y-131830556D01*
X137276024Y-131874013D01*
X137387677Y-131885010D01*
X137387686Y-131885010D01*
X137425009Y-131888686D01*
X137462332Y-131885010D01*
X143937668Y-131885010D01*
X143974990Y-131888686D01*
X144012312Y-131885010D01*
X144012323Y-131885010D01*
X144123976Y-131874013D01*
X144267237Y-131830556D01*
X144374051Y-131773462D01*
X144340226Y-131796063D01*
X144196063Y-131940226D01*
X144082795Y-132109744D01*
X144004774Y-132298102D01*
X143965000Y-132498061D01*
X143965000Y-132701939D01*
X144004774Y-132901898D01*
X144016944Y-132931278D01*
X143945506Y-132969463D01*
X143848815Y-133048815D01*
X143769463Y-133145506D01*
X143710498Y-133255820D01*
X143674188Y-133375518D01*
X143661928Y-133500000D01*
X143665000Y-133914250D01*
X143823750Y-134073000D01*
X144748000Y-134073000D01*
X144748000Y-134053000D01*
X145002000Y-134053000D01*
X145002000Y-134073000D01*
X145022000Y-134073000D01*
X145022000Y-134327000D01*
X145002000Y-134327000D01*
X145002000Y-134347000D01*
X144748000Y-134347000D01*
X144748000Y-134327000D01*
X143823750Y-134327000D01*
X143665000Y-134485750D01*
X143661928Y-134900000D01*
X143674188Y-135024482D01*
X143710498Y-135144180D01*
X143769463Y-135254494D01*
X143848815Y-135351185D01*
X143945506Y-135430537D01*
X144050857Y-135486849D01*
X144004774Y-135598102D01*
X143965000Y-135798061D01*
X143965000Y-136001939D01*
X144004774Y-136201898D01*
X144082795Y-136390256D01*
X144196063Y-136559774D01*
X144240000Y-136603711D01*
X144240001Y-137025229D01*
X144122038Y-137122038D01*
X144011595Y-137256613D01*
X143929528Y-137410149D01*
X143878992Y-137576745D01*
X143861928Y-137749999D01*
X143861928Y-138650001D01*
X143878992Y-138823255D01*
X143929528Y-138989851D01*
X144011595Y-139143387D01*
X144122038Y-139277962D01*
X144256613Y-139388405D01*
X144315000Y-139419614D01*
X144315001Y-142387668D01*
X144311324Y-142425000D01*
X144325998Y-142573985D01*
X144369454Y-142717246D01*
X144440026Y-142849276D01*
X144511201Y-142936002D01*
X144535000Y-142965001D01*
X144563998Y-142988799D01*
X149074135Y-147498937D01*
X149078992Y-147548255D01*
X149129528Y-147714851D01*
X149211595Y-147868387D01*
X149322038Y-148002962D01*
X149456613Y-148113405D01*
X149610149Y-148195472D01*
X149776745Y-148246008D01*
X149949999Y-148263072D01*
X150850001Y-148263072D01*
X151023255Y-148246008D01*
X151189851Y-148195472D01*
X151343387Y-148113405D01*
X151477962Y-148002962D01*
X151588405Y-147868387D01*
X151619614Y-147810000D01*
X152793749Y-147810000D01*
X152811595Y-147843387D01*
X152922038Y-147977962D01*
X153056613Y-148088405D01*
X153210149Y-148170472D01*
X153376745Y-148221008D01*
X153549999Y-148238072D01*
X154450001Y-148238072D01*
X154623255Y-148221008D01*
X154789851Y-148170472D01*
X154943387Y-148088405D01*
X155077962Y-147977962D01*
X155188405Y-147843387D01*
X155219614Y-147785000D01*
X156328056Y-147785000D01*
X156329528Y-147789851D01*
X156411595Y-147943387D01*
X156522038Y-148077962D01*
X156656613Y-148188405D01*
X156810149Y-148270472D01*
X156976745Y-148321008D01*
X157149999Y-148338072D01*
X158050001Y-148338072D01*
X158223255Y-148321008D01*
X158389851Y-148270472D01*
X158543387Y-148188405D01*
X158677962Y-148077962D01*
X158788405Y-147943387D01*
X158819614Y-147885000D01*
X160280386Y-147885000D01*
X160311595Y-147943387D01*
X160422038Y-148077962D01*
X160556613Y-148188405D01*
X160710149Y-148270472D01*
X160876745Y-148321008D01*
X161049999Y-148338072D01*
X161950001Y-148338072D01*
X162123255Y-148321008D01*
X162289851Y-148270472D01*
X162443387Y-148188405D01*
X162577962Y-148077962D01*
X162688405Y-147943387D01*
X162770472Y-147789851D01*
X162821008Y-147623255D01*
X162825866Y-147573936D01*
X163261341Y-147138461D01*
X163282795Y-147190256D01*
X163396063Y-147359774D01*
X163540226Y-147503937D01*
X163709744Y-147617205D01*
X163898102Y-147695226D01*
X164098061Y-147735000D01*
X164301939Y-147735000D01*
X164501898Y-147695226D01*
X164690256Y-147617205D01*
X164859774Y-147503937D01*
X164861928Y-147501783D01*
X164861928Y-147550001D01*
X164878992Y-147723255D01*
X164929528Y-147889851D01*
X165011595Y-148043387D01*
X165122038Y-148177962D01*
X165256613Y-148288405D01*
X165353140Y-148340000D01*
X134660000Y-148340000D01*
X134660000Y-131424283D01*
X134800000Y-131438072D01*
G36*
X173340001Y-148340000D02*
G01*
X167046860Y-148340000D01*
X167143387Y-148288405D01*
X167277962Y-148177962D01*
X167388405Y-148043387D01*
X167470472Y-147889851D01*
X167521008Y-147723255D01*
X167538072Y-147550001D01*
X167538072Y-146899999D01*
X167521008Y-146726745D01*
X167470472Y-146560149D01*
X167388405Y-146406613D01*
X167277962Y-146272038D01*
X167190184Y-146200000D01*
X167277962Y-146127962D01*
X167388405Y-145993387D01*
X167470472Y-145839851D01*
X167521008Y-145673255D01*
X167538072Y-145500001D01*
X167538072Y-144849999D01*
X167521008Y-144676745D01*
X167470472Y-144510149D01*
X167388405Y-144356613D01*
X167277962Y-144222038D01*
X167143387Y-144111595D01*
X166989851Y-144029528D01*
X166823255Y-143978992D01*
X166650001Y-143961928D01*
X165749999Y-143961928D01*
X165576745Y-143978992D01*
X165410149Y-144029528D01*
X165256613Y-144111595D01*
X165122038Y-144222038D01*
X165011595Y-144356613D01*
X164980386Y-144415000D01*
X164187322Y-144415000D01*
X164149999Y-144411324D01*
X164112676Y-144415000D01*
X164112667Y-144415000D01*
X164001014Y-144425997D01*
X163857753Y-144469454D01*
X163725724Y-144540026D01*
X163725722Y-144540027D01*
X163725723Y-144540027D01*
X163638996Y-144611201D01*
X163638992Y-144611205D01*
X163609999Y-144634999D01*
X163586205Y-144663992D01*
X162835572Y-145414626D01*
X162835000Y-145360750D01*
X162676250Y-145202000D01*
X161627000Y-145202000D01*
X161627000Y-145222000D01*
X161373000Y-145222000D01*
X161373000Y-145202000D01*
X161353000Y-145202000D01*
X161353000Y-144948000D01*
X161373000Y-144948000D01*
X161373000Y-144023750D01*
X161627000Y-144023750D01*
X161627000Y-144948000D01*
X162676250Y-144948000D01*
X162835000Y-144789250D01*
X162838072Y-144500000D01*
X162825812Y-144375518D01*
X162789502Y-144255820D01*
X162730537Y-144145506D01*
X162651185Y-144048815D01*
X162554494Y-143969463D01*
X162444180Y-143910498D01*
X162324482Y-143874188D01*
X162200000Y-143861928D01*
X161785750Y-143865000D01*
X161627000Y-144023750D01*
X161373000Y-144023750D01*
X161214250Y-143865000D01*
X160800000Y-143861928D01*
X160675518Y-143874188D01*
X160555820Y-143910498D01*
X160445506Y-143969463D01*
X160348815Y-144048815D01*
X160269463Y-144145506D01*
X160210498Y-144255820D01*
X160174188Y-144375518D01*
X160171894Y-144398806D01*
X160001939Y-144365000D01*
X159852564Y-144365000D01*
X159723986Y-144325997D01*
X159612333Y-144315000D01*
X159612322Y-144315000D01*
X159575000Y-144311324D01*
X159537678Y-144315000D01*
X158819614Y-144315000D01*
X158788405Y-144256613D01*
X158677962Y-144122038D01*
X158543387Y-144011595D01*
X158389851Y-143929528D01*
X158223255Y-143878992D01*
X158050001Y-143861928D01*
X157360000Y-143861928D01*
X157360000Y-141829518D01*
X157380537Y-141804494D01*
X157400000Y-141768082D01*
X157419463Y-141804494D01*
X157498815Y-141901185D01*
X157523000Y-141921033D01*
X157523000Y-141926250D01*
X157681750Y-142085000D01*
X157788294Y-142072905D01*
X157801582Y-142068551D01*
X157825518Y-142075812D01*
X157950000Y-142088072D01*
X158450000Y-142088072D01*
X158574482Y-142075812D01*
X158600000Y-142068071D01*
X158625518Y-142075812D01*
X158750000Y-142088072D01*
X159250000Y-142088072D01*
X159374482Y-142075812D01*
X159400000Y-142068071D01*
X159425518Y-142075812D01*
X159550000Y-142088072D01*
X160050000Y-142088072D01*
X160174482Y-142075812D01*
X160200000Y-142068071D01*
X160225518Y-142075812D01*
X160350000Y-142088072D01*
X160850000Y-142088072D01*
X160974482Y-142075812D01*
X161000000Y-142068071D01*
X161025518Y-142075812D01*
X161150000Y-142088072D01*
X161650000Y-142088072D01*
X161774482Y-142075812D01*
X161894180Y-142039502D01*
X162004494Y-141980537D01*
X162101185Y-141901185D01*
X162180537Y-141804494D01*
X162239502Y-141694180D01*
X162275812Y-141574482D01*
X162288072Y-141450000D01*
X162288072Y-139088072D01*
X164200000Y-139088072D01*
X164324482Y-139075812D01*
X164444180Y-139039502D01*
X164554494Y-138980537D01*
X164651185Y-138901185D01*
X164730537Y-138804494D01*
X164789502Y-138694180D01*
X164825812Y-138574482D01*
X164838072Y-138450000D01*
X164838072Y-138300000D01*
X166561928Y-138300000D01*
X166574188Y-138424482D01*
X166610498Y-138544180D01*
X166669463Y-138654494D01*
X166748815Y-138751185D01*
X166845506Y-138830537D01*
X166955820Y-138889502D01*
X167075518Y-138925812D01*
X167200000Y-138938072D01*
X167489250Y-138935000D01*
X167648000Y-138776250D01*
X167648000Y-137727000D01*
X167902000Y-137727000D01*
X167902000Y-138776250D01*
X168060750Y-138935000D01*
X168350000Y-138938072D01*
X168474482Y-138925812D01*
X168594180Y-138889502D01*
X168704494Y-138830537D01*
X168800000Y-138752158D01*
X168895506Y-138830537D01*
X169005820Y-138889502D01*
X169125518Y-138925812D01*
X169250000Y-138938072D01*
X169539250Y-138935000D01*
X169698000Y-138776250D01*
X169698000Y-137727000D01*
X169952000Y-137727000D01*
X169952000Y-138776250D01*
X170110750Y-138935000D01*
X170400000Y-138938072D01*
X170524482Y-138925812D01*
X170644180Y-138889502D01*
X170754494Y-138830537D01*
X170851185Y-138751185D01*
X170930537Y-138654494D01*
X170989502Y-138544180D01*
X171025812Y-138424482D01*
X171038072Y-138300000D01*
X171035000Y-137885750D01*
X170876250Y-137727000D01*
X169952000Y-137727000D01*
X169698000Y-137727000D01*
X167902000Y-137727000D01*
X167648000Y-137727000D01*
X166723750Y-137727000D01*
X166565000Y-137885750D01*
X166561928Y-138300000D01*
X164838072Y-138300000D01*
X164838072Y-137950000D01*
X164825812Y-137825518D01*
X164818071Y-137800000D01*
X164825812Y-137774482D01*
X164838072Y-137650000D01*
X164838072Y-137150000D01*
X164825812Y-137025518D01*
X164818071Y-137000000D01*
X164825812Y-136974482D01*
X164833147Y-136900000D01*
X166561928Y-136900000D01*
X166565000Y-137314250D01*
X166723750Y-137473000D01*
X167648000Y-137473000D01*
X167648000Y-136423750D01*
X167902000Y-136423750D01*
X167902000Y-137473000D01*
X169698000Y-137473000D01*
X169698000Y-136423750D01*
X169952000Y-136423750D01*
X169952000Y-137473000D01*
X170876250Y-137473000D01*
X171035000Y-137314250D01*
X171038072Y-136900000D01*
X171025812Y-136775518D01*
X170989502Y-136655820D01*
X170930537Y-136545506D01*
X170851185Y-136448815D01*
X170754494Y-136369463D01*
X170644180Y-136310498D01*
X170524482Y-136274188D01*
X170400000Y-136261928D01*
X170110750Y-136265000D01*
X169952000Y-136423750D01*
X169698000Y-136423750D01*
X169539250Y-136265000D01*
X169250000Y-136261928D01*
X169125518Y-136274188D01*
X169005820Y-136310498D01*
X168895506Y-136369463D01*
X168800000Y-136447842D01*
X168704494Y-136369463D01*
X168594180Y-136310498D01*
X168474482Y-136274188D01*
X168350000Y-136261928D01*
X168060750Y-136265000D01*
X167902000Y-136423750D01*
X167648000Y-136423750D01*
X167489250Y-136265000D01*
X167200000Y-136261928D01*
X167075518Y-136274188D01*
X166955820Y-136310498D01*
X166845506Y-136369463D01*
X166748815Y-136448815D01*
X166669463Y-136545506D01*
X166610498Y-136655820D01*
X166574188Y-136775518D01*
X166561928Y-136900000D01*
X164833147Y-136900000D01*
X164838072Y-136850000D01*
X164838072Y-136350000D01*
X164825812Y-136225518D01*
X164818071Y-136200000D01*
X164825812Y-136174482D01*
X164838072Y-136050000D01*
X164838072Y-135550000D01*
X164825812Y-135425518D01*
X164818071Y-135400000D01*
X164825812Y-135374482D01*
X164838072Y-135250000D01*
X164838072Y-134750000D01*
X164825812Y-134625518D01*
X164818071Y-134600000D01*
X164825812Y-134574482D01*
X164838072Y-134450000D01*
X164838072Y-134400000D01*
X166461928Y-134400000D01*
X166474188Y-134524482D01*
X166510498Y-134644180D01*
X166569463Y-134754494D01*
X166648815Y-134851185D01*
X166745506Y-134930537D01*
X166855820Y-134989502D01*
X166975518Y-135025812D01*
X167100000Y-135038072D01*
X167389250Y-135035000D01*
X167548000Y-134876250D01*
X167548000Y-133827000D01*
X166623750Y-133827000D01*
X166465000Y-133985750D01*
X166461928Y-134400000D01*
X164838072Y-134400000D01*
X164838072Y-133950000D01*
X164825812Y-133825518D01*
X164818071Y-133800000D01*
X164825812Y-133774482D01*
X164838072Y-133650000D01*
X164838072Y-133150000D01*
X164825812Y-133025518D01*
X164818071Y-133000000D01*
X166461928Y-133000000D01*
X166465000Y-133414250D01*
X166623750Y-133573000D01*
X167548000Y-133573000D01*
X167548000Y-132523750D01*
X167389250Y-132365000D01*
X167100000Y-132361928D01*
X166975518Y-132374188D01*
X166855820Y-132410498D01*
X166745506Y-132469463D01*
X166648815Y-132548815D01*
X166569463Y-132645506D01*
X166510498Y-132755820D01*
X166474188Y-132875518D01*
X166461928Y-133000000D01*
X164818071Y-133000000D01*
X164825812Y-132974482D01*
X164838072Y-132850000D01*
X164838072Y-132350000D01*
X164825812Y-132225518D01*
X164818071Y-132200000D01*
X164825812Y-132174482D01*
X164838072Y-132050000D01*
X164838072Y-131550000D01*
X164825812Y-131425518D01*
X164818071Y-131400000D01*
X164825812Y-131374482D01*
X164838072Y-131250000D01*
X164838072Y-130750000D01*
X164825812Y-130625518D01*
X164818071Y-130600000D01*
X164825812Y-130574482D01*
X164838072Y-130450000D01*
X164838072Y-129950000D01*
X164825812Y-129825518D01*
X164818071Y-129800000D01*
X164825812Y-129774482D01*
X164838072Y-129650000D01*
X164838072Y-129150000D01*
X164825812Y-129025518D01*
X164789502Y-128905820D01*
X164730537Y-128795506D01*
X164651185Y-128698815D01*
X164554494Y-128619463D01*
X164444180Y-128560498D01*
X164324482Y-128524188D01*
X164200000Y-128511928D01*
X162287218Y-128511928D01*
X162285000Y-128435750D01*
X162126250Y-128277000D01*
X162008272Y-128277000D01*
X162016143Y-128272566D01*
X162111055Y-128191094D01*
X162188249Y-128092672D01*
X162244759Y-127981080D01*
X162274447Y-127874803D01*
X162285000Y-127864250D01*
X162287916Y-127764114D01*
X162286840Y-127750000D01*
X162287916Y-127735886D01*
X162285000Y-127635750D01*
X162274447Y-127625197D01*
X162244759Y-127518920D01*
X162188249Y-127407328D01*
X162143286Y-127350000D01*
X162188249Y-127292672D01*
X162244759Y-127181080D01*
X162274447Y-127074803D01*
X162285000Y-127064250D01*
X162287916Y-126964114D01*
X162286840Y-126950000D01*
X162287916Y-126935886D01*
X162285000Y-126835750D01*
X162274447Y-126825197D01*
X162244759Y-126718920D01*
X162188249Y-126607328D01*
X162111055Y-126508906D01*
X162016143Y-126427434D01*
X162008272Y-126423000D01*
X162126250Y-126423000D01*
X162285000Y-126264250D01*
X162287916Y-126164114D01*
X162278412Y-126039392D01*
X162244759Y-125918920D01*
X162188249Y-125807328D01*
X162111055Y-125708906D01*
X162016143Y-125627434D01*
X161907160Y-125566044D01*
X161788294Y-125527095D01*
X161681750Y-125515000D01*
X161523000Y-125673750D01*
X161523000Y-126315000D01*
X161488072Y-126315000D01*
X161488072Y-126150000D01*
X161475812Y-126025518D01*
X161439502Y-125905820D01*
X161380537Y-125795506D01*
X161301185Y-125698815D01*
X161277000Y-125678967D01*
X161277000Y-125673750D01*
X161118250Y-125515000D01*
X161011706Y-125527095D01*
X160998418Y-125531449D01*
X160974482Y-125524188D01*
X160850000Y-125511928D01*
X160350000Y-125511928D01*
X160225518Y-125524188D01*
X160201582Y-125531449D01*
X160188294Y-125527095D01*
X160081750Y-125515000D01*
X159923000Y-125673750D01*
X159923000Y-125678967D01*
X159898815Y-125698815D01*
X159819463Y-125795506D01*
X159800000Y-125831918D01*
X159780537Y-125795506D01*
X159701185Y-125698815D01*
X159677000Y-125678967D01*
X159677000Y-125673750D01*
X159518250Y-125515000D01*
X159411706Y-125527095D01*
X159398418Y-125531449D01*
X159374482Y-125524188D01*
X159250000Y-125511928D01*
X158750000Y-125511928D01*
X158625518Y-125524188D01*
X158600000Y-125531929D01*
X158574482Y-125524188D01*
X158450000Y-125511928D01*
X157950000Y-125511928D01*
X157825518Y-125524188D01*
X157800000Y-125531929D01*
X157774482Y-125524188D01*
X157650000Y-125511928D01*
X157150000Y-125511928D01*
X157025518Y-125524188D01*
X157000000Y-125531929D01*
X156974482Y-125524188D01*
X156850000Y-125511928D01*
X156560000Y-125511928D01*
X156560000Y-125392703D01*
X156577962Y-125377962D01*
X156688405Y-125243387D01*
X156770472Y-125089851D01*
X156821008Y-124923255D01*
X156838072Y-124750001D01*
X156838072Y-124099999D01*
X156821008Y-123926745D01*
X156770472Y-123760149D01*
X156688405Y-123606613D01*
X156577962Y-123472038D01*
X156512579Y-123418379D01*
X156698102Y-123495226D01*
X156898061Y-123535000D01*
X157101939Y-123535000D01*
X157301898Y-123495226D01*
X157490256Y-123417205D01*
X157659774Y-123303937D01*
X157793642Y-123170069D01*
X157809999Y-123190001D01*
X157925724Y-123284974D01*
X158057753Y-123355546D01*
X158201014Y-123399003D01*
X158312667Y-123410000D01*
X158312676Y-123410000D01*
X158349999Y-123413676D01*
X158387322Y-123410000D01*
X165711928Y-123410000D01*
X165711928Y-123650000D01*
X165724188Y-123774482D01*
X165760498Y-123894180D01*
X165819463Y-124004494D01*
X165898815Y-124101185D01*
X165995506Y-124180537D01*
X166105820Y-124239502D01*
X166225518Y-124275812D01*
X166340001Y-124287087D01*
X166340000Y-130337677D01*
X166336324Y-130375000D01*
X166340000Y-130412322D01*
X166340000Y-130412332D01*
X166350997Y-130523985D01*
X166381796Y-130625518D01*
X166394454Y-130667246D01*
X166465026Y-130799276D01*
X166492509Y-130832764D01*
X166559999Y-130915001D01*
X166589003Y-130938804D01*
X168014626Y-132364428D01*
X167960750Y-132365000D01*
X167802000Y-132523750D01*
X167802000Y-133573000D01*
X167822000Y-133573000D01*
X167822000Y-133827000D01*
X167802000Y-133827000D01*
X167802000Y-134876250D01*
X167960750Y-135035000D01*
X168250000Y-135038072D01*
X168374482Y-135025812D01*
X168494180Y-134989502D01*
X168604494Y-134930537D01*
X168701185Y-134851185D01*
X168766658Y-134771406D01*
X168772038Y-134777962D01*
X168906613Y-134888405D01*
X169060149Y-134970472D01*
X169226745Y-135021008D01*
X169399999Y-135038072D01*
X170050001Y-135038072D01*
X170223255Y-135021008D01*
X170389851Y-134970472D01*
X170543387Y-134888405D01*
X170677962Y-134777962D01*
X170788405Y-134643387D01*
X170870472Y-134489851D01*
X170921008Y-134323255D01*
X170938072Y-134150001D01*
X170938072Y-133249999D01*
X170921008Y-133076745D01*
X170870472Y-132910149D01*
X170788405Y-132756613D01*
X170677962Y-132622038D01*
X170543387Y-132511595D01*
X170389851Y-132429528D01*
X170223255Y-132378992D01*
X170173937Y-132374135D01*
X168387873Y-130588072D01*
X171300000Y-130588072D01*
X171424482Y-130575812D01*
X171544180Y-130539502D01*
X171654494Y-130480537D01*
X171751185Y-130401185D01*
X171830537Y-130304494D01*
X171889502Y-130194180D01*
X171925812Y-130074482D01*
X171938072Y-129950000D01*
X171938072Y-127950000D01*
X171925812Y-127825518D01*
X171889502Y-127705820D01*
X171830537Y-127595506D01*
X171751185Y-127498815D01*
X171654494Y-127419463D01*
X171544180Y-127360498D01*
X171424482Y-127324188D01*
X171300000Y-127311928D01*
X167860000Y-127311928D01*
X167860000Y-124287087D01*
X167974482Y-124275812D01*
X168094180Y-124239502D01*
X168204494Y-124180537D01*
X168250000Y-124143191D01*
X168295506Y-124180537D01*
X168405820Y-124239502D01*
X168525518Y-124275812D01*
X168650000Y-124288072D01*
X170150000Y-124288072D01*
X170274482Y-124275812D01*
X170394180Y-124239502D01*
X170504494Y-124180537D01*
X170550000Y-124143191D01*
X170595506Y-124180537D01*
X170705820Y-124239502D01*
X170825518Y-124275812D01*
X170950000Y-124288072D01*
X171414250Y-124285000D01*
X171573000Y-124126250D01*
X171573000Y-122777000D01*
X171827000Y-122777000D01*
X171827000Y-124126250D01*
X171985750Y-124285000D01*
X172450000Y-124288072D01*
X172574482Y-124275812D01*
X172694180Y-124239502D01*
X172804494Y-124180537D01*
X172901185Y-124101185D01*
X172980537Y-124004494D01*
X173039502Y-123894180D01*
X173075812Y-123774482D01*
X173088072Y-123650000D01*
X173085000Y-122935750D01*
X172926250Y-122777000D01*
X171827000Y-122777000D01*
X171573000Y-122777000D01*
X171553000Y-122777000D01*
X171553000Y-122523000D01*
X171573000Y-122523000D01*
X171573000Y-121173750D01*
X171827000Y-121173750D01*
X171827000Y-122523000D01*
X172926250Y-122523000D01*
X173085000Y-122364250D01*
X173088072Y-121650000D01*
X173075812Y-121525518D01*
X173039502Y-121405820D01*
X172980537Y-121295506D01*
X172901185Y-121198815D01*
X172804494Y-121119463D01*
X172694180Y-121060498D01*
X172574482Y-121024188D01*
X172450000Y-121011928D01*
X171985750Y-121015000D01*
X171827000Y-121173750D01*
X171573000Y-121173750D01*
X171414250Y-121015000D01*
X170950000Y-121011928D01*
X170825518Y-121024188D01*
X170705820Y-121060498D01*
X170595506Y-121119463D01*
X170550000Y-121156809D01*
X170504494Y-121119463D01*
X170420548Y-121074592D01*
X170435000Y-121001939D01*
X170435000Y-120798061D01*
X170395226Y-120598102D01*
X170317205Y-120409744D01*
X170203937Y-120240226D01*
X170059774Y-120096063D01*
X169890256Y-119982795D01*
X169728049Y-119915606D01*
X169739502Y-119894180D01*
X169775812Y-119774482D01*
X169788072Y-119650000D01*
X170061928Y-119650000D01*
X170074188Y-119774482D01*
X170110498Y-119894180D01*
X170169463Y-120004494D01*
X170248815Y-120101185D01*
X170345506Y-120180537D01*
X170455820Y-120239502D01*
X170575518Y-120275812D01*
X170700000Y-120288072D01*
X171414250Y-120285000D01*
X171573000Y-120126250D01*
X171573000Y-118527000D01*
X171827000Y-118527000D01*
X171827000Y-120126250D01*
X171985750Y-120285000D01*
X172700000Y-120288072D01*
X172824482Y-120275812D01*
X172944180Y-120239502D01*
X173054494Y-120180537D01*
X173151185Y-120101185D01*
X173230537Y-120004494D01*
X173289502Y-119894180D01*
X173325812Y-119774482D01*
X173338072Y-119650000D01*
X173335000Y-118685750D01*
X173176250Y-118527000D01*
X171827000Y-118527000D01*
X171573000Y-118527000D01*
X170223750Y-118527000D01*
X170065000Y-118685750D01*
X170061928Y-119650000D01*
X169788072Y-119650000D01*
X169788072Y-117150000D01*
X170061928Y-117150000D01*
X170065000Y-118114250D01*
X170223750Y-118273000D01*
X171573000Y-118273000D01*
X171573000Y-116673750D01*
X171827000Y-116673750D01*
X171827000Y-118273000D01*
X173176250Y-118273000D01*
X173335000Y-118114250D01*
X173338072Y-117150000D01*
X173325812Y-117025518D01*
X173289502Y-116905820D01*
X173230537Y-116795506D01*
X173151185Y-116698815D01*
X173054494Y-116619463D01*
X172944180Y-116560498D01*
X172824482Y-116524188D01*
X172700000Y-116511928D01*
X171985750Y-116515000D01*
X171827000Y-116673750D01*
X171573000Y-116673750D01*
X171414250Y-116515000D01*
X170700000Y-116511928D01*
X170575518Y-116524188D01*
X170455820Y-116560498D01*
X170345506Y-116619463D01*
X170248815Y-116698815D01*
X170169463Y-116795506D01*
X170110498Y-116905820D01*
X170074188Y-117025518D01*
X170061928Y-117150000D01*
X169788072Y-117150000D01*
X169775812Y-117025518D01*
X169739502Y-116905820D01*
X169716696Y-116863153D01*
X169816483Y-116843304D01*
X170013940Y-116761515D01*
X170191647Y-116642775D01*
X170342775Y-116491647D01*
X170461515Y-116313940D01*
X170543304Y-116116483D01*
X170585000Y-115906863D01*
X170585000Y-115693137D01*
X170543304Y-115483517D01*
X170461515Y-115286060D01*
X170342775Y-115108353D01*
X170191647Y-114957225D01*
X170013940Y-114838485D01*
X169816483Y-114756696D01*
X169606863Y-114715000D01*
X169393137Y-114715000D01*
X169183517Y-114756696D01*
X168986060Y-114838485D01*
X168808353Y-114957225D01*
X168657225Y-115108353D01*
X168538485Y-115286060D01*
X168456696Y-115483517D01*
X168415000Y-115693137D01*
X168415000Y-115906863D01*
X168456696Y-116116483D01*
X168538485Y-116313940D01*
X168657225Y-116491647D01*
X168677506Y-116511928D01*
X168650000Y-116511928D01*
X168525518Y-116524188D01*
X168500000Y-116531929D01*
X168474482Y-116524188D01*
X168350000Y-116511928D01*
X167850000Y-116511928D01*
X167725518Y-116524188D01*
X167700000Y-116531929D01*
X167674482Y-116524188D01*
X167550000Y-116511928D01*
X167050000Y-116511928D01*
X166925518Y-116524188D01*
X166900000Y-116531929D01*
X166874482Y-116524188D01*
X166750000Y-116511928D01*
X166250000Y-116511928D01*
X166125518Y-116524188D01*
X166100671Y-116531725D01*
X166080813Y-116525481D01*
X165981750Y-116515000D01*
X165827002Y-116669748D01*
X165827002Y-116607420D01*
X165942775Y-116491647D01*
X166061515Y-116313940D01*
X166143304Y-116116483D01*
X166185000Y-115906863D01*
X166185000Y-115693137D01*
X166143304Y-115483517D01*
X166061515Y-115286060D01*
X165942775Y-115108353D01*
X165791647Y-114957225D01*
X165613940Y-114838485D01*
X165416483Y-114756696D01*
X165206863Y-114715000D01*
X164993137Y-114715000D01*
X164783517Y-114756696D01*
X164586060Y-114838485D01*
X164408353Y-114957225D01*
X164257225Y-115108353D01*
X164138485Y-115286060D01*
X164056696Y-115483517D01*
X164015000Y-115693137D01*
X164015000Y-115906863D01*
X164056696Y-116116483D01*
X164138485Y-116313940D01*
X164257225Y-116491647D01*
X164408353Y-116642775D01*
X164586060Y-116761515D01*
X164783517Y-116843304D01*
X164883418Y-116863176D01*
X164858056Y-116911803D01*
X164822960Y-117031862D01*
X164811961Y-117156462D01*
X164815000Y-118114250D01*
X164973750Y-118273000D01*
X165577000Y-118273000D01*
X165577000Y-118253000D01*
X165611928Y-118253000D01*
X165611928Y-119650000D01*
X165624188Y-119774482D01*
X165660498Y-119894180D01*
X165719463Y-120004494D01*
X165798815Y-120101185D01*
X165823000Y-120121033D01*
X165823000Y-120126250D01*
X165981750Y-120285000D01*
X166080813Y-120274519D01*
X166100671Y-120268275D01*
X166125518Y-120275812D01*
X166250000Y-120288072D01*
X166750000Y-120288072D01*
X166874482Y-120275812D01*
X166900000Y-120268071D01*
X166925518Y-120275812D01*
X167050000Y-120288072D01*
X167137126Y-120288072D01*
X166588998Y-120836201D01*
X166560000Y-120859999D01*
X166536202Y-120888997D01*
X166536201Y-120888998D01*
X166465026Y-120975724D01*
X166445674Y-121011928D01*
X166350000Y-121011928D01*
X166225518Y-121024188D01*
X166105820Y-121060498D01*
X165995506Y-121119463D01*
X165898815Y-121198815D01*
X165819463Y-121295506D01*
X165760498Y-121405820D01*
X165724188Y-121525518D01*
X165711928Y-121650000D01*
X165711928Y-121890000D01*
X158664802Y-121890000D01*
X156424802Y-119650000D01*
X161261928Y-119650000D01*
X161274188Y-119774482D01*
X161310498Y-119894180D01*
X161369463Y-120004494D01*
X161448815Y-120101185D01*
X161545506Y-120180537D01*
X161655820Y-120239502D01*
X161775518Y-120275812D01*
X161900000Y-120288072D01*
X162614250Y-120285000D01*
X162773000Y-120126250D01*
X162773000Y-118527000D01*
X163027000Y-118527000D01*
X163027000Y-120126250D01*
X163185750Y-120285000D01*
X163900000Y-120288072D01*
X164024482Y-120275812D01*
X164144180Y-120239502D01*
X164254494Y-120180537D01*
X164351185Y-120101185D01*
X164430537Y-120004494D01*
X164489502Y-119894180D01*
X164525812Y-119774482D01*
X164538072Y-119650000D01*
X164538052Y-119643538D01*
X164811961Y-119643538D01*
X164822960Y-119768138D01*
X164858056Y-119888197D01*
X164915900Y-119999103D01*
X164994269Y-120096593D01*
X165090152Y-120176920D01*
X165199863Y-120236999D01*
X165319187Y-120274519D01*
X165418250Y-120285000D01*
X165577000Y-120126250D01*
X165577000Y-118527000D01*
X164973750Y-118527000D01*
X164815000Y-118685750D01*
X164811961Y-119643538D01*
X164538052Y-119643538D01*
X164535000Y-118685750D01*
X164376250Y-118527000D01*
X163027000Y-118527000D01*
X162773000Y-118527000D01*
X161423750Y-118527000D01*
X161265000Y-118685750D01*
X161261928Y-119650000D01*
X156424802Y-119650000D01*
X153924802Y-117150000D01*
X161261928Y-117150000D01*
X161265000Y-118114250D01*
X161423750Y-118273000D01*
X162773000Y-118273000D01*
X162773000Y-116673750D01*
X163027000Y-116673750D01*
X163027000Y-118273000D01*
X164376250Y-118273000D01*
X164535000Y-118114250D01*
X164538072Y-117150000D01*
X164525812Y-117025518D01*
X164489502Y-116905820D01*
X164430537Y-116795506D01*
X164351185Y-116698815D01*
X164254494Y-116619463D01*
X164144180Y-116560498D01*
X164024482Y-116524188D01*
X163900000Y-116511928D01*
X163185750Y-116515000D01*
X163027000Y-116673750D01*
X162773000Y-116673750D01*
X162614250Y-116515000D01*
X161900000Y-116511928D01*
X161775518Y-116524188D01*
X161655820Y-116560498D01*
X161545506Y-116619463D01*
X161448815Y-116698815D01*
X161369463Y-116795506D01*
X161310498Y-116905820D01*
X161274188Y-117025518D01*
X161261928Y-117150000D01*
X153924802Y-117150000D01*
X153284217Y-116509415D01*
X153338405Y-116443386D01*
X153420472Y-116289850D01*
X153447727Y-116200000D01*
X154111928Y-116200000D01*
X154124188Y-116324482D01*
X154160498Y-116444180D01*
X154219463Y-116554494D01*
X154298815Y-116651185D01*
X154395506Y-116730537D01*
X154505820Y-116789502D01*
X154625518Y-116825812D01*
X154750000Y-116838072D01*
X156214250Y-116835000D01*
X156373000Y-116676250D01*
X156373000Y-115527000D01*
X156627000Y-115527000D01*
X156627000Y-116676250D01*
X156785750Y-116835000D01*
X158250000Y-116838072D01*
X158374482Y-116825812D01*
X158494180Y-116789502D01*
X158604494Y-116730537D01*
X158701185Y-116651185D01*
X158780537Y-116554494D01*
X158839502Y-116444180D01*
X158875812Y-116324482D01*
X158888072Y-116200000D01*
X158885000Y-115685750D01*
X158726250Y-115527000D01*
X156627000Y-115527000D01*
X156373000Y-115527000D01*
X154273750Y-115527000D01*
X154115000Y-115685750D01*
X154111928Y-116200000D01*
X153447727Y-116200000D01*
X153471008Y-116123254D01*
X153488072Y-115950000D01*
X153488072Y-114850000D01*
X153471008Y-114676746D01*
X153447728Y-114600000D01*
X154111928Y-114600000D01*
X154115000Y-115114250D01*
X154273750Y-115273000D01*
X156373000Y-115273000D01*
X156373000Y-114123750D01*
X156627000Y-114123750D01*
X156627000Y-115273000D01*
X158726250Y-115273000D01*
X158885000Y-115114250D01*
X158888072Y-114600000D01*
X158875812Y-114475518D01*
X158839502Y-114355820D01*
X158780537Y-114245506D01*
X158702158Y-114150000D01*
X161261928Y-114150000D01*
X161274188Y-114274482D01*
X161310498Y-114394180D01*
X161369463Y-114504494D01*
X161448815Y-114601185D01*
X161545506Y-114680537D01*
X161655820Y-114739502D01*
X161775518Y-114775812D01*
X161900000Y-114788072D01*
X162614250Y-114785000D01*
X162773000Y-114626250D01*
X162773000Y-113027000D01*
X163027000Y-113027000D01*
X163027000Y-114626250D01*
X163185750Y-114785000D01*
X163900000Y-114788072D01*
X164024482Y-114775812D01*
X164144180Y-114739502D01*
X164254494Y-114680537D01*
X164351185Y-114601185D01*
X164430537Y-114504494D01*
X164489502Y-114394180D01*
X164525812Y-114274482D01*
X164538072Y-114150000D01*
X170061928Y-114150000D01*
X170074188Y-114274482D01*
X170110498Y-114394180D01*
X170169463Y-114504494D01*
X170248815Y-114601185D01*
X170345506Y-114680537D01*
X170455820Y-114739502D01*
X170575518Y-114775812D01*
X170700000Y-114788072D01*
X171414250Y-114785000D01*
X171573000Y-114626250D01*
X171573000Y-113027000D01*
X171827000Y-113027000D01*
X171827000Y-114626250D01*
X171985750Y-114785000D01*
X172700000Y-114788072D01*
X172824482Y-114775812D01*
X172944180Y-114739502D01*
X173054494Y-114680537D01*
X173151185Y-114601185D01*
X173230537Y-114504494D01*
X173289502Y-114394180D01*
X173325812Y-114274482D01*
X173338072Y-114150000D01*
X173335000Y-113185750D01*
X173176250Y-113027000D01*
X171827000Y-113027000D01*
X171573000Y-113027000D01*
X170223750Y-113027000D01*
X170065000Y-113185750D01*
X170061928Y-114150000D01*
X164538072Y-114150000D01*
X164535000Y-113185750D01*
X164376250Y-113027000D01*
X163027000Y-113027000D01*
X162773000Y-113027000D01*
X161423750Y-113027000D01*
X161265000Y-113185750D01*
X161261928Y-114150000D01*
X158702158Y-114150000D01*
X158701185Y-114148815D01*
X158604494Y-114069463D01*
X158494180Y-114010498D01*
X158374482Y-113974188D01*
X158250000Y-113961928D01*
X156785750Y-113965000D01*
X156627000Y-114123750D01*
X156373000Y-114123750D01*
X156214250Y-113965000D01*
X154750000Y-113961928D01*
X154625518Y-113974188D01*
X154505820Y-114010498D01*
X154395506Y-114069463D01*
X154298815Y-114148815D01*
X154219463Y-114245506D01*
X154160498Y-114355820D01*
X154124188Y-114475518D01*
X154111928Y-114600000D01*
X153447728Y-114600000D01*
X153420472Y-114510150D01*
X153338405Y-114356614D01*
X153227962Y-114222038D01*
X153093386Y-114111595D01*
X152939850Y-114029528D01*
X152773254Y-113978992D01*
X152600000Y-113961928D01*
X149600000Y-113961928D01*
X149426746Y-113978992D01*
X149260150Y-114029528D01*
X149106614Y-114111595D01*
X148972038Y-114222038D01*
X148861595Y-114356614D01*
X148779528Y-114510150D01*
X148728992Y-114676746D01*
X148711928Y-114850000D01*
X148711928Y-115950000D01*
X148728992Y-116123254D01*
X148779528Y-116289850D01*
X148861595Y-116443386D01*
X148972038Y-116577962D01*
X149106614Y-116688405D01*
X149260150Y-116770472D01*
X149426746Y-116821008D01*
X149600000Y-116838072D01*
X151463271Y-116838072D01*
X155787126Y-121161928D01*
X155049999Y-121161928D01*
X154876745Y-121178992D01*
X154710149Y-121229528D01*
X154556613Y-121311595D01*
X154422038Y-121422038D01*
X154311595Y-121556613D01*
X154280386Y-121615000D01*
X153719614Y-121615000D01*
X153688405Y-121556613D01*
X153577962Y-121422038D01*
X153443387Y-121311595D01*
X153289851Y-121229528D01*
X153123255Y-121178992D01*
X152950001Y-121161928D01*
X152049999Y-121161928D01*
X151876745Y-121178992D01*
X151710149Y-121229528D01*
X151556613Y-121311595D01*
X151422038Y-121422038D01*
X151311595Y-121556613D01*
X151229528Y-121710149D01*
X151178992Y-121876745D01*
X151174135Y-121926063D01*
X150267949Y-122832249D01*
X150217205Y-122709744D01*
X150103937Y-122540226D01*
X149959774Y-122396063D01*
X149790256Y-122282795D01*
X149601898Y-122204774D01*
X149401939Y-122165000D01*
X149339801Y-122165000D01*
X149063803Y-121889002D01*
X149040001Y-121859999D01*
X148924276Y-121765026D01*
X148792247Y-121694454D01*
X148648986Y-121650997D01*
X148537333Y-121640000D01*
X148537322Y-121640000D01*
X148500000Y-121636324D01*
X148462678Y-121640000D01*
X148138178Y-121640000D01*
X148013475Y-121453368D01*
X147806632Y-121246525D01*
X147563411Y-121084010D01*
X147293158Y-120972068D01*
X147006260Y-120915000D01*
X146713740Y-120915000D01*
X146426842Y-120972068D01*
X146156589Y-121084010D01*
X145913368Y-121246525D01*
X145706525Y-121453368D01*
X145590000Y-121627760D01*
X145473475Y-121453368D01*
X145266632Y-121246525D01*
X145023411Y-121084010D01*
X144753158Y-120972068D01*
X144466260Y-120915000D01*
X144173740Y-120915000D01*
X143886842Y-120972068D01*
X143616589Y-121084010D01*
X143373368Y-121246525D01*
X143166525Y-121453368D01*
X143044805Y-121635534D01*
X142975178Y-121518645D01*
X142780269Y-121302412D01*
X142546920Y-121128359D01*
X142284099Y-121003175D01*
X142136890Y-120958524D01*
X141907000Y-121079845D01*
X141907000Y-122273000D01*
X141927000Y-122273000D01*
X141927000Y-122527000D01*
X141907000Y-122527000D01*
X141907000Y-122547000D01*
X141653000Y-122547000D01*
X141653000Y-122527000D01*
X141633000Y-122527000D01*
X141633000Y-122273000D01*
X141653000Y-122273000D01*
X141653000Y-121079845D01*
X141423110Y-120958524D01*
X141275901Y-121003175D01*
X141013080Y-121128359D01*
X140779731Y-121302412D01*
X140584822Y-121518645D01*
X140515195Y-121635534D01*
X140393475Y-121453368D01*
X140186632Y-121246525D01*
X139943411Y-121084010D01*
X139673158Y-120972068D01*
X139386260Y-120915000D01*
X139093740Y-120915000D01*
X138806842Y-120972068D01*
X138536589Y-121084010D01*
X138293368Y-121246525D01*
X138161513Y-121378380D01*
X138139502Y-121305820D01*
X138080537Y-121195506D01*
X138001185Y-121098815D01*
X137904494Y-121019463D01*
X137794180Y-120960498D01*
X137674482Y-120924188D01*
X137550000Y-120911928D01*
X135850000Y-120911928D01*
X135725518Y-120924188D01*
X135605820Y-120960498D01*
X135495506Y-121019463D01*
X135398815Y-121098815D01*
X135319463Y-121195506D01*
X135260498Y-121305820D01*
X135224188Y-121425518D01*
X135211928Y-121550000D01*
X135211928Y-123250000D01*
X135224188Y-123374482D01*
X135260498Y-123494180D01*
X135319463Y-123604494D01*
X135398815Y-123701185D01*
X135495506Y-123780537D01*
X135605820Y-123839502D01*
X135725518Y-123875812D01*
X135850000Y-123888072D01*
X135940000Y-123888072D01*
X135940001Y-128561928D01*
X134800000Y-128561928D01*
X134660000Y-128575717D01*
X134660000Y-111650000D01*
X161261928Y-111650000D01*
X161265000Y-112614250D01*
X161423750Y-112773000D01*
X162773000Y-112773000D01*
X162773000Y-111173750D01*
X163027000Y-111173750D01*
X163027000Y-112773000D01*
X164376250Y-112773000D01*
X164535000Y-112614250D01*
X164538072Y-111650000D01*
X170061928Y-111650000D01*
X170065000Y-112614250D01*
X170223750Y-112773000D01*
X171573000Y-112773000D01*
X171573000Y-111173750D01*
X171827000Y-111173750D01*
X171827000Y-112773000D01*
X173176250Y-112773000D01*
X173335000Y-112614250D01*
X173338072Y-111650000D01*
X173325812Y-111525518D01*
X173289502Y-111405820D01*
X173230537Y-111295506D01*
X173151185Y-111198815D01*
X173054494Y-111119463D01*
X172944180Y-111060498D01*
X172824482Y-111024188D01*
X172700000Y-111011928D01*
X171985750Y-111015000D01*
X171827000Y-111173750D01*
X171573000Y-111173750D01*
X171414250Y-111015000D01*
X170700000Y-111011928D01*
X170575518Y-111024188D01*
X170455820Y-111060498D01*
X170345506Y-111119463D01*
X170248815Y-111198815D01*
X170169463Y-111295506D01*
X170110498Y-111405820D01*
X170074188Y-111525518D01*
X170061928Y-111650000D01*
X164538072Y-111650000D01*
X164525812Y-111525518D01*
X164489502Y-111405820D01*
X164430537Y-111295506D01*
X164351185Y-111198815D01*
X164254494Y-111119463D01*
X164144180Y-111060498D01*
X164024482Y-111024188D01*
X163900000Y-111011928D01*
X163185750Y-111015000D01*
X163027000Y-111173750D01*
X162773000Y-111173750D01*
X162614250Y-111015000D01*
X161900000Y-111011928D01*
X161775518Y-111024188D01*
X161655820Y-111060498D01*
X161545506Y-111119463D01*
X161448815Y-111198815D01*
X161369463Y-111295506D01*
X161310498Y-111405820D01*
X161274188Y-111525518D01*
X161261928Y-111650000D01*
X134660000Y-111650000D01*
X134660000Y-109660000D01*
X173340000Y-109660000D01*
X173340001Y-148340000D01*
G37*
X173340001Y-148340000D02*
X167046860Y-148340000D01*
X167143387Y-148288405D01*
X167277962Y-148177962D01*
X167388405Y-148043387D01*
X167470472Y-147889851D01*
X167521008Y-147723255D01*
X167538072Y-147550001D01*
X167538072Y-146899999D01*
X167521008Y-146726745D01*
X167470472Y-146560149D01*
X167388405Y-146406613D01*
X167277962Y-146272038D01*
X167190184Y-146200000D01*
X167277962Y-146127962D01*
X167388405Y-145993387D01*
X167470472Y-145839851D01*
X167521008Y-145673255D01*
X167538072Y-145500001D01*
X167538072Y-144849999D01*
X167521008Y-144676745D01*
X167470472Y-144510149D01*
X167388405Y-144356613D01*
X167277962Y-144222038D01*
X167143387Y-144111595D01*
X166989851Y-144029528D01*
X166823255Y-143978992D01*
X166650001Y-143961928D01*
X165749999Y-143961928D01*
X165576745Y-143978992D01*
X165410149Y-144029528D01*
X165256613Y-144111595D01*
X165122038Y-144222038D01*
X165011595Y-144356613D01*
X164980386Y-144415000D01*
X164187322Y-144415000D01*
X164149999Y-144411324D01*
X164112676Y-144415000D01*
X164112667Y-144415000D01*
X164001014Y-144425997D01*
X163857753Y-144469454D01*
X163725724Y-144540026D01*
X163725722Y-144540027D01*
X163725723Y-144540027D01*
X163638996Y-144611201D01*
X163638992Y-144611205D01*
X163609999Y-144634999D01*
X163586205Y-144663992D01*
X162835572Y-145414626D01*
X162835000Y-145360750D01*
X162676250Y-145202000D01*
X161627000Y-145202000D01*
X161627000Y-145222000D01*
X161373000Y-145222000D01*
X161373000Y-145202000D01*
X161353000Y-145202000D01*
X161353000Y-144948000D01*
X161373000Y-144948000D01*
X161373000Y-144023750D01*
X161627000Y-144023750D01*
X161627000Y-144948000D01*
X162676250Y-144948000D01*
X162835000Y-144789250D01*
X162838072Y-144500000D01*
X162825812Y-144375518D01*
X162789502Y-144255820D01*
X162730537Y-144145506D01*
X162651185Y-144048815D01*
X162554494Y-143969463D01*
X162444180Y-143910498D01*
X162324482Y-143874188D01*
X162200000Y-143861928D01*
X161785750Y-143865000D01*
X161627000Y-144023750D01*
X161373000Y-144023750D01*
X161214250Y-143865000D01*
X160800000Y-143861928D01*
X160675518Y-143874188D01*
X160555820Y-143910498D01*
X160445506Y-143969463D01*
X160348815Y-144048815D01*
X160269463Y-144145506D01*
X160210498Y-144255820D01*
X160174188Y-144375518D01*
X160171894Y-144398806D01*
X160001939Y-144365000D01*
X159852564Y-144365000D01*
X159723986Y-144325997D01*
X159612333Y-144315000D01*
X159612322Y-144315000D01*
X159575000Y-144311324D01*
X159537678Y-144315000D01*
X158819614Y-144315000D01*
X158788405Y-144256613D01*
X158677962Y-144122038D01*
X158543387Y-144011595D01*
X158389851Y-143929528D01*
X158223255Y-143878992D01*
X158050001Y-143861928D01*
X157360000Y-143861928D01*
X157360000Y-141829518D01*
X157380537Y-141804494D01*
X157400000Y-141768082D01*
X157419463Y-141804494D01*
X157498815Y-141901185D01*
X157523000Y-141921033D01*
X157523000Y-141926250D01*
X157681750Y-142085000D01*
X157788294Y-142072905D01*
X157801582Y-142068551D01*
X157825518Y-142075812D01*
X157950000Y-142088072D01*
X158450000Y-142088072D01*
X158574482Y-142075812D01*
X158600000Y-142068071D01*
X158625518Y-142075812D01*
X158750000Y-142088072D01*
X159250000Y-142088072D01*
X159374482Y-142075812D01*
X159400000Y-142068071D01*
X159425518Y-142075812D01*
X159550000Y-142088072D01*
X160050000Y-142088072D01*
X160174482Y-142075812D01*
X160200000Y-142068071D01*
X160225518Y-142075812D01*
X160350000Y-142088072D01*
X160850000Y-142088072D01*
X160974482Y-142075812D01*
X161000000Y-142068071D01*
X161025518Y-142075812D01*
X161150000Y-142088072D01*
X161650000Y-142088072D01*
X161774482Y-142075812D01*
X161894180Y-142039502D01*
X162004494Y-141980537D01*
X162101185Y-141901185D01*
X162180537Y-141804494D01*
X162239502Y-141694180D01*
X162275812Y-141574482D01*
X162288072Y-141450000D01*
X162288072Y-139088072D01*
X164200000Y-139088072D01*
X164324482Y-139075812D01*
X164444180Y-139039502D01*
X164554494Y-138980537D01*
X164651185Y-138901185D01*
X164730537Y-138804494D01*
X164789502Y-138694180D01*
X164825812Y-138574482D01*
X164838072Y-138450000D01*
X164838072Y-138300000D01*
X166561928Y-138300000D01*
X166574188Y-138424482D01*
X166610498Y-138544180D01*
X166669463Y-138654494D01*
X166748815Y-138751185D01*
X166845506Y-138830537D01*
X166955820Y-138889502D01*
X167075518Y-138925812D01*
X167200000Y-138938072D01*
X167489250Y-138935000D01*
X167648000Y-138776250D01*
X167648000Y-137727000D01*
X167902000Y-137727000D01*
X167902000Y-138776250D01*
X168060750Y-138935000D01*
X168350000Y-138938072D01*
X168474482Y-138925812D01*
X168594180Y-138889502D01*
X168704494Y-138830537D01*
X168800000Y-138752158D01*
X168895506Y-138830537D01*
X169005820Y-138889502D01*
X169125518Y-138925812D01*
X169250000Y-138938072D01*
X169539250Y-138935000D01*
X169698000Y-138776250D01*
X169698000Y-137727000D01*
X169952000Y-137727000D01*
X169952000Y-138776250D01*
X170110750Y-138935000D01*
X170400000Y-138938072D01*
X170524482Y-138925812D01*
X170644180Y-138889502D01*
X170754494Y-138830537D01*
X170851185Y-138751185D01*
X170930537Y-138654494D01*
X170989502Y-138544180D01*
X171025812Y-138424482D01*
X171038072Y-138300000D01*
X171035000Y-137885750D01*
X170876250Y-137727000D01*
X169952000Y-137727000D01*
X169698000Y-137727000D01*
X167902000Y-137727000D01*
X167648000Y-137727000D01*
X166723750Y-137727000D01*
X166565000Y-137885750D01*
X166561928Y-138300000D01*
X164838072Y-138300000D01*
X164838072Y-137950000D01*
X164825812Y-137825518D01*
X164818071Y-137800000D01*
X164825812Y-137774482D01*
X164838072Y-137650000D01*
X164838072Y-137150000D01*
X164825812Y-137025518D01*
X164818071Y-137000000D01*
X164825812Y-136974482D01*
X164833147Y-136900000D01*
X166561928Y-136900000D01*
X166565000Y-137314250D01*
X166723750Y-137473000D01*
X167648000Y-137473000D01*
X167648000Y-136423750D01*
X167902000Y-136423750D01*
X167902000Y-137473000D01*
X169698000Y-137473000D01*
X169698000Y-136423750D01*
X169952000Y-136423750D01*
X169952000Y-137473000D01*
X170876250Y-137473000D01*
X171035000Y-137314250D01*
X171038072Y-136900000D01*
X171025812Y-136775518D01*
X170989502Y-136655820D01*
X170930537Y-136545506D01*
X170851185Y-136448815D01*
X170754494Y-136369463D01*
X170644180Y-136310498D01*
X170524482Y-136274188D01*
X170400000Y-136261928D01*
X170110750Y-136265000D01*
X169952000Y-136423750D01*
X169698000Y-136423750D01*
X169539250Y-136265000D01*
X169250000Y-136261928D01*
X169125518Y-136274188D01*
X169005820Y-136310498D01*
X168895506Y-136369463D01*
X168800000Y-136447842D01*
X168704494Y-136369463D01*
X168594180Y-136310498D01*
X168474482Y-136274188D01*
X168350000Y-136261928D01*
X168060750Y-136265000D01*
X167902000Y-136423750D01*
X167648000Y-136423750D01*
X167489250Y-136265000D01*
X167200000Y-136261928D01*
X167075518Y-136274188D01*
X166955820Y-136310498D01*
X166845506Y-136369463D01*
X166748815Y-136448815D01*
X166669463Y-136545506D01*
X166610498Y-136655820D01*
X166574188Y-136775518D01*
X166561928Y-136900000D01*
X164833147Y-136900000D01*
X164838072Y-136850000D01*
X164838072Y-136350000D01*
X164825812Y-136225518D01*
X164818071Y-136200000D01*
X164825812Y-136174482D01*
X164838072Y-136050000D01*
X164838072Y-135550000D01*
X164825812Y-135425518D01*
X164818071Y-135400000D01*
X164825812Y-135374482D01*
X164838072Y-135250000D01*
X164838072Y-134750000D01*
X164825812Y-134625518D01*
X164818071Y-134600000D01*
X164825812Y-134574482D01*
X164838072Y-134450000D01*
X164838072Y-134400000D01*
X166461928Y-134400000D01*
X166474188Y-134524482D01*
X166510498Y-134644180D01*
X166569463Y-134754494D01*
X166648815Y-134851185D01*
X166745506Y-134930537D01*
X166855820Y-134989502D01*
X166975518Y-135025812D01*
X167100000Y-135038072D01*
X167389250Y-135035000D01*
X167548000Y-134876250D01*
X167548000Y-133827000D01*
X166623750Y-133827000D01*
X166465000Y-133985750D01*
X166461928Y-134400000D01*
X164838072Y-134400000D01*
X164838072Y-133950000D01*
X164825812Y-133825518D01*
X164818071Y-133800000D01*
X164825812Y-133774482D01*
X164838072Y-133650000D01*
X164838072Y-133150000D01*
X164825812Y-133025518D01*
X164818071Y-133000000D01*
X166461928Y-133000000D01*
X166465000Y-133414250D01*
X166623750Y-133573000D01*
X167548000Y-133573000D01*
X167548000Y-132523750D01*
X167389250Y-132365000D01*
X167100000Y-132361928D01*
X166975518Y-132374188D01*
X166855820Y-132410498D01*
X166745506Y-132469463D01*
X166648815Y-132548815D01*
X166569463Y-132645506D01*
X166510498Y-132755820D01*
X166474188Y-132875518D01*
X166461928Y-133000000D01*
X164818071Y-133000000D01*
X164825812Y-132974482D01*
X164838072Y-132850000D01*
X164838072Y-132350000D01*
X164825812Y-132225518D01*
X164818071Y-132200000D01*
X164825812Y-132174482D01*
X164838072Y-132050000D01*
X164838072Y-131550000D01*
X164825812Y-131425518D01*
X164818071Y-131400000D01*
X164825812Y-131374482D01*
X164838072Y-131250000D01*
X164838072Y-130750000D01*
X164825812Y-130625518D01*
X164818071Y-130600000D01*
X164825812Y-130574482D01*
X164838072Y-130450000D01*
X164838072Y-129950000D01*
X164825812Y-129825518D01*
X164818071Y-129800000D01*
X164825812Y-129774482D01*
X164838072Y-129650000D01*
X164838072Y-129150000D01*
X164825812Y-129025518D01*
X164789502Y-128905820D01*
X164730537Y-128795506D01*
X164651185Y-128698815D01*
X164554494Y-128619463D01*
X164444180Y-128560498D01*
X164324482Y-128524188D01*
X164200000Y-128511928D01*
X162287218Y-128511928D01*
X162285000Y-128435750D01*
X162126250Y-128277000D01*
X162008272Y-128277000D01*
X162016143Y-128272566D01*
X162111055Y-128191094D01*
X162188249Y-128092672D01*
X162244759Y-127981080D01*
X162274447Y-127874803D01*
X162285000Y-127864250D01*
X162287916Y-127764114D01*
X162286840Y-127750000D01*
X162287916Y-127735886D01*
X162285000Y-127635750D01*
X162274447Y-127625197D01*
X162244759Y-127518920D01*
X162188249Y-127407328D01*
X162143286Y-127350000D01*
X162188249Y-127292672D01*
X162244759Y-127181080D01*
X162274447Y-127074803D01*
X162285000Y-127064250D01*
X162287916Y-126964114D01*
X162286840Y-126950000D01*
X162287916Y-126935886D01*
X162285000Y-126835750D01*
X162274447Y-126825197D01*
X162244759Y-126718920D01*
X162188249Y-126607328D01*
X162111055Y-126508906D01*
X162016143Y-126427434D01*
X162008272Y-126423000D01*
X162126250Y-126423000D01*
X162285000Y-126264250D01*
X162287916Y-126164114D01*
X162278412Y-126039392D01*
X162244759Y-125918920D01*
X162188249Y-125807328D01*
X162111055Y-125708906D01*
X162016143Y-125627434D01*
X161907160Y-125566044D01*
X161788294Y-125527095D01*
X161681750Y-125515000D01*
X161523000Y-125673750D01*
X161523000Y-126315000D01*
X161488072Y-126315000D01*
X161488072Y-126150000D01*
X161475812Y-126025518D01*
X161439502Y-125905820D01*
X161380537Y-125795506D01*
X161301185Y-125698815D01*
X161277000Y-125678967D01*
X161277000Y-125673750D01*
X161118250Y-125515000D01*
X161011706Y-125527095D01*
X160998418Y-125531449D01*
X160974482Y-125524188D01*
X160850000Y-125511928D01*
X160350000Y-125511928D01*
X160225518Y-125524188D01*
X160201582Y-125531449D01*
X160188294Y-125527095D01*
X160081750Y-125515000D01*
X159923000Y-125673750D01*
X159923000Y-125678967D01*
X159898815Y-125698815D01*
X159819463Y-125795506D01*
X159800000Y-125831918D01*
X159780537Y-125795506D01*
X159701185Y-125698815D01*
X159677000Y-125678967D01*
X159677000Y-125673750D01*
X159518250Y-125515000D01*
X159411706Y-125527095D01*
X159398418Y-125531449D01*
X159374482Y-125524188D01*
X159250000Y-125511928D01*
X158750000Y-125511928D01*
X158625518Y-125524188D01*
X158600000Y-125531929D01*
X158574482Y-125524188D01*
X158450000Y-125511928D01*
X157950000Y-125511928D01*
X157825518Y-125524188D01*
X157800000Y-125531929D01*
X157774482Y-125524188D01*
X157650000Y-125511928D01*
X157150000Y-125511928D01*
X157025518Y-125524188D01*
X157000000Y-125531929D01*
X156974482Y-125524188D01*
X156850000Y-125511928D01*
X156560000Y-125511928D01*
X156560000Y-125392703D01*
X156577962Y-125377962D01*
X156688405Y-125243387D01*
X156770472Y-125089851D01*
X156821008Y-124923255D01*
X156838072Y-124750001D01*
X156838072Y-124099999D01*
X156821008Y-123926745D01*
X156770472Y-123760149D01*
X156688405Y-123606613D01*
X156577962Y-123472038D01*
X156512579Y-123418379D01*
X156698102Y-123495226D01*
X156898061Y-123535000D01*
X157101939Y-123535000D01*
X157301898Y-123495226D01*
X157490256Y-123417205D01*
X157659774Y-123303937D01*
X157793642Y-123170069D01*
X157809999Y-123190001D01*
X157925724Y-123284974D01*
X158057753Y-123355546D01*
X158201014Y-123399003D01*
X158312667Y-123410000D01*
X158312676Y-123410000D01*
X158349999Y-123413676D01*
X158387322Y-123410000D01*
X165711928Y-123410000D01*
X165711928Y-123650000D01*
X165724188Y-123774482D01*
X165760498Y-123894180D01*
X165819463Y-124004494D01*
X165898815Y-124101185D01*
X165995506Y-124180537D01*
X166105820Y-124239502D01*
X166225518Y-124275812D01*
X166340001Y-124287087D01*
X166340000Y-130337677D01*
X166336324Y-130375000D01*
X166340000Y-130412322D01*
X166340000Y-130412332D01*
X166350997Y-130523985D01*
X166381796Y-130625518D01*
X166394454Y-130667246D01*
X166465026Y-130799276D01*
X166492509Y-130832764D01*
X166559999Y-130915001D01*
X166589003Y-130938804D01*
X168014626Y-132364428D01*
X167960750Y-132365000D01*
X167802000Y-132523750D01*
X167802000Y-133573000D01*
X167822000Y-133573000D01*
X167822000Y-133827000D01*
X167802000Y-133827000D01*
X167802000Y-134876250D01*
X167960750Y-135035000D01*
X168250000Y-135038072D01*
X168374482Y-135025812D01*
X168494180Y-134989502D01*
X168604494Y-134930537D01*
X168701185Y-134851185D01*
X168766658Y-134771406D01*
X168772038Y-134777962D01*
X168906613Y-134888405D01*
X169060149Y-134970472D01*
X169226745Y-135021008D01*
X169399999Y-135038072D01*
X170050001Y-135038072D01*
X170223255Y-135021008D01*
X170389851Y-134970472D01*
X170543387Y-134888405D01*
X170677962Y-134777962D01*
X170788405Y-134643387D01*
X170870472Y-134489851D01*
X170921008Y-134323255D01*
X170938072Y-134150001D01*
X170938072Y-133249999D01*
X170921008Y-133076745D01*
X170870472Y-132910149D01*
X170788405Y-132756613D01*
X170677962Y-132622038D01*
X170543387Y-132511595D01*
X170389851Y-132429528D01*
X170223255Y-132378992D01*
X170173937Y-132374135D01*
X168387873Y-130588072D01*
X171300000Y-130588072D01*
X171424482Y-130575812D01*
X171544180Y-130539502D01*
X171654494Y-130480537D01*
X171751185Y-130401185D01*
X171830537Y-130304494D01*
X171889502Y-130194180D01*
X171925812Y-130074482D01*
X171938072Y-129950000D01*
X171938072Y-127950000D01*
X171925812Y-127825518D01*
X171889502Y-127705820D01*
X171830537Y-127595506D01*
X171751185Y-127498815D01*
X171654494Y-127419463D01*
X171544180Y-127360498D01*
X171424482Y-127324188D01*
X171300000Y-127311928D01*
X167860000Y-127311928D01*
X167860000Y-124287087D01*
X167974482Y-124275812D01*
X168094180Y-124239502D01*
X168204494Y-124180537D01*
X168250000Y-124143191D01*
X168295506Y-124180537D01*
X168405820Y-124239502D01*
X168525518Y-124275812D01*
X168650000Y-124288072D01*
X170150000Y-124288072D01*
X170274482Y-124275812D01*
X170394180Y-124239502D01*
X170504494Y-124180537D01*
X170550000Y-124143191D01*
X170595506Y-124180537D01*
X170705820Y-124239502D01*
X170825518Y-124275812D01*
X170950000Y-124288072D01*
X171414250Y-124285000D01*
X171573000Y-124126250D01*
X171573000Y-122777000D01*
X171827000Y-122777000D01*
X171827000Y-124126250D01*
X171985750Y-124285000D01*
X172450000Y-124288072D01*
X172574482Y-124275812D01*
X172694180Y-124239502D01*
X172804494Y-124180537D01*
X172901185Y-124101185D01*
X172980537Y-124004494D01*
X173039502Y-123894180D01*
X173075812Y-123774482D01*
X173088072Y-123650000D01*
X173085000Y-122935750D01*
X172926250Y-122777000D01*
X171827000Y-122777000D01*
X171573000Y-122777000D01*
X171553000Y-122777000D01*
X171553000Y-122523000D01*
X171573000Y-122523000D01*
X171573000Y-121173750D01*
X171827000Y-121173750D01*
X171827000Y-122523000D01*
X172926250Y-122523000D01*
X173085000Y-122364250D01*
X173088072Y-121650000D01*
X173075812Y-121525518D01*
X173039502Y-121405820D01*
X172980537Y-121295506D01*
X172901185Y-121198815D01*
X172804494Y-121119463D01*
X172694180Y-121060498D01*
X172574482Y-121024188D01*
X172450000Y-121011928D01*
X171985750Y-121015000D01*
X171827000Y-121173750D01*
X171573000Y-121173750D01*
X171414250Y-121015000D01*
X170950000Y-121011928D01*
X170825518Y-121024188D01*
X170705820Y-121060498D01*
X170595506Y-121119463D01*
X170550000Y-121156809D01*
X170504494Y-121119463D01*
X170420548Y-121074592D01*
X170435000Y-121001939D01*
X170435000Y-120798061D01*
X170395226Y-120598102D01*
X170317205Y-120409744D01*
X170203937Y-120240226D01*
X170059774Y-120096063D01*
X169890256Y-119982795D01*
X169728049Y-119915606D01*
X169739502Y-119894180D01*
X169775812Y-119774482D01*
X169788072Y-119650000D01*
X170061928Y-119650000D01*
X170074188Y-119774482D01*
X170110498Y-119894180D01*
X170169463Y-120004494D01*
X170248815Y-120101185D01*
X170345506Y-120180537D01*
X170455820Y-120239502D01*
X170575518Y-120275812D01*
X170700000Y-120288072D01*
X171414250Y-120285000D01*
X171573000Y-120126250D01*
X171573000Y-118527000D01*
X171827000Y-118527000D01*
X171827000Y-120126250D01*
X171985750Y-120285000D01*
X172700000Y-120288072D01*
X172824482Y-120275812D01*
X172944180Y-120239502D01*
X173054494Y-120180537D01*
X173151185Y-120101185D01*
X173230537Y-120004494D01*
X173289502Y-119894180D01*
X173325812Y-119774482D01*
X173338072Y-119650000D01*
X173335000Y-118685750D01*
X173176250Y-118527000D01*
X171827000Y-118527000D01*
X171573000Y-118527000D01*
X170223750Y-118527000D01*
X170065000Y-118685750D01*
X170061928Y-119650000D01*
X169788072Y-119650000D01*
X169788072Y-117150000D01*
X170061928Y-117150000D01*
X170065000Y-118114250D01*
X170223750Y-118273000D01*
X171573000Y-118273000D01*
X171573000Y-116673750D01*
X171827000Y-116673750D01*
X171827000Y-118273000D01*
X173176250Y-118273000D01*
X173335000Y-118114250D01*
X173338072Y-117150000D01*
X173325812Y-117025518D01*
X173289502Y-116905820D01*
X173230537Y-116795506D01*
X173151185Y-116698815D01*
X173054494Y-116619463D01*
X172944180Y-116560498D01*
X172824482Y-116524188D01*
X172700000Y-116511928D01*
X171985750Y-116515000D01*
X171827000Y-116673750D01*
X171573000Y-116673750D01*
X171414250Y-116515000D01*
X170700000Y-116511928D01*
X170575518Y-116524188D01*
X170455820Y-116560498D01*
X170345506Y-116619463D01*
X170248815Y-116698815D01*
X170169463Y-116795506D01*
X170110498Y-116905820D01*
X170074188Y-117025518D01*
X170061928Y-117150000D01*
X169788072Y-117150000D01*
X169775812Y-117025518D01*
X169739502Y-116905820D01*
X169716696Y-116863153D01*
X169816483Y-116843304D01*
X170013940Y-116761515D01*
X170191647Y-116642775D01*
X170342775Y-116491647D01*
X170461515Y-116313940D01*
X170543304Y-116116483D01*
X170585000Y-115906863D01*
X170585000Y-115693137D01*
X170543304Y-115483517D01*
X170461515Y-115286060D01*
X170342775Y-115108353D01*
X170191647Y-114957225D01*
X170013940Y-114838485D01*
X169816483Y-114756696D01*
X169606863Y-114715000D01*
X169393137Y-114715000D01*
X169183517Y-114756696D01*
X168986060Y-114838485D01*
X168808353Y-114957225D01*
X168657225Y-115108353D01*
X168538485Y-115286060D01*
X168456696Y-115483517D01*
X168415000Y-115693137D01*
X168415000Y-115906863D01*
X168456696Y-116116483D01*
X168538485Y-116313940D01*
X168657225Y-116491647D01*
X168677506Y-116511928D01*
X168650000Y-116511928D01*
X168525518Y-116524188D01*
X168500000Y-116531929D01*
X168474482Y-116524188D01*
X168350000Y-116511928D01*
X167850000Y-116511928D01*
X167725518Y-116524188D01*
X167700000Y-116531929D01*
X167674482Y-116524188D01*
X167550000Y-116511928D01*
X167050000Y-116511928D01*
X166925518Y-116524188D01*
X166900000Y-116531929D01*
X166874482Y-116524188D01*
X166750000Y-116511928D01*
X166250000Y-116511928D01*
X166125518Y-116524188D01*
X166100671Y-116531725D01*
X166080813Y-116525481D01*
X165981750Y-116515000D01*
X165827002Y-116669748D01*
X165827002Y-116607420D01*
X165942775Y-116491647D01*
X166061515Y-116313940D01*
X166143304Y-116116483D01*
X166185000Y-115906863D01*
X166185000Y-115693137D01*
X166143304Y-115483517D01*
X166061515Y-115286060D01*
X165942775Y-115108353D01*
X165791647Y-114957225D01*
X165613940Y-114838485D01*
X165416483Y-114756696D01*
X165206863Y-114715000D01*
X164993137Y-114715000D01*
X164783517Y-114756696D01*
X164586060Y-114838485D01*
X164408353Y-114957225D01*
X164257225Y-115108353D01*
X164138485Y-115286060D01*
X164056696Y-115483517D01*
X164015000Y-115693137D01*
X164015000Y-115906863D01*
X164056696Y-116116483D01*
X164138485Y-116313940D01*
X164257225Y-116491647D01*
X164408353Y-116642775D01*
X164586060Y-116761515D01*
X164783517Y-116843304D01*
X164883418Y-116863176D01*
X164858056Y-116911803D01*
X164822960Y-117031862D01*
X164811961Y-117156462D01*
X164815000Y-118114250D01*
X164973750Y-118273000D01*
X165577000Y-118273000D01*
X165577000Y-118253000D01*
X165611928Y-118253000D01*
X165611928Y-119650000D01*
X165624188Y-119774482D01*
X165660498Y-119894180D01*
X165719463Y-120004494D01*
X165798815Y-120101185D01*
X165823000Y-120121033D01*
X165823000Y-120126250D01*
X165981750Y-120285000D01*
X166080813Y-120274519D01*
X166100671Y-120268275D01*
X166125518Y-120275812D01*
X166250000Y-120288072D01*
X166750000Y-120288072D01*
X166874482Y-120275812D01*
X166900000Y-120268071D01*
X166925518Y-120275812D01*
X167050000Y-120288072D01*
X167137126Y-120288072D01*
X166588998Y-120836201D01*
X166560000Y-120859999D01*
X166536202Y-120888997D01*
X166536201Y-120888998D01*
X166465026Y-120975724D01*
X166445674Y-121011928D01*
X166350000Y-121011928D01*
X166225518Y-121024188D01*
X166105820Y-121060498D01*
X165995506Y-121119463D01*
X165898815Y-121198815D01*
X165819463Y-121295506D01*
X165760498Y-121405820D01*
X165724188Y-121525518D01*
X165711928Y-121650000D01*
X165711928Y-121890000D01*
X158664802Y-121890000D01*
X156424802Y-119650000D01*
X161261928Y-119650000D01*
X161274188Y-119774482D01*
X161310498Y-119894180D01*
X161369463Y-120004494D01*
X161448815Y-120101185D01*
X161545506Y-120180537D01*
X161655820Y-120239502D01*
X161775518Y-120275812D01*
X161900000Y-120288072D01*
X162614250Y-120285000D01*
X162773000Y-120126250D01*
X162773000Y-118527000D01*
X163027000Y-118527000D01*
X163027000Y-120126250D01*
X163185750Y-120285000D01*
X163900000Y-120288072D01*
X164024482Y-120275812D01*
X164144180Y-120239502D01*
X164254494Y-120180537D01*
X164351185Y-120101185D01*
X164430537Y-120004494D01*
X164489502Y-119894180D01*
X164525812Y-119774482D01*
X164538072Y-119650000D01*
X164538052Y-119643538D01*
X164811961Y-119643538D01*
X164822960Y-119768138D01*
X164858056Y-119888197D01*
X164915900Y-119999103D01*
X164994269Y-120096593D01*
X165090152Y-120176920D01*
X165199863Y-120236999D01*
X165319187Y-120274519D01*
X165418250Y-120285000D01*
X165577000Y-120126250D01*
X165577000Y-118527000D01*
X164973750Y-118527000D01*
X164815000Y-118685750D01*
X164811961Y-119643538D01*
X164538052Y-119643538D01*
X164535000Y-118685750D01*
X164376250Y-118527000D01*
X163027000Y-118527000D01*
X162773000Y-118527000D01*
X161423750Y-118527000D01*
X161265000Y-118685750D01*
X161261928Y-119650000D01*
X156424802Y-119650000D01*
X153924802Y-117150000D01*
X161261928Y-117150000D01*
X161265000Y-118114250D01*
X161423750Y-118273000D01*
X162773000Y-118273000D01*
X162773000Y-116673750D01*
X163027000Y-116673750D01*
X163027000Y-118273000D01*
X164376250Y-118273000D01*
X164535000Y-118114250D01*
X164538072Y-117150000D01*
X164525812Y-117025518D01*
X164489502Y-116905820D01*
X164430537Y-116795506D01*
X164351185Y-116698815D01*
X164254494Y-116619463D01*
X164144180Y-116560498D01*
X164024482Y-116524188D01*
X163900000Y-116511928D01*
X163185750Y-116515000D01*
X163027000Y-116673750D01*
X162773000Y-116673750D01*
X162614250Y-116515000D01*
X161900000Y-116511928D01*
X161775518Y-116524188D01*
X161655820Y-116560498D01*
X161545506Y-116619463D01*
X161448815Y-116698815D01*
X161369463Y-116795506D01*
X161310498Y-116905820D01*
X161274188Y-117025518D01*
X161261928Y-117150000D01*
X153924802Y-117150000D01*
X153284217Y-116509415D01*
X153338405Y-116443386D01*
X153420472Y-116289850D01*
X153447727Y-116200000D01*
X154111928Y-116200000D01*
X154124188Y-116324482D01*
X154160498Y-116444180D01*
X154219463Y-116554494D01*
X154298815Y-116651185D01*
X154395506Y-116730537D01*
X154505820Y-116789502D01*
X154625518Y-116825812D01*
X154750000Y-116838072D01*
X156214250Y-116835000D01*
X156373000Y-116676250D01*
X156373000Y-115527000D01*
X156627000Y-115527000D01*
X156627000Y-116676250D01*
X156785750Y-116835000D01*
X158250000Y-116838072D01*
X158374482Y-116825812D01*
X158494180Y-116789502D01*
X158604494Y-116730537D01*
X158701185Y-116651185D01*
X158780537Y-116554494D01*
X158839502Y-116444180D01*
X158875812Y-116324482D01*
X158888072Y-116200000D01*
X158885000Y-115685750D01*
X158726250Y-115527000D01*
X156627000Y-115527000D01*
X156373000Y-115527000D01*
X154273750Y-115527000D01*
X154115000Y-115685750D01*
X154111928Y-116200000D01*
X153447727Y-116200000D01*
X153471008Y-116123254D01*
X153488072Y-115950000D01*
X153488072Y-114850000D01*
X153471008Y-114676746D01*
X153447728Y-114600000D01*
X154111928Y-114600000D01*
X154115000Y-115114250D01*
X154273750Y-115273000D01*
X156373000Y-115273000D01*
X156373000Y-114123750D01*
X156627000Y-114123750D01*
X156627000Y-115273000D01*
X158726250Y-115273000D01*
X158885000Y-115114250D01*
X158888072Y-114600000D01*
X158875812Y-114475518D01*
X158839502Y-114355820D01*
X158780537Y-114245506D01*
X158702158Y-114150000D01*
X161261928Y-114150000D01*
X161274188Y-114274482D01*
X161310498Y-114394180D01*
X161369463Y-114504494D01*
X161448815Y-114601185D01*
X161545506Y-114680537D01*
X161655820Y-114739502D01*
X161775518Y-114775812D01*
X161900000Y-114788072D01*
X162614250Y-114785000D01*
X162773000Y-114626250D01*
X162773000Y-113027000D01*
X163027000Y-113027000D01*
X163027000Y-114626250D01*
X163185750Y-114785000D01*
X163900000Y-114788072D01*
X164024482Y-114775812D01*
X164144180Y-114739502D01*
X164254494Y-114680537D01*
X164351185Y-114601185D01*
X164430537Y-114504494D01*
X164489502Y-114394180D01*
X164525812Y-114274482D01*
X164538072Y-114150000D01*
X170061928Y-114150000D01*
X170074188Y-114274482D01*
X170110498Y-114394180D01*
X170169463Y-114504494D01*
X170248815Y-114601185D01*
X170345506Y-114680537D01*
X170455820Y-114739502D01*
X170575518Y-114775812D01*
X170700000Y-114788072D01*
X171414250Y-114785000D01*
X171573000Y-114626250D01*
X171573000Y-113027000D01*
X171827000Y-113027000D01*
X171827000Y-114626250D01*
X171985750Y-114785000D01*
X172700000Y-114788072D01*
X172824482Y-114775812D01*
X172944180Y-114739502D01*
X173054494Y-114680537D01*
X173151185Y-114601185D01*
X173230537Y-114504494D01*
X173289502Y-114394180D01*
X173325812Y-114274482D01*
X173338072Y-114150000D01*
X173335000Y-113185750D01*
X173176250Y-113027000D01*
X171827000Y-113027000D01*
X171573000Y-113027000D01*
X170223750Y-113027000D01*
X170065000Y-113185750D01*
X170061928Y-114150000D01*
X164538072Y-114150000D01*
X164535000Y-113185750D01*
X164376250Y-113027000D01*
X163027000Y-113027000D01*
X162773000Y-113027000D01*
X161423750Y-113027000D01*
X161265000Y-113185750D01*
X161261928Y-114150000D01*
X158702158Y-114150000D01*
X158701185Y-114148815D01*
X158604494Y-114069463D01*
X158494180Y-114010498D01*
X158374482Y-113974188D01*
X158250000Y-113961928D01*
X156785750Y-113965000D01*
X156627000Y-114123750D01*
X156373000Y-114123750D01*
X156214250Y-113965000D01*
X154750000Y-113961928D01*
X154625518Y-113974188D01*
X154505820Y-114010498D01*
X154395506Y-114069463D01*
X154298815Y-114148815D01*
X154219463Y-114245506D01*
X154160498Y-114355820D01*
X154124188Y-114475518D01*
X154111928Y-114600000D01*
X153447728Y-114600000D01*
X153420472Y-114510150D01*
X153338405Y-114356614D01*
X153227962Y-114222038D01*
X153093386Y-114111595D01*
X152939850Y-114029528D01*
X152773254Y-113978992D01*
X152600000Y-113961928D01*
X149600000Y-113961928D01*
X149426746Y-113978992D01*
X149260150Y-114029528D01*
X149106614Y-114111595D01*
X148972038Y-114222038D01*
X148861595Y-114356614D01*
X148779528Y-114510150D01*
X148728992Y-114676746D01*
X148711928Y-114850000D01*
X148711928Y-115950000D01*
X148728992Y-116123254D01*
X148779528Y-116289850D01*
X148861595Y-116443386D01*
X148972038Y-116577962D01*
X149106614Y-116688405D01*
X149260150Y-116770472D01*
X149426746Y-116821008D01*
X149600000Y-116838072D01*
X151463271Y-116838072D01*
X155787126Y-121161928D01*
X155049999Y-121161928D01*
X154876745Y-121178992D01*
X154710149Y-121229528D01*
X154556613Y-121311595D01*
X154422038Y-121422038D01*
X154311595Y-121556613D01*
X154280386Y-121615000D01*
X153719614Y-121615000D01*
X153688405Y-121556613D01*
X153577962Y-121422038D01*
X153443387Y-121311595D01*
X153289851Y-121229528D01*
X153123255Y-121178992D01*
X152950001Y-121161928D01*
X152049999Y-121161928D01*
X151876745Y-121178992D01*
X151710149Y-121229528D01*
X151556613Y-121311595D01*
X151422038Y-121422038D01*
X151311595Y-121556613D01*
X151229528Y-121710149D01*
X151178992Y-121876745D01*
X151174135Y-121926063D01*
X150267949Y-122832249D01*
X150217205Y-122709744D01*
X150103937Y-122540226D01*
X149959774Y-122396063D01*
X149790256Y-122282795D01*
X149601898Y-122204774D01*
X149401939Y-122165000D01*
X149339801Y-122165000D01*
X149063803Y-121889002D01*
X149040001Y-121859999D01*
X148924276Y-121765026D01*
X148792247Y-121694454D01*
X148648986Y-121650997D01*
X148537333Y-121640000D01*
X148537322Y-121640000D01*
X148500000Y-121636324D01*
X148462678Y-121640000D01*
X148138178Y-121640000D01*
X148013475Y-121453368D01*
X147806632Y-121246525D01*
X147563411Y-121084010D01*
X147293158Y-120972068D01*
X147006260Y-120915000D01*
X146713740Y-120915000D01*
X146426842Y-120972068D01*
X146156589Y-121084010D01*
X145913368Y-121246525D01*
X145706525Y-121453368D01*
X145590000Y-121627760D01*
X145473475Y-121453368D01*
X145266632Y-121246525D01*
X145023411Y-121084010D01*
X144753158Y-120972068D01*
X144466260Y-120915000D01*
X144173740Y-120915000D01*
X143886842Y-120972068D01*
X143616589Y-121084010D01*
X143373368Y-121246525D01*
X143166525Y-121453368D01*
X143044805Y-121635534D01*
X142975178Y-121518645D01*
X142780269Y-121302412D01*
X142546920Y-121128359D01*
X142284099Y-121003175D01*
X142136890Y-120958524D01*
X141907000Y-121079845D01*
X141907000Y-122273000D01*
X141927000Y-122273000D01*
X141927000Y-122527000D01*
X141907000Y-122527000D01*
X141907000Y-122547000D01*
X141653000Y-122547000D01*
X141653000Y-122527000D01*
X141633000Y-122527000D01*
X141633000Y-122273000D01*
X141653000Y-122273000D01*
X141653000Y-121079845D01*
X141423110Y-120958524D01*
X141275901Y-121003175D01*
X141013080Y-121128359D01*
X140779731Y-121302412D01*
X140584822Y-121518645D01*
X140515195Y-121635534D01*
X140393475Y-121453368D01*
X140186632Y-121246525D01*
X139943411Y-121084010D01*
X139673158Y-120972068D01*
X139386260Y-120915000D01*
X139093740Y-120915000D01*
X138806842Y-120972068D01*
X138536589Y-121084010D01*
X138293368Y-121246525D01*
X138161513Y-121378380D01*
X138139502Y-121305820D01*
X138080537Y-121195506D01*
X138001185Y-121098815D01*
X137904494Y-121019463D01*
X137794180Y-120960498D01*
X137674482Y-120924188D01*
X137550000Y-120911928D01*
X135850000Y-120911928D01*
X135725518Y-120924188D01*
X135605820Y-120960498D01*
X135495506Y-121019463D01*
X135398815Y-121098815D01*
X135319463Y-121195506D01*
X135260498Y-121305820D01*
X135224188Y-121425518D01*
X135211928Y-121550000D01*
X135211928Y-123250000D01*
X135224188Y-123374482D01*
X135260498Y-123494180D01*
X135319463Y-123604494D01*
X135398815Y-123701185D01*
X135495506Y-123780537D01*
X135605820Y-123839502D01*
X135725518Y-123875812D01*
X135850000Y-123888072D01*
X135940000Y-123888072D01*
X135940001Y-128561928D01*
X134800000Y-128561928D01*
X134660000Y-128575717D01*
X134660000Y-111650000D01*
X161261928Y-111650000D01*
X161265000Y-112614250D01*
X161423750Y-112773000D01*
X162773000Y-112773000D01*
X162773000Y-111173750D01*
X163027000Y-111173750D01*
X163027000Y-112773000D01*
X164376250Y-112773000D01*
X164535000Y-112614250D01*
X164538072Y-111650000D01*
X170061928Y-111650000D01*
X170065000Y-112614250D01*
X170223750Y-112773000D01*
X171573000Y-112773000D01*
X171573000Y-111173750D01*
X171827000Y-111173750D01*
X171827000Y-112773000D01*
X173176250Y-112773000D01*
X173335000Y-112614250D01*
X173338072Y-111650000D01*
X173325812Y-111525518D01*
X173289502Y-111405820D01*
X173230537Y-111295506D01*
X173151185Y-111198815D01*
X173054494Y-111119463D01*
X172944180Y-111060498D01*
X172824482Y-111024188D01*
X172700000Y-111011928D01*
X171985750Y-111015000D01*
X171827000Y-111173750D01*
X171573000Y-111173750D01*
X171414250Y-111015000D01*
X170700000Y-111011928D01*
X170575518Y-111024188D01*
X170455820Y-111060498D01*
X170345506Y-111119463D01*
X170248815Y-111198815D01*
X170169463Y-111295506D01*
X170110498Y-111405820D01*
X170074188Y-111525518D01*
X170061928Y-111650000D01*
X164538072Y-111650000D01*
X164525812Y-111525518D01*
X164489502Y-111405820D01*
X164430537Y-111295506D01*
X164351185Y-111198815D01*
X164254494Y-111119463D01*
X164144180Y-111060498D01*
X164024482Y-111024188D01*
X163900000Y-111011928D01*
X163185750Y-111015000D01*
X163027000Y-111173750D01*
X162773000Y-111173750D01*
X162614250Y-111015000D01*
X161900000Y-111011928D01*
X161775518Y-111024188D01*
X161655820Y-111060498D01*
X161545506Y-111119463D01*
X161448815Y-111198815D01*
X161369463Y-111295506D01*
X161310498Y-111405820D01*
X161274188Y-111525518D01*
X161261928Y-111650000D01*
X134660000Y-111650000D01*
X134660000Y-109660000D01*
X173340000Y-109660000D01*
X173340001Y-148340000D01*
G36*
X159819463Y-128904494D02*
G01*
X159898815Y-129001185D01*
X159923000Y-129021033D01*
X159923000Y-129026250D01*
X160081750Y-129185000D01*
X160188294Y-129172905D01*
X160201582Y-129168551D01*
X160225518Y-129175812D01*
X160350000Y-129188072D01*
X160850000Y-129188072D01*
X160974482Y-129175812D01*
X160998418Y-129168551D01*
X161011706Y-129172905D01*
X161118250Y-129185000D01*
X161162876Y-129140374D01*
X161161928Y-129150000D01*
X161161928Y-129650000D01*
X161174188Y-129774482D01*
X161181929Y-129800000D01*
X161174188Y-129825518D01*
X161161928Y-129950000D01*
X161161928Y-130450000D01*
X161174188Y-130574482D01*
X161181929Y-130600000D01*
X161174188Y-130625518D01*
X161161928Y-130750000D01*
X161161928Y-131250000D01*
X161174188Y-131374482D01*
X161181929Y-131400000D01*
X161174188Y-131425518D01*
X161161928Y-131550000D01*
X161161928Y-132050000D01*
X161174188Y-132174482D01*
X161181929Y-132200000D01*
X161174188Y-132225518D01*
X161161928Y-132350000D01*
X161161928Y-132850000D01*
X161174188Y-132974482D01*
X161181929Y-133000000D01*
X161174188Y-133025518D01*
X161161928Y-133150000D01*
X161161928Y-133650000D01*
X161174188Y-133774482D01*
X161181929Y-133800000D01*
X161174188Y-133825518D01*
X161161928Y-133950000D01*
X161161928Y-134450000D01*
X161174188Y-134574482D01*
X161181929Y-134600000D01*
X161174188Y-134625518D01*
X161161928Y-134750000D01*
X161161928Y-135250000D01*
X161174188Y-135374482D01*
X161181929Y-135400000D01*
X161174188Y-135425518D01*
X161161928Y-135550000D01*
X161161928Y-136050000D01*
X161174188Y-136174482D01*
X161181929Y-136200000D01*
X161174188Y-136225518D01*
X161161928Y-136350000D01*
X161161928Y-136850000D01*
X161174188Y-136974482D01*
X161181929Y-137000000D01*
X161174188Y-137025518D01*
X161161928Y-137150000D01*
X161161928Y-137650000D01*
X161174188Y-137774482D01*
X161181929Y-137800000D01*
X161174188Y-137825518D01*
X161161928Y-137950000D01*
X161161928Y-138411928D01*
X161150000Y-138411928D01*
X161025518Y-138424188D01*
X161000000Y-138431929D01*
X160974482Y-138424188D01*
X160850000Y-138411928D01*
X160350000Y-138411928D01*
X160225518Y-138424188D01*
X160200000Y-138431929D01*
X160174482Y-138424188D01*
X160050000Y-138411928D01*
X159550000Y-138411928D01*
X159425518Y-138424188D01*
X159400000Y-138431929D01*
X159374482Y-138424188D01*
X159250000Y-138411928D01*
X158750000Y-138411928D01*
X158625518Y-138424188D01*
X158600000Y-138431929D01*
X158574482Y-138424188D01*
X158450000Y-138411928D01*
X157950000Y-138411928D01*
X157825518Y-138424188D01*
X157801582Y-138431449D01*
X157788294Y-138427095D01*
X157681750Y-138415000D01*
X157523000Y-138573750D01*
X157523000Y-138578967D01*
X157498815Y-138598815D01*
X157419463Y-138695506D01*
X157400000Y-138731918D01*
X157380537Y-138695506D01*
X157301185Y-138598815D01*
X157277000Y-138578967D01*
X157277000Y-138573750D01*
X157118250Y-138415000D01*
X157011706Y-138427095D01*
X156998418Y-138431449D01*
X156974482Y-138424188D01*
X156850000Y-138411928D01*
X156350000Y-138411928D01*
X156240440Y-138422718D01*
X156209975Y-138365723D01*
X156156038Y-138300000D01*
X156115002Y-138249998D01*
X156086005Y-138226201D01*
X155548805Y-137689002D01*
X155547680Y-137687631D01*
X155654494Y-137630537D01*
X155750000Y-137552158D01*
X155845506Y-137630537D01*
X155955820Y-137689502D01*
X156075518Y-137725812D01*
X156200000Y-137738072D01*
X156714250Y-137735000D01*
X156873000Y-137576250D01*
X156873000Y-136427000D01*
X157127000Y-136427000D01*
X157127000Y-137576250D01*
X157285750Y-137735000D01*
X157800000Y-137738072D01*
X157924482Y-137725812D01*
X158044180Y-137689502D01*
X158154494Y-137630537D01*
X158250000Y-137552158D01*
X158345506Y-137630537D01*
X158455820Y-137689502D01*
X158575518Y-137725812D01*
X158700000Y-137738072D01*
X159214250Y-137735000D01*
X159373000Y-137576250D01*
X159373000Y-136427000D01*
X159627000Y-136427000D01*
X159627000Y-137576250D01*
X159785750Y-137735000D01*
X160300000Y-137738072D01*
X160424482Y-137725812D01*
X160544180Y-137689502D01*
X160654494Y-137630537D01*
X160751185Y-137551185D01*
X160830537Y-137454494D01*
X160889502Y-137344180D01*
X160925812Y-137224482D01*
X160938072Y-137100000D01*
X160935000Y-136585750D01*
X160776250Y-136427000D01*
X159627000Y-136427000D01*
X159373000Y-136427000D01*
X157127000Y-136427000D01*
X156873000Y-136427000D01*
X154627000Y-136427000D01*
X154627000Y-136447000D01*
X154373000Y-136447000D01*
X154373000Y-136427000D01*
X153223750Y-136427000D01*
X153065000Y-136585750D01*
X153061928Y-137100000D01*
X153074188Y-137224482D01*
X153110498Y-137344180D01*
X153161716Y-137440000D01*
X152838072Y-137440000D01*
X152838072Y-137150000D01*
X152825812Y-137025518D01*
X152818071Y-137000000D01*
X152825812Y-136974482D01*
X152838072Y-136850000D01*
X152838072Y-136350000D01*
X152825812Y-136225518D01*
X152818071Y-136200000D01*
X152825812Y-136174482D01*
X152838072Y-136050000D01*
X152838072Y-135550000D01*
X152825812Y-135425518D01*
X152818551Y-135401582D01*
X152822905Y-135388294D01*
X152835000Y-135281750D01*
X152676250Y-135123000D01*
X152671033Y-135123000D01*
X152651185Y-135098815D01*
X152554494Y-135019463D01*
X152518082Y-135000000D01*
X152554494Y-134980537D01*
X152651185Y-134901185D01*
X152671033Y-134877000D01*
X152676250Y-134877000D01*
X152835000Y-134718250D01*
X152822905Y-134611706D01*
X152819070Y-134600000D01*
X153061928Y-134600000D01*
X153074188Y-134724482D01*
X153110498Y-134844180D01*
X153169463Y-134954494D01*
X153247842Y-135050000D01*
X153169463Y-135145506D01*
X153110498Y-135255820D01*
X153074188Y-135375518D01*
X153061928Y-135500000D01*
X153065000Y-136014250D01*
X153223750Y-136173000D01*
X154373000Y-136173000D01*
X154373000Y-133927000D01*
X154627000Y-133927000D01*
X154627000Y-136173000D01*
X156873000Y-136173000D01*
X156873000Y-133927000D01*
X157127000Y-133927000D01*
X157127000Y-136173000D01*
X159373000Y-136173000D01*
X159373000Y-133927000D01*
X159627000Y-133927000D01*
X159627000Y-136173000D01*
X160776250Y-136173000D01*
X160935000Y-136014250D01*
X160938072Y-135500000D01*
X160925812Y-135375518D01*
X160889502Y-135255820D01*
X160830537Y-135145506D01*
X160752158Y-135050000D01*
X160830537Y-134954494D01*
X160889502Y-134844180D01*
X160925812Y-134724482D01*
X160938072Y-134600000D01*
X160935000Y-134085750D01*
X160776250Y-133927000D01*
X159627000Y-133927000D01*
X159373000Y-133927000D01*
X157127000Y-133927000D01*
X156873000Y-133927000D01*
X154627000Y-133927000D01*
X154373000Y-133927000D01*
X153223750Y-133927000D01*
X153065000Y-134085750D01*
X153061928Y-134600000D01*
X152819070Y-134600000D01*
X152818551Y-134598418D01*
X152825812Y-134574482D01*
X152838072Y-134450000D01*
X152838072Y-133950000D01*
X152825812Y-133825518D01*
X152818071Y-133800000D01*
X152825812Y-133774482D01*
X152838072Y-133650000D01*
X152838072Y-133150000D01*
X152825812Y-133025518D01*
X152818071Y-133000000D01*
X152825812Y-132974482D01*
X152838072Y-132850000D01*
X152838072Y-132350000D01*
X152825812Y-132225518D01*
X152818071Y-132200000D01*
X152825812Y-132174482D01*
X152833147Y-132100000D01*
X153061928Y-132100000D01*
X153074188Y-132224482D01*
X153110498Y-132344180D01*
X153169463Y-132454494D01*
X153247842Y-132550000D01*
X153169463Y-132645506D01*
X153110498Y-132755820D01*
X153074188Y-132875518D01*
X153061928Y-133000000D01*
X153065000Y-133514250D01*
X153223750Y-133673000D01*
X154373000Y-133673000D01*
X154373000Y-131427000D01*
X154627000Y-131427000D01*
X154627000Y-133673000D01*
X156873000Y-133673000D01*
X156873000Y-131427000D01*
X157127000Y-131427000D01*
X157127000Y-133673000D01*
X159373000Y-133673000D01*
X159373000Y-131427000D01*
X159627000Y-131427000D01*
X159627000Y-133673000D01*
X160776250Y-133673000D01*
X160935000Y-133514250D01*
X160938072Y-133000000D01*
X160925812Y-132875518D01*
X160889502Y-132755820D01*
X160830537Y-132645506D01*
X160752158Y-132550000D01*
X160830537Y-132454494D01*
X160889502Y-132344180D01*
X160925812Y-132224482D01*
X160938072Y-132100000D01*
X160935000Y-131585750D01*
X160776250Y-131427000D01*
X159627000Y-131427000D01*
X159373000Y-131427000D01*
X157127000Y-131427000D01*
X156873000Y-131427000D01*
X154627000Y-131427000D01*
X154373000Y-131427000D01*
X153223750Y-131427000D01*
X153065000Y-131585750D01*
X153061928Y-132100000D01*
X152833147Y-132100000D01*
X152838072Y-132050000D01*
X152838072Y-131550000D01*
X152825812Y-131425518D01*
X152818071Y-131400000D01*
X152825812Y-131374482D01*
X152838072Y-131250000D01*
X152838072Y-130750000D01*
X152825812Y-130625518D01*
X152818071Y-130600000D01*
X152825812Y-130574482D01*
X152833147Y-130500000D01*
X153061928Y-130500000D01*
X153065000Y-131014250D01*
X153223750Y-131173000D01*
X154373000Y-131173000D01*
X154373000Y-130023750D01*
X154627000Y-130023750D01*
X154627000Y-131173000D01*
X156873000Y-131173000D01*
X156873000Y-130023750D01*
X157127000Y-130023750D01*
X157127000Y-131173000D01*
X159373000Y-131173000D01*
X159373000Y-130023750D01*
X159627000Y-130023750D01*
X159627000Y-131173000D01*
X160776250Y-131173000D01*
X160935000Y-131014250D01*
X160938072Y-130500000D01*
X160925812Y-130375518D01*
X160889502Y-130255820D01*
X160830537Y-130145506D01*
X160751185Y-130048815D01*
X160654494Y-129969463D01*
X160544180Y-129910498D01*
X160424482Y-129874188D01*
X160300000Y-129861928D01*
X159785750Y-129865000D01*
X159627000Y-130023750D01*
X159373000Y-130023750D01*
X159214250Y-129865000D01*
X158700000Y-129861928D01*
X158575518Y-129874188D01*
X158455820Y-129910498D01*
X158345506Y-129969463D01*
X158250000Y-130047842D01*
X158154494Y-129969463D01*
X158044180Y-129910498D01*
X157924482Y-129874188D01*
X157800000Y-129861928D01*
X157285750Y-129865000D01*
X157127000Y-130023750D01*
X156873000Y-130023750D01*
X156714250Y-129865000D01*
X156200000Y-129861928D01*
X156075518Y-129874188D01*
X155955820Y-129910498D01*
X155845506Y-129969463D01*
X155750000Y-130047842D01*
X155654494Y-129969463D01*
X155544180Y-129910498D01*
X155424482Y-129874188D01*
X155300000Y-129861928D01*
X154785750Y-129865000D01*
X154627000Y-130023750D01*
X154373000Y-130023750D01*
X154214250Y-129865000D01*
X153700000Y-129861928D01*
X153575518Y-129874188D01*
X153455820Y-129910498D01*
X153345506Y-129969463D01*
X153248815Y-130048815D01*
X153169463Y-130145506D01*
X153110498Y-130255820D01*
X153074188Y-130375518D01*
X153061928Y-130500000D01*
X152833147Y-130500000D01*
X152838072Y-130450000D01*
X152838072Y-129950000D01*
X152825812Y-129825518D01*
X152818071Y-129800000D01*
X152825812Y-129774482D01*
X152838072Y-129650000D01*
X152838072Y-129188072D01*
X152850000Y-129188072D01*
X152974482Y-129175812D01*
X153000000Y-129168071D01*
X153025518Y-129175812D01*
X153150000Y-129188072D01*
X153650000Y-129188072D01*
X153774482Y-129175812D01*
X153800000Y-129168071D01*
X153825518Y-129175812D01*
X153950000Y-129188072D01*
X154450000Y-129188072D01*
X154574482Y-129175812D01*
X154600000Y-129168071D01*
X154625518Y-129175812D01*
X154750000Y-129188072D01*
X155250000Y-129188072D01*
X155374482Y-129175812D01*
X155400000Y-129168071D01*
X155425518Y-129175812D01*
X155550000Y-129188072D01*
X156050000Y-129188072D01*
X156174482Y-129175812D01*
X156200000Y-129168071D01*
X156225518Y-129175812D01*
X156350000Y-129188072D01*
X156850000Y-129188072D01*
X156974482Y-129175812D01*
X157000000Y-129168071D01*
X157025518Y-129175812D01*
X157150000Y-129188072D01*
X157650000Y-129188072D01*
X157774482Y-129175812D01*
X157800000Y-129168071D01*
X157825518Y-129175812D01*
X157950000Y-129188072D01*
X158450000Y-129188072D01*
X158574482Y-129175812D01*
X158600000Y-129168071D01*
X158625518Y-129175812D01*
X158750000Y-129188072D01*
X159250000Y-129188072D01*
X159374482Y-129175812D01*
X159398418Y-129168551D01*
X159411706Y-129172905D01*
X159518250Y-129185000D01*
X159677000Y-129026250D01*
X159677000Y-129021033D01*
X159701185Y-129001185D01*
X159780537Y-128904494D01*
X159800000Y-128868082D01*
X159819463Y-128904494D01*
G37*
X159819463Y-128904494D02*
X159898815Y-129001185D01*
X159923000Y-129021033D01*
X159923000Y-129026250D01*
X160081750Y-129185000D01*
X160188294Y-129172905D01*
X160201582Y-129168551D01*
X160225518Y-129175812D01*
X160350000Y-129188072D01*
X160850000Y-129188072D01*
X160974482Y-129175812D01*
X160998418Y-129168551D01*
X161011706Y-129172905D01*
X161118250Y-129185000D01*
X161162876Y-129140374D01*
X161161928Y-129150000D01*
X161161928Y-129650000D01*
X161174188Y-129774482D01*
X161181929Y-129800000D01*
X161174188Y-129825518D01*
X161161928Y-129950000D01*
X161161928Y-130450000D01*
X161174188Y-130574482D01*
X161181929Y-130600000D01*
X161174188Y-130625518D01*
X161161928Y-130750000D01*
X161161928Y-131250000D01*
X161174188Y-131374482D01*
X161181929Y-131400000D01*
X161174188Y-131425518D01*
X161161928Y-131550000D01*
X161161928Y-132050000D01*
X161174188Y-132174482D01*
X161181929Y-132200000D01*
X161174188Y-132225518D01*
X161161928Y-132350000D01*
X161161928Y-132850000D01*
X161174188Y-132974482D01*
X161181929Y-133000000D01*
X161174188Y-133025518D01*
X161161928Y-133150000D01*
X161161928Y-133650000D01*
X161174188Y-133774482D01*
X161181929Y-133800000D01*
X161174188Y-133825518D01*
X161161928Y-133950000D01*
X161161928Y-134450000D01*
X161174188Y-134574482D01*
X161181929Y-134600000D01*
X161174188Y-134625518D01*
X161161928Y-134750000D01*
X161161928Y-135250000D01*
X161174188Y-135374482D01*
X161181929Y-135400000D01*
X161174188Y-135425518D01*
X161161928Y-135550000D01*
X161161928Y-136050000D01*
X161174188Y-136174482D01*
X161181929Y-136200000D01*
X161174188Y-136225518D01*
X161161928Y-136350000D01*
X161161928Y-136850000D01*
X161174188Y-136974482D01*
X161181929Y-137000000D01*
X161174188Y-137025518D01*
X161161928Y-137150000D01*
X161161928Y-137650000D01*
X161174188Y-137774482D01*
X161181929Y-137800000D01*
X161174188Y-137825518D01*
X161161928Y-137950000D01*
X161161928Y-138411928D01*
X161150000Y-138411928D01*
X161025518Y-138424188D01*
X161000000Y-138431929D01*
X160974482Y-138424188D01*
X160850000Y-138411928D01*
X160350000Y-138411928D01*
X160225518Y-138424188D01*
X160200000Y-138431929D01*
X160174482Y-138424188D01*
X160050000Y-138411928D01*
X159550000Y-138411928D01*
X159425518Y-138424188D01*
X159400000Y-138431929D01*
X159374482Y-138424188D01*
X159250000Y-138411928D01*
X158750000Y-138411928D01*
X158625518Y-138424188D01*
X158600000Y-138431929D01*
X158574482Y-138424188D01*
X158450000Y-138411928D01*
X157950000Y-138411928D01*
X157825518Y-138424188D01*
X157801582Y-138431449D01*
X157788294Y-138427095D01*
X157681750Y-138415000D01*
X157523000Y-138573750D01*
X157523000Y-138578967D01*
X157498815Y-138598815D01*
X157419463Y-138695506D01*
X157400000Y-138731918D01*
X157380537Y-138695506D01*
X157301185Y-138598815D01*
X157277000Y-138578967D01*
X157277000Y-138573750D01*
X157118250Y-138415000D01*
X157011706Y-138427095D01*
X156998418Y-138431449D01*
X156974482Y-138424188D01*
X156850000Y-138411928D01*
X156350000Y-138411928D01*
X156240440Y-138422718D01*
X156209975Y-138365723D01*
X156156038Y-138300000D01*
X156115002Y-138249998D01*
X156086005Y-138226201D01*
X155548805Y-137689002D01*
X155547680Y-137687631D01*
X155654494Y-137630537D01*
X155750000Y-137552158D01*
X155845506Y-137630537D01*
X155955820Y-137689502D01*
X156075518Y-137725812D01*
X156200000Y-137738072D01*
X156714250Y-137735000D01*
X156873000Y-137576250D01*
X156873000Y-136427000D01*
X157127000Y-136427000D01*
X157127000Y-137576250D01*
X157285750Y-137735000D01*
X157800000Y-137738072D01*
X157924482Y-137725812D01*
X158044180Y-137689502D01*
X158154494Y-137630537D01*
X158250000Y-137552158D01*
X158345506Y-137630537D01*
X158455820Y-137689502D01*
X158575518Y-137725812D01*
X158700000Y-137738072D01*
X159214250Y-137735000D01*
X159373000Y-137576250D01*
X159373000Y-136427000D01*
X159627000Y-136427000D01*
X159627000Y-137576250D01*
X159785750Y-137735000D01*
X160300000Y-137738072D01*
X160424482Y-137725812D01*
X160544180Y-137689502D01*
X160654494Y-137630537D01*
X160751185Y-137551185D01*
X160830537Y-137454494D01*
X160889502Y-137344180D01*
X160925812Y-137224482D01*
X160938072Y-137100000D01*
X160935000Y-136585750D01*
X160776250Y-136427000D01*
X159627000Y-136427000D01*
X159373000Y-136427000D01*
X157127000Y-136427000D01*
X156873000Y-136427000D01*
X154627000Y-136427000D01*
X154627000Y-136447000D01*
X154373000Y-136447000D01*
X154373000Y-136427000D01*
X153223750Y-136427000D01*
X153065000Y-136585750D01*
X153061928Y-137100000D01*
X153074188Y-137224482D01*
X153110498Y-137344180D01*
X153161716Y-137440000D01*
X152838072Y-137440000D01*
X152838072Y-137150000D01*
X152825812Y-137025518D01*
X152818071Y-137000000D01*
X152825812Y-136974482D01*
X152838072Y-136850000D01*
X152838072Y-136350000D01*
X152825812Y-136225518D01*
X152818071Y-136200000D01*
X152825812Y-136174482D01*
X152838072Y-136050000D01*
X152838072Y-135550000D01*
X152825812Y-135425518D01*
X152818551Y-135401582D01*
X152822905Y-135388294D01*
X152835000Y-135281750D01*
X152676250Y-135123000D01*
X152671033Y-135123000D01*
X152651185Y-135098815D01*
X152554494Y-135019463D01*
X152518082Y-135000000D01*
X152554494Y-134980537D01*
X152651185Y-134901185D01*
X152671033Y-134877000D01*
X152676250Y-134877000D01*
X152835000Y-134718250D01*
X152822905Y-134611706D01*
X152819070Y-134600000D01*
X153061928Y-134600000D01*
X153074188Y-134724482D01*
X153110498Y-134844180D01*
X153169463Y-134954494D01*
X153247842Y-135050000D01*
X153169463Y-135145506D01*
X153110498Y-135255820D01*
X153074188Y-135375518D01*
X153061928Y-135500000D01*
X153065000Y-136014250D01*
X153223750Y-136173000D01*
X154373000Y-136173000D01*
X154373000Y-133927000D01*
X154627000Y-133927000D01*
X154627000Y-136173000D01*
X156873000Y-136173000D01*
X156873000Y-133927000D01*
X157127000Y-133927000D01*
X157127000Y-136173000D01*
X159373000Y-136173000D01*
X159373000Y-133927000D01*
X159627000Y-133927000D01*
X159627000Y-136173000D01*
X160776250Y-136173000D01*
X160935000Y-136014250D01*
X160938072Y-135500000D01*
X160925812Y-135375518D01*
X160889502Y-135255820D01*
X160830537Y-135145506D01*
X160752158Y-135050000D01*
X160830537Y-134954494D01*
X160889502Y-134844180D01*
X160925812Y-134724482D01*
X160938072Y-134600000D01*
X160935000Y-134085750D01*
X160776250Y-133927000D01*
X159627000Y-133927000D01*
X159373000Y-133927000D01*
X157127000Y-133927000D01*
X156873000Y-133927000D01*
X154627000Y-133927000D01*
X154373000Y-133927000D01*
X153223750Y-133927000D01*
X153065000Y-134085750D01*
X153061928Y-134600000D01*
X152819070Y-134600000D01*
X152818551Y-134598418D01*
X152825812Y-134574482D01*
X152838072Y-134450000D01*
X152838072Y-133950000D01*
X152825812Y-133825518D01*
X152818071Y-133800000D01*
X152825812Y-133774482D01*
X152838072Y-133650000D01*
X152838072Y-133150000D01*
X152825812Y-133025518D01*
X152818071Y-133000000D01*
X152825812Y-132974482D01*
X152838072Y-132850000D01*
X152838072Y-132350000D01*
X152825812Y-132225518D01*
X152818071Y-132200000D01*
X152825812Y-132174482D01*
X152833147Y-132100000D01*
X153061928Y-132100000D01*
X153074188Y-132224482D01*
X153110498Y-132344180D01*
X153169463Y-132454494D01*
X153247842Y-132550000D01*
X153169463Y-132645506D01*
X153110498Y-132755820D01*
X153074188Y-132875518D01*
X153061928Y-133000000D01*
X153065000Y-133514250D01*
X153223750Y-133673000D01*
X154373000Y-133673000D01*
X154373000Y-131427000D01*
X154627000Y-131427000D01*
X154627000Y-133673000D01*
X156873000Y-133673000D01*
X156873000Y-131427000D01*
X157127000Y-131427000D01*
X157127000Y-133673000D01*
X159373000Y-133673000D01*
X159373000Y-131427000D01*
X159627000Y-131427000D01*
X159627000Y-133673000D01*
X160776250Y-133673000D01*
X160935000Y-133514250D01*
X160938072Y-133000000D01*
X160925812Y-132875518D01*
X160889502Y-132755820D01*
X160830537Y-132645506D01*
X160752158Y-132550000D01*
X160830537Y-132454494D01*
X160889502Y-132344180D01*
X160925812Y-132224482D01*
X160938072Y-132100000D01*
X160935000Y-131585750D01*
X160776250Y-131427000D01*
X159627000Y-131427000D01*
X159373000Y-131427000D01*
X157127000Y-131427000D01*
X156873000Y-131427000D01*
X154627000Y-131427000D01*
X154373000Y-131427000D01*
X153223750Y-131427000D01*
X153065000Y-131585750D01*
X153061928Y-132100000D01*
X152833147Y-132100000D01*
X152838072Y-132050000D01*
X152838072Y-131550000D01*
X152825812Y-131425518D01*
X152818071Y-131400000D01*
X152825812Y-131374482D01*
X152838072Y-131250000D01*
X152838072Y-130750000D01*
X152825812Y-130625518D01*
X152818071Y-130600000D01*
X152825812Y-130574482D01*
X152833147Y-130500000D01*
X153061928Y-130500000D01*
X153065000Y-131014250D01*
X153223750Y-131173000D01*
X154373000Y-131173000D01*
X154373000Y-130023750D01*
X154627000Y-130023750D01*
X154627000Y-131173000D01*
X156873000Y-131173000D01*
X156873000Y-130023750D01*
X157127000Y-130023750D01*
X157127000Y-131173000D01*
X159373000Y-131173000D01*
X159373000Y-130023750D01*
X159627000Y-130023750D01*
X159627000Y-131173000D01*
X160776250Y-131173000D01*
X160935000Y-131014250D01*
X160938072Y-130500000D01*
X160925812Y-130375518D01*
X160889502Y-130255820D01*
X160830537Y-130145506D01*
X160751185Y-130048815D01*
X160654494Y-129969463D01*
X160544180Y-129910498D01*
X160424482Y-129874188D01*
X160300000Y-129861928D01*
X159785750Y-129865000D01*
X159627000Y-130023750D01*
X159373000Y-130023750D01*
X159214250Y-129865000D01*
X158700000Y-129861928D01*
X158575518Y-129874188D01*
X158455820Y-129910498D01*
X158345506Y-129969463D01*
X158250000Y-130047842D01*
X158154494Y-129969463D01*
X158044180Y-129910498D01*
X157924482Y-129874188D01*
X157800000Y-129861928D01*
X157285750Y-129865000D01*
X157127000Y-130023750D01*
X156873000Y-130023750D01*
X156714250Y-129865000D01*
X156200000Y-129861928D01*
X156075518Y-129874188D01*
X155955820Y-129910498D01*
X155845506Y-129969463D01*
X155750000Y-130047842D01*
X155654494Y-129969463D01*
X155544180Y-129910498D01*
X155424482Y-129874188D01*
X155300000Y-129861928D01*
X154785750Y-129865000D01*
X154627000Y-130023750D01*
X154373000Y-130023750D01*
X154214250Y-129865000D01*
X153700000Y-129861928D01*
X153575518Y-129874188D01*
X153455820Y-129910498D01*
X153345506Y-129969463D01*
X153248815Y-130048815D01*
X153169463Y-130145506D01*
X153110498Y-130255820D01*
X153074188Y-130375518D01*
X153061928Y-130500000D01*
X152833147Y-130500000D01*
X152838072Y-130450000D01*
X152838072Y-129950000D01*
X152825812Y-129825518D01*
X152818071Y-129800000D01*
X152825812Y-129774482D01*
X152838072Y-129650000D01*
X152838072Y-129188072D01*
X152850000Y-129188072D01*
X152974482Y-129175812D01*
X153000000Y-129168071D01*
X153025518Y-129175812D01*
X153150000Y-129188072D01*
X153650000Y-129188072D01*
X153774482Y-129175812D01*
X153800000Y-129168071D01*
X153825518Y-129175812D01*
X153950000Y-129188072D01*
X154450000Y-129188072D01*
X154574482Y-129175812D01*
X154600000Y-129168071D01*
X154625518Y-129175812D01*
X154750000Y-129188072D01*
X155250000Y-129188072D01*
X155374482Y-129175812D01*
X155400000Y-129168071D01*
X155425518Y-129175812D01*
X155550000Y-129188072D01*
X156050000Y-129188072D01*
X156174482Y-129175812D01*
X156200000Y-129168071D01*
X156225518Y-129175812D01*
X156350000Y-129188072D01*
X156850000Y-129188072D01*
X156974482Y-129175812D01*
X157000000Y-129168071D01*
X157025518Y-129175812D01*
X157150000Y-129188072D01*
X157650000Y-129188072D01*
X157774482Y-129175812D01*
X157800000Y-129168071D01*
X157825518Y-129175812D01*
X157950000Y-129188072D01*
X158450000Y-129188072D01*
X158574482Y-129175812D01*
X158600000Y-129168071D01*
X158625518Y-129175812D01*
X158750000Y-129188072D01*
X159250000Y-129188072D01*
X159374482Y-129175812D01*
X159398418Y-129168551D01*
X159411706Y-129172905D01*
X159518250Y-129185000D01*
X159677000Y-129026250D01*
X159677000Y-129021033D01*
X159701185Y-129001185D01*
X159780537Y-128904494D01*
X159800000Y-128868082D01*
X159819463Y-128904494D01*
G36*
X147352000Y-130373000D02*
G01*
X147372000Y-130373000D01*
X147372000Y-130627000D01*
X147352000Y-130627000D01*
X147352000Y-131676250D01*
X147510750Y-131835000D01*
X147800000Y-131838072D01*
X147924482Y-131825812D01*
X148044180Y-131789502D01*
X148154494Y-131730537D01*
X148251185Y-131651185D01*
X148330537Y-131554494D01*
X148389502Y-131444180D01*
X148425812Y-131324482D01*
X148438072Y-131200000D01*
X148435927Y-130910729D01*
X148714999Y-131189801D01*
X148715000Y-131887489D01*
X148601939Y-131865000D01*
X148398061Y-131865000D01*
X148198102Y-131904774D01*
X148009744Y-131982795D01*
X147840226Y-132096063D01*
X147696063Y-132240226D01*
X147582795Y-132409744D01*
X147504774Y-132598102D01*
X147465000Y-132798061D01*
X147465000Y-132891655D01*
X147423255Y-132878992D01*
X147250001Y-132861928D01*
X146599999Y-132861928D01*
X146426745Y-132878992D01*
X146260149Y-132929528D01*
X146106613Y-133011595D01*
X145972038Y-133122038D01*
X145966658Y-133128594D01*
X145923239Y-133075688D01*
X145995226Y-132901898D01*
X146035000Y-132701939D01*
X146035000Y-132498061D01*
X145995226Y-132298102D01*
X145935000Y-132152705D01*
X145935000Y-131719614D01*
X145993387Y-131688405D01*
X146127962Y-131577962D01*
X146133342Y-131571406D01*
X146198815Y-131651185D01*
X146295506Y-131730537D01*
X146405820Y-131789502D01*
X146525518Y-131825812D01*
X146650000Y-131838072D01*
X146939250Y-131835000D01*
X147098000Y-131676250D01*
X147098000Y-130627000D01*
X147078000Y-130627000D01*
X147078000Y-130373000D01*
X147098000Y-130373000D01*
X147098000Y-130353000D01*
X147352000Y-130353000D01*
X147352000Y-130373000D01*
G37*
X147352000Y-130373000D02*
X147372000Y-130373000D01*
X147372000Y-130627000D01*
X147352000Y-130627000D01*
X147352000Y-131676250D01*
X147510750Y-131835000D01*
X147800000Y-131838072D01*
X147924482Y-131825812D01*
X148044180Y-131789502D01*
X148154494Y-131730537D01*
X148251185Y-131651185D01*
X148330537Y-131554494D01*
X148389502Y-131444180D01*
X148425812Y-131324482D01*
X148438072Y-131200000D01*
X148435927Y-130910729D01*
X148714999Y-131189801D01*
X148715000Y-131887489D01*
X148601939Y-131865000D01*
X148398061Y-131865000D01*
X148198102Y-131904774D01*
X148009744Y-131982795D01*
X147840226Y-132096063D01*
X147696063Y-132240226D01*
X147582795Y-132409744D01*
X147504774Y-132598102D01*
X147465000Y-132798061D01*
X147465000Y-132891655D01*
X147423255Y-132878992D01*
X147250001Y-132861928D01*
X146599999Y-132861928D01*
X146426745Y-132878992D01*
X146260149Y-132929528D01*
X146106613Y-133011595D01*
X145972038Y-133122038D01*
X145966658Y-133128594D01*
X145923239Y-133075688D01*
X145995226Y-132901898D01*
X146035000Y-132701939D01*
X146035000Y-132498061D01*
X145995226Y-132298102D01*
X145935000Y-132152705D01*
X145935000Y-131719614D01*
X145993387Y-131688405D01*
X146127962Y-131577962D01*
X146133342Y-131571406D01*
X146198815Y-131651185D01*
X146295506Y-131730537D01*
X146405820Y-131789502D01*
X146525518Y-131825812D01*
X146650000Y-131838072D01*
X146939250Y-131835000D01*
X147098000Y-131676250D01*
X147098000Y-130627000D01*
X147078000Y-130627000D01*
X147078000Y-130373000D01*
X147098000Y-130373000D01*
X147098000Y-130353000D01*
X147352000Y-130353000D01*
X147352000Y-130373000D01*
G36*
X138293368Y-123553475D02*
G01*
X138536589Y-123715990D01*
X138806842Y-123827932D01*
X139093740Y-123885000D01*
X139386260Y-123885000D01*
X139606408Y-123841209D01*
X143776201Y-128011003D01*
X143799999Y-128040001D01*
X143915724Y-128134974D01*
X144047753Y-128205546D01*
X144191014Y-128249003D01*
X144295592Y-128259303D01*
X144340226Y-128303937D01*
X144509744Y-128417205D01*
X144629433Y-128466782D01*
X144611202Y-128488997D01*
X144611201Y-128488998D01*
X144540026Y-128575724D01*
X144469454Y-128707754D01*
X144447212Y-128781080D01*
X144425998Y-128851014D01*
X144420731Y-128904494D01*
X144411324Y-129000000D01*
X144415001Y-129037332D01*
X144415001Y-129280386D01*
X144356613Y-129311595D01*
X144222038Y-129422038D01*
X144111595Y-129556613D01*
X144085652Y-129605149D01*
X144088072Y-129200000D01*
X144075812Y-129075518D01*
X144039502Y-128955820D01*
X143980537Y-128845506D01*
X143901185Y-128748815D01*
X143804494Y-128669463D01*
X143694180Y-128610498D01*
X143574482Y-128574188D01*
X143450000Y-128561928D01*
X141985750Y-128565000D01*
X141827000Y-128723750D01*
X141827000Y-129873000D01*
X141847000Y-129873000D01*
X141847000Y-130127000D01*
X141827000Y-130127000D01*
X141827000Y-130147000D01*
X141573000Y-130147000D01*
X141573000Y-130127000D01*
X139473750Y-130127000D01*
X139315000Y-130285750D01*
X139314527Y-130365010D01*
X138688072Y-130365010D01*
X138688072Y-129450000D01*
X138671008Y-129276746D01*
X138647728Y-129200000D01*
X139311928Y-129200000D01*
X139315000Y-129714250D01*
X139473750Y-129873000D01*
X141573000Y-129873000D01*
X141573000Y-128723750D01*
X141414250Y-128565000D01*
X139950000Y-128561928D01*
X139825518Y-128574188D01*
X139705820Y-128610498D01*
X139595506Y-128669463D01*
X139498815Y-128748815D01*
X139419463Y-128845506D01*
X139360498Y-128955820D01*
X139324188Y-129075518D01*
X139311928Y-129200000D01*
X138647728Y-129200000D01*
X138620472Y-129110150D01*
X138538405Y-128956614D01*
X138427962Y-128822038D01*
X138293386Y-128711595D01*
X138139850Y-128629528D01*
X137973254Y-128578992D01*
X137800000Y-128561928D01*
X137460000Y-128561928D01*
X137460000Y-123888072D01*
X137550000Y-123888072D01*
X137674482Y-123875812D01*
X137794180Y-123839502D01*
X137904494Y-123780537D01*
X138001185Y-123701185D01*
X138080537Y-123604494D01*
X138139502Y-123494180D01*
X138161513Y-123421620D01*
X138293368Y-123553475D01*
G37*
X138293368Y-123553475D02*
X138536589Y-123715990D01*
X138806842Y-123827932D01*
X139093740Y-123885000D01*
X139386260Y-123885000D01*
X139606408Y-123841209D01*
X143776201Y-128011003D01*
X143799999Y-128040001D01*
X143915724Y-128134974D01*
X144047753Y-128205546D01*
X144191014Y-128249003D01*
X144295592Y-128259303D01*
X144340226Y-128303937D01*
X144509744Y-128417205D01*
X144629433Y-128466782D01*
X144611202Y-128488997D01*
X144611201Y-128488998D01*
X144540026Y-128575724D01*
X144469454Y-128707754D01*
X144447212Y-128781080D01*
X144425998Y-128851014D01*
X144420731Y-128904494D01*
X144411324Y-129000000D01*
X144415001Y-129037332D01*
X144415001Y-129280386D01*
X144356613Y-129311595D01*
X144222038Y-129422038D01*
X144111595Y-129556613D01*
X144085652Y-129605149D01*
X144088072Y-129200000D01*
X144075812Y-129075518D01*
X144039502Y-128955820D01*
X143980537Y-128845506D01*
X143901185Y-128748815D01*
X143804494Y-128669463D01*
X143694180Y-128610498D01*
X143574482Y-128574188D01*
X143450000Y-128561928D01*
X141985750Y-128565000D01*
X141827000Y-128723750D01*
X141827000Y-129873000D01*
X141847000Y-129873000D01*
X141847000Y-130127000D01*
X141827000Y-130127000D01*
X141827000Y-130147000D01*
X141573000Y-130147000D01*
X141573000Y-130127000D01*
X139473750Y-130127000D01*
X139315000Y-130285750D01*
X139314527Y-130365010D01*
X138688072Y-130365010D01*
X138688072Y-129450000D01*
X138671008Y-129276746D01*
X138647728Y-129200000D01*
X139311928Y-129200000D01*
X139315000Y-129714250D01*
X139473750Y-129873000D01*
X141573000Y-129873000D01*
X141573000Y-128723750D01*
X141414250Y-128565000D01*
X139950000Y-128561928D01*
X139825518Y-128574188D01*
X139705820Y-128610498D01*
X139595506Y-128669463D01*
X139498815Y-128748815D01*
X139419463Y-128845506D01*
X139360498Y-128955820D01*
X139324188Y-129075518D01*
X139311928Y-129200000D01*
X138647728Y-129200000D01*
X138620472Y-129110150D01*
X138538405Y-128956614D01*
X138427962Y-128822038D01*
X138293386Y-128711595D01*
X138139850Y-128629528D01*
X137973254Y-128578992D01*
X137800000Y-128561928D01*
X137460000Y-128561928D01*
X137460000Y-123888072D01*
X137550000Y-123888072D01*
X137674482Y-123875812D01*
X137794180Y-123839502D01*
X137904494Y-123780537D01*
X138001185Y-123701185D01*
X138080537Y-123604494D01*
X138139502Y-123494180D01*
X138161513Y-123421620D01*
X138293368Y-123553475D01*
M02*
