G04 #@! TF.GenerationSoftware,KiCad,Pcbnew,5.1.5-52549c5~84~ubuntu18.04.1*
G04 #@! TF.CreationDate,2020-02-05T12:35:19+01:00*
G04 #@! TF.ProjectId,Lab1,4c616231-2e6b-4696-9361-645f70636258,rev?*
G04 #@! TF.SameCoordinates,Original*
G04 #@! TF.FileFunction,Copper,L2,Bot*
G04 #@! TF.FilePolarity,Positive*
%FSLAX46Y46*%
G04 Gerber Fmt 4.6, Leading zero omitted, Abs format (unit mm)*
G04 Created by KiCad (PCBNEW 5.1.5-52549c5~84~ubuntu18.04.1) date 2020-02-05 12:35:19*
%MOMM*%
%LPD*%
G04 APERTURE LIST*
%ADD10R,1.700000X1.700000*%
%ADD11O,1.700000X1.700000*%
%ADD12C,0.800000*%
%ADD13C,0.250000*%
%ADD14C,0.254000*%
G04 APERTURE END LIST*
D10*
X136700000Y-122400000D03*
D11*
X139240000Y-122400000D03*
X141780000Y-122400000D03*
X144320000Y-122400000D03*
X146860000Y-122400000D03*
D12*
X145000000Y-132600000D03*
X145000000Y-135900000D03*
X157000000Y-122500000D03*
X169400000Y-120900000D03*
X159900000Y-145400000D03*
X164200000Y-146700000D03*
X145000000Y-127500000D03*
X147300000Y-128700000D03*
X146200000Y-126300000D03*
X148500000Y-132900000D03*
X149300000Y-123200000D03*
X151000000Y-124400000D03*
D13*
X145000000Y-132600000D02*
X145000000Y-135900000D01*
X157000000Y-122500000D02*
X158600000Y-120900000D01*
X158600000Y-120900000D02*
X169400000Y-120900000D01*
X159900000Y-145400000D02*
X161200000Y-146700000D01*
X161200000Y-146700000D02*
X164200000Y-146700000D01*
X145000000Y-127500000D02*
X146100000Y-127500000D01*
X146100000Y-127500000D02*
X147300000Y-128700000D01*
X146200000Y-126300000D02*
X148500000Y-128600000D01*
X148500000Y-128600000D02*
X148500000Y-132900000D01*
X149300000Y-123200000D02*
X149800000Y-123200000D01*
X149800000Y-123200000D02*
X151000000Y-124400000D01*
D14*
G36*
X173340001Y-148340000D02*
G01*
X134660000Y-148340000D01*
X134660000Y-145298061D01*
X158865000Y-145298061D01*
X158865000Y-145501939D01*
X158904774Y-145701898D01*
X158982795Y-145890256D01*
X159096063Y-146059774D01*
X159240226Y-146203937D01*
X159409744Y-146317205D01*
X159598102Y-146395226D01*
X159798061Y-146435000D01*
X159860199Y-146435000D01*
X160636201Y-147211003D01*
X160659999Y-147240001D01*
X160775724Y-147334974D01*
X160907753Y-147405546D01*
X161051014Y-147449003D01*
X161162667Y-147460000D01*
X161162675Y-147460000D01*
X161200000Y-147463676D01*
X161237325Y-147460000D01*
X163496289Y-147460000D01*
X163540226Y-147503937D01*
X163709744Y-147617205D01*
X163898102Y-147695226D01*
X164098061Y-147735000D01*
X164301939Y-147735000D01*
X164501898Y-147695226D01*
X164690256Y-147617205D01*
X164859774Y-147503937D01*
X165003937Y-147359774D01*
X165117205Y-147190256D01*
X165195226Y-147001898D01*
X165235000Y-146801939D01*
X165235000Y-146598061D01*
X165195226Y-146398102D01*
X165117205Y-146209744D01*
X165003937Y-146040226D01*
X164859774Y-145896063D01*
X164690256Y-145782795D01*
X164501898Y-145704774D01*
X164301939Y-145665000D01*
X164098061Y-145665000D01*
X163898102Y-145704774D01*
X163709744Y-145782795D01*
X163540226Y-145896063D01*
X163496289Y-145940000D01*
X161514802Y-145940000D01*
X160935000Y-145360199D01*
X160935000Y-145298061D01*
X160895226Y-145098102D01*
X160817205Y-144909744D01*
X160703937Y-144740226D01*
X160559774Y-144596063D01*
X160390256Y-144482795D01*
X160201898Y-144404774D01*
X160001939Y-144365000D01*
X159798061Y-144365000D01*
X159598102Y-144404774D01*
X159409744Y-144482795D01*
X159240226Y-144596063D01*
X159096063Y-144740226D01*
X158982795Y-144909744D01*
X158904774Y-145098102D01*
X158865000Y-145298061D01*
X134660000Y-145298061D01*
X134660000Y-132498061D01*
X143965000Y-132498061D01*
X143965000Y-132701939D01*
X144004774Y-132901898D01*
X144082795Y-133090256D01*
X144196063Y-133259774D01*
X144240000Y-133303711D01*
X144240001Y-135196288D01*
X144196063Y-135240226D01*
X144082795Y-135409744D01*
X144004774Y-135598102D01*
X143965000Y-135798061D01*
X143965000Y-136001939D01*
X144004774Y-136201898D01*
X144082795Y-136390256D01*
X144196063Y-136559774D01*
X144340226Y-136703937D01*
X144509744Y-136817205D01*
X144698102Y-136895226D01*
X144898061Y-136935000D01*
X145101939Y-136935000D01*
X145301898Y-136895226D01*
X145490256Y-136817205D01*
X145659774Y-136703937D01*
X145803937Y-136559774D01*
X145917205Y-136390256D01*
X145995226Y-136201898D01*
X146035000Y-136001939D01*
X146035000Y-135798061D01*
X145995226Y-135598102D01*
X145917205Y-135409744D01*
X145803937Y-135240226D01*
X145760000Y-135196289D01*
X145760000Y-133303711D01*
X145803937Y-133259774D01*
X145917205Y-133090256D01*
X145995226Y-132901898D01*
X146035000Y-132701939D01*
X146035000Y-132498061D01*
X145995226Y-132298102D01*
X145917205Y-132109744D01*
X145803937Y-131940226D01*
X145659774Y-131796063D01*
X145490256Y-131682795D01*
X145301898Y-131604774D01*
X145101939Y-131565000D01*
X144898061Y-131565000D01*
X144698102Y-131604774D01*
X144509744Y-131682795D01*
X144340226Y-131796063D01*
X144196063Y-131940226D01*
X144082795Y-132109744D01*
X144004774Y-132298102D01*
X143965000Y-132498061D01*
X134660000Y-132498061D01*
X134660000Y-127398061D01*
X143965000Y-127398061D01*
X143965000Y-127601939D01*
X144004774Y-127801898D01*
X144082795Y-127990256D01*
X144196063Y-128159774D01*
X144340226Y-128303937D01*
X144509744Y-128417205D01*
X144698102Y-128495226D01*
X144898061Y-128535000D01*
X145101939Y-128535000D01*
X145301898Y-128495226D01*
X145490256Y-128417205D01*
X145659774Y-128303937D01*
X145703711Y-128260000D01*
X145785199Y-128260000D01*
X146265000Y-128739802D01*
X146265000Y-128801939D01*
X146304774Y-129001898D01*
X146382795Y-129190256D01*
X146496063Y-129359774D01*
X146640226Y-129503937D01*
X146809744Y-129617205D01*
X146998102Y-129695226D01*
X147198061Y-129735000D01*
X147401939Y-129735000D01*
X147601898Y-129695226D01*
X147740000Y-129638022D01*
X147740001Y-132196288D01*
X147696063Y-132240226D01*
X147582795Y-132409744D01*
X147504774Y-132598102D01*
X147465000Y-132798061D01*
X147465000Y-133001939D01*
X147504774Y-133201898D01*
X147582795Y-133390256D01*
X147696063Y-133559774D01*
X147840226Y-133703937D01*
X148009744Y-133817205D01*
X148198102Y-133895226D01*
X148398061Y-133935000D01*
X148601939Y-133935000D01*
X148801898Y-133895226D01*
X148990256Y-133817205D01*
X149159774Y-133703937D01*
X149303937Y-133559774D01*
X149417205Y-133390256D01*
X149495226Y-133201898D01*
X149535000Y-133001939D01*
X149535000Y-132798061D01*
X149495226Y-132598102D01*
X149417205Y-132409744D01*
X149303937Y-132240226D01*
X149260000Y-132196289D01*
X149260000Y-128637322D01*
X149263676Y-128599999D01*
X149260000Y-128562676D01*
X149260000Y-128562667D01*
X149249003Y-128451014D01*
X149205546Y-128307753D01*
X149134974Y-128175724D01*
X149040001Y-128059999D01*
X149011004Y-128036202D01*
X147235000Y-126260199D01*
X147235000Y-126198061D01*
X147195226Y-125998102D01*
X147117205Y-125809744D01*
X147003937Y-125640226D01*
X146859774Y-125496063D01*
X146690256Y-125382795D01*
X146501898Y-125304774D01*
X146301939Y-125265000D01*
X146098061Y-125265000D01*
X145898102Y-125304774D01*
X145709744Y-125382795D01*
X145540226Y-125496063D01*
X145396063Y-125640226D01*
X145282795Y-125809744D01*
X145204774Y-125998102D01*
X145165000Y-126198061D01*
X145165000Y-126401939D01*
X145180658Y-126480658D01*
X145101939Y-126465000D01*
X144898061Y-126465000D01*
X144698102Y-126504774D01*
X144509744Y-126582795D01*
X144340226Y-126696063D01*
X144196063Y-126840226D01*
X144082795Y-127009744D01*
X144004774Y-127198102D01*
X143965000Y-127398061D01*
X134660000Y-127398061D01*
X134660000Y-121550000D01*
X135211928Y-121550000D01*
X135211928Y-123250000D01*
X135224188Y-123374482D01*
X135260498Y-123494180D01*
X135319463Y-123604494D01*
X135398815Y-123701185D01*
X135495506Y-123780537D01*
X135605820Y-123839502D01*
X135725518Y-123875812D01*
X135850000Y-123888072D01*
X137550000Y-123888072D01*
X137674482Y-123875812D01*
X137794180Y-123839502D01*
X137904494Y-123780537D01*
X138001185Y-123701185D01*
X138080537Y-123604494D01*
X138139502Y-123494180D01*
X138161513Y-123421620D01*
X138293368Y-123553475D01*
X138536589Y-123715990D01*
X138806842Y-123827932D01*
X139093740Y-123885000D01*
X139386260Y-123885000D01*
X139673158Y-123827932D01*
X139943411Y-123715990D01*
X140186632Y-123553475D01*
X140393475Y-123346632D01*
X140515195Y-123164466D01*
X140584822Y-123281355D01*
X140779731Y-123497588D01*
X141013080Y-123671641D01*
X141275901Y-123796825D01*
X141423110Y-123841476D01*
X141653000Y-123720155D01*
X141653000Y-122527000D01*
X141633000Y-122527000D01*
X141633000Y-122273000D01*
X141653000Y-122273000D01*
X141653000Y-121079845D01*
X141907000Y-121079845D01*
X141907000Y-122273000D01*
X141927000Y-122273000D01*
X141927000Y-122527000D01*
X141907000Y-122527000D01*
X141907000Y-123720155D01*
X142136890Y-123841476D01*
X142284099Y-123796825D01*
X142546920Y-123671641D01*
X142780269Y-123497588D01*
X142975178Y-123281355D01*
X143044805Y-123164466D01*
X143166525Y-123346632D01*
X143373368Y-123553475D01*
X143616589Y-123715990D01*
X143886842Y-123827932D01*
X144173740Y-123885000D01*
X144466260Y-123885000D01*
X144753158Y-123827932D01*
X145023411Y-123715990D01*
X145266632Y-123553475D01*
X145473475Y-123346632D01*
X145590000Y-123172240D01*
X145706525Y-123346632D01*
X145913368Y-123553475D01*
X146156589Y-123715990D01*
X146426842Y-123827932D01*
X146713740Y-123885000D01*
X147006260Y-123885000D01*
X147293158Y-123827932D01*
X147563411Y-123715990D01*
X147806632Y-123553475D01*
X148013475Y-123346632D01*
X148175990Y-123103411D01*
X148178206Y-123098061D01*
X148265000Y-123098061D01*
X148265000Y-123301939D01*
X148304774Y-123501898D01*
X148382795Y-123690256D01*
X148496063Y-123859774D01*
X148640226Y-124003937D01*
X148809744Y-124117205D01*
X148998102Y-124195226D01*
X149198061Y-124235000D01*
X149401939Y-124235000D01*
X149601898Y-124195226D01*
X149685709Y-124160510D01*
X149965000Y-124439802D01*
X149965000Y-124501939D01*
X150004774Y-124701898D01*
X150082795Y-124890256D01*
X150196063Y-125059774D01*
X150340226Y-125203937D01*
X150509744Y-125317205D01*
X150698102Y-125395226D01*
X150898061Y-125435000D01*
X151101939Y-125435000D01*
X151301898Y-125395226D01*
X151490256Y-125317205D01*
X151659774Y-125203937D01*
X151803937Y-125059774D01*
X151917205Y-124890256D01*
X151995226Y-124701898D01*
X152035000Y-124501939D01*
X152035000Y-124298061D01*
X151995226Y-124098102D01*
X151917205Y-123909744D01*
X151803937Y-123740226D01*
X151659774Y-123596063D01*
X151490256Y-123482795D01*
X151301898Y-123404774D01*
X151101939Y-123365000D01*
X151039802Y-123365000D01*
X150363804Y-122689003D01*
X150340001Y-122659999D01*
X150224276Y-122565026D01*
X150092247Y-122494454D01*
X150043325Y-122479614D01*
X149961772Y-122398061D01*
X155965000Y-122398061D01*
X155965000Y-122601939D01*
X156004774Y-122801898D01*
X156082795Y-122990256D01*
X156196063Y-123159774D01*
X156340226Y-123303937D01*
X156509744Y-123417205D01*
X156698102Y-123495226D01*
X156898061Y-123535000D01*
X157101939Y-123535000D01*
X157301898Y-123495226D01*
X157490256Y-123417205D01*
X157659774Y-123303937D01*
X157803937Y-123159774D01*
X157917205Y-122990256D01*
X157995226Y-122801898D01*
X158035000Y-122601939D01*
X158035000Y-122539801D01*
X158914802Y-121660000D01*
X168696289Y-121660000D01*
X168740226Y-121703937D01*
X168909744Y-121817205D01*
X169098102Y-121895226D01*
X169298061Y-121935000D01*
X169501939Y-121935000D01*
X169701898Y-121895226D01*
X169890256Y-121817205D01*
X170059774Y-121703937D01*
X170203937Y-121559774D01*
X170317205Y-121390256D01*
X170395226Y-121201898D01*
X170435000Y-121001939D01*
X170435000Y-120798061D01*
X170395226Y-120598102D01*
X170317205Y-120409744D01*
X170203937Y-120240226D01*
X170059774Y-120096063D01*
X169890256Y-119982795D01*
X169701898Y-119904774D01*
X169501939Y-119865000D01*
X169298061Y-119865000D01*
X169098102Y-119904774D01*
X168909744Y-119982795D01*
X168740226Y-120096063D01*
X168696289Y-120140000D01*
X158637325Y-120140000D01*
X158600000Y-120136324D01*
X158562675Y-120140000D01*
X158562667Y-120140000D01*
X158451014Y-120150997D01*
X158307753Y-120194454D01*
X158175724Y-120265026D01*
X158059999Y-120359999D01*
X158036201Y-120388997D01*
X156960199Y-121465000D01*
X156898061Y-121465000D01*
X156698102Y-121504774D01*
X156509744Y-121582795D01*
X156340226Y-121696063D01*
X156196063Y-121840226D01*
X156082795Y-122009744D01*
X156004774Y-122198102D01*
X155965000Y-122398061D01*
X149961772Y-122398061D01*
X149959774Y-122396063D01*
X149790256Y-122282795D01*
X149601898Y-122204774D01*
X149401939Y-122165000D01*
X149198061Y-122165000D01*
X148998102Y-122204774D01*
X148809744Y-122282795D01*
X148640226Y-122396063D01*
X148496063Y-122540226D01*
X148382795Y-122709744D01*
X148304774Y-122898102D01*
X148265000Y-123098061D01*
X148178206Y-123098061D01*
X148287932Y-122833158D01*
X148345000Y-122546260D01*
X148345000Y-122253740D01*
X148287932Y-121966842D01*
X148175990Y-121696589D01*
X148013475Y-121453368D01*
X147806632Y-121246525D01*
X147563411Y-121084010D01*
X147293158Y-120972068D01*
X147006260Y-120915000D01*
X146713740Y-120915000D01*
X146426842Y-120972068D01*
X146156589Y-121084010D01*
X145913368Y-121246525D01*
X145706525Y-121453368D01*
X145590000Y-121627760D01*
X145473475Y-121453368D01*
X145266632Y-121246525D01*
X145023411Y-121084010D01*
X144753158Y-120972068D01*
X144466260Y-120915000D01*
X144173740Y-120915000D01*
X143886842Y-120972068D01*
X143616589Y-121084010D01*
X143373368Y-121246525D01*
X143166525Y-121453368D01*
X143044805Y-121635534D01*
X142975178Y-121518645D01*
X142780269Y-121302412D01*
X142546920Y-121128359D01*
X142284099Y-121003175D01*
X142136890Y-120958524D01*
X141907000Y-121079845D01*
X141653000Y-121079845D01*
X141423110Y-120958524D01*
X141275901Y-121003175D01*
X141013080Y-121128359D01*
X140779731Y-121302412D01*
X140584822Y-121518645D01*
X140515195Y-121635534D01*
X140393475Y-121453368D01*
X140186632Y-121246525D01*
X139943411Y-121084010D01*
X139673158Y-120972068D01*
X139386260Y-120915000D01*
X139093740Y-120915000D01*
X138806842Y-120972068D01*
X138536589Y-121084010D01*
X138293368Y-121246525D01*
X138161513Y-121378380D01*
X138139502Y-121305820D01*
X138080537Y-121195506D01*
X138001185Y-121098815D01*
X137904494Y-121019463D01*
X137794180Y-120960498D01*
X137674482Y-120924188D01*
X137550000Y-120911928D01*
X135850000Y-120911928D01*
X135725518Y-120924188D01*
X135605820Y-120960498D01*
X135495506Y-121019463D01*
X135398815Y-121098815D01*
X135319463Y-121195506D01*
X135260498Y-121305820D01*
X135224188Y-121425518D01*
X135211928Y-121550000D01*
X134660000Y-121550000D01*
X134660000Y-115693137D01*
X164015000Y-115693137D01*
X164015000Y-115906863D01*
X164056696Y-116116483D01*
X164138485Y-116313940D01*
X164257225Y-116491647D01*
X164408353Y-116642775D01*
X164586060Y-116761515D01*
X164783517Y-116843304D01*
X164993137Y-116885000D01*
X165206863Y-116885000D01*
X165416483Y-116843304D01*
X165613940Y-116761515D01*
X165791647Y-116642775D01*
X165942775Y-116491647D01*
X166061515Y-116313940D01*
X166143304Y-116116483D01*
X166185000Y-115906863D01*
X166185000Y-115693137D01*
X168415000Y-115693137D01*
X168415000Y-115906863D01*
X168456696Y-116116483D01*
X168538485Y-116313940D01*
X168657225Y-116491647D01*
X168808353Y-116642775D01*
X168986060Y-116761515D01*
X169183517Y-116843304D01*
X169393137Y-116885000D01*
X169606863Y-116885000D01*
X169816483Y-116843304D01*
X170013940Y-116761515D01*
X170191647Y-116642775D01*
X170342775Y-116491647D01*
X170461515Y-116313940D01*
X170543304Y-116116483D01*
X170585000Y-115906863D01*
X170585000Y-115693137D01*
X170543304Y-115483517D01*
X170461515Y-115286060D01*
X170342775Y-115108353D01*
X170191647Y-114957225D01*
X170013940Y-114838485D01*
X169816483Y-114756696D01*
X169606863Y-114715000D01*
X169393137Y-114715000D01*
X169183517Y-114756696D01*
X168986060Y-114838485D01*
X168808353Y-114957225D01*
X168657225Y-115108353D01*
X168538485Y-115286060D01*
X168456696Y-115483517D01*
X168415000Y-115693137D01*
X166185000Y-115693137D01*
X166143304Y-115483517D01*
X166061515Y-115286060D01*
X165942775Y-115108353D01*
X165791647Y-114957225D01*
X165613940Y-114838485D01*
X165416483Y-114756696D01*
X165206863Y-114715000D01*
X164993137Y-114715000D01*
X164783517Y-114756696D01*
X164586060Y-114838485D01*
X164408353Y-114957225D01*
X164257225Y-115108353D01*
X164138485Y-115286060D01*
X164056696Y-115483517D01*
X164015000Y-115693137D01*
X134660000Y-115693137D01*
X134660000Y-109660000D01*
X173340000Y-109660000D01*
X173340001Y-148340000D01*
G37*
X173340001Y-148340000D02*
X134660000Y-148340000D01*
X134660000Y-145298061D01*
X158865000Y-145298061D01*
X158865000Y-145501939D01*
X158904774Y-145701898D01*
X158982795Y-145890256D01*
X159096063Y-146059774D01*
X159240226Y-146203937D01*
X159409744Y-146317205D01*
X159598102Y-146395226D01*
X159798061Y-146435000D01*
X159860199Y-146435000D01*
X160636201Y-147211003D01*
X160659999Y-147240001D01*
X160775724Y-147334974D01*
X160907753Y-147405546D01*
X161051014Y-147449003D01*
X161162667Y-147460000D01*
X161162675Y-147460000D01*
X161200000Y-147463676D01*
X161237325Y-147460000D01*
X163496289Y-147460000D01*
X163540226Y-147503937D01*
X163709744Y-147617205D01*
X163898102Y-147695226D01*
X164098061Y-147735000D01*
X164301939Y-147735000D01*
X164501898Y-147695226D01*
X164690256Y-147617205D01*
X164859774Y-147503937D01*
X165003937Y-147359774D01*
X165117205Y-147190256D01*
X165195226Y-147001898D01*
X165235000Y-146801939D01*
X165235000Y-146598061D01*
X165195226Y-146398102D01*
X165117205Y-146209744D01*
X165003937Y-146040226D01*
X164859774Y-145896063D01*
X164690256Y-145782795D01*
X164501898Y-145704774D01*
X164301939Y-145665000D01*
X164098061Y-145665000D01*
X163898102Y-145704774D01*
X163709744Y-145782795D01*
X163540226Y-145896063D01*
X163496289Y-145940000D01*
X161514802Y-145940000D01*
X160935000Y-145360199D01*
X160935000Y-145298061D01*
X160895226Y-145098102D01*
X160817205Y-144909744D01*
X160703937Y-144740226D01*
X160559774Y-144596063D01*
X160390256Y-144482795D01*
X160201898Y-144404774D01*
X160001939Y-144365000D01*
X159798061Y-144365000D01*
X159598102Y-144404774D01*
X159409744Y-144482795D01*
X159240226Y-144596063D01*
X159096063Y-144740226D01*
X158982795Y-144909744D01*
X158904774Y-145098102D01*
X158865000Y-145298061D01*
X134660000Y-145298061D01*
X134660000Y-132498061D01*
X143965000Y-132498061D01*
X143965000Y-132701939D01*
X144004774Y-132901898D01*
X144082795Y-133090256D01*
X144196063Y-133259774D01*
X144240000Y-133303711D01*
X144240001Y-135196288D01*
X144196063Y-135240226D01*
X144082795Y-135409744D01*
X144004774Y-135598102D01*
X143965000Y-135798061D01*
X143965000Y-136001939D01*
X144004774Y-136201898D01*
X144082795Y-136390256D01*
X144196063Y-136559774D01*
X144340226Y-136703937D01*
X144509744Y-136817205D01*
X144698102Y-136895226D01*
X144898061Y-136935000D01*
X145101939Y-136935000D01*
X145301898Y-136895226D01*
X145490256Y-136817205D01*
X145659774Y-136703937D01*
X145803937Y-136559774D01*
X145917205Y-136390256D01*
X145995226Y-136201898D01*
X146035000Y-136001939D01*
X146035000Y-135798061D01*
X145995226Y-135598102D01*
X145917205Y-135409744D01*
X145803937Y-135240226D01*
X145760000Y-135196289D01*
X145760000Y-133303711D01*
X145803937Y-133259774D01*
X145917205Y-133090256D01*
X145995226Y-132901898D01*
X146035000Y-132701939D01*
X146035000Y-132498061D01*
X145995226Y-132298102D01*
X145917205Y-132109744D01*
X145803937Y-131940226D01*
X145659774Y-131796063D01*
X145490256Y-131682795D01*
X145301898Y-131604774D01*
X145101939Y-131565000D01*
X144898061Y-131565000D01*
X144698102Y-131604774D01*
X144509744Y-131682795D01*
X144340226Y-131796063D01*
X144196063Y-131940226D01*
X144082795Y-132109744D01*
X144004774Y-132298102D01*
X143965000Y-132498061D01*
X134660000Y-132498061D01*
X134660000Y-127398061D01*
X143965000Y-127398061D01*
X143965000Y-127601939D01*
X144004774Y-127801898D01*
X144082795Y-127990256D01*
X144196063Y-128159774D01*
X144340226Y-128303937D01*
X144509744Y-128417205D01*
X144698102Y-128495226D01*
X144898061Y-128535000D01*
X145101939Y-128535000D01*
X145301898Y-128495226D01*
X145490256Y-128417205D01*
X145659774Y-128303937D01*
X145703711Y-128260000D01*
X145785199Y-128260000D01*
X146265000Y-128739802D01*
X146265000Y-128801939D01*
X146304774Y-129001898D01*
X146382795Y-129190256D01*
X146496063Y-129359774D01*
X146640226Y-129503937D01*
X146809744Y-129617205D01*
X146998102Y-129695226D01*
X147198061Y-129735000D01*
X147401939Y-129735000D01*
X147601898Y-129695226D01*
X147740000Y-129638022D01*
X147740001Y-132196288D01*
X147696063Y-132240226D01*
X147582795Y-132409744D01*
X147504774Y-132598102D01*
X147465000Y-132798061D01*
X147465000Y-133001939D01*
X147504774Y-133201898D01*
X147582795Y-133390256D01*
X147696063Y-133559774D01*
X147840226Y-133703937D01*
X148009744Y-133817205D01*
X148198102Y-133895226D01*
X148398061Y-133935000D01*
X148601939Y-133935000D01*
X148801898Y-133895226D01*
X148990256Y-133817205D01*
X149159774Y-133703937D01*
X149303937Y-133559774D01*
X149417205Y-133390256D01*
X149495226Y-133201898D01*
X149535000Y-133001939D01*
X149535000Y-132798061D01*
X149495226Y-132598102D01*
X149417205Y-132409744D01*
X149303937Y-132240226D01*
X149260000Y-132196289D01*
X149260000Y-128637322D01*
X149263676Y-128599999D01*
X149260000Y-128562676D01*
X149260000Y-128562667D01*
X149249003Y-128451014D01*
X149205546Y-128307753D01*
X149134974Y-128175724D01*
X149040001Y-128059999D01*
X149011004Y-128036202D01*
X147235000Y-126260199D01*
X147235000Y-126198061D01*
X147195226Y-125998102D01*
X147117205Y-125809744D01*
X147003937Y-125640226D01*
X146859774Y-125496063D01*
X146690256Y-125382795D01*
X146501898Y-125304774D01*
X146301939Y-125265000D01*
X146098061Y-125265000D01*
X145898102Y-125304774D01*
X145709744Y-125382795D01*
X145540226Y-125496063D01*
X145396063Y-125640226D01*
X145282795Y-125809744D01*
X145204774Y-125998102D01*
X145165000Y-126198061D01*
X145165000Y-126401939D01*
X145180658Y-126480658D01*
X145101939Y-126465000D01*
X144898061Y-126465000D01*
X144698102Y-126504774D01*
X144509744Y-126582795D01*
X144340226Y-126696063D01*
X144196063Y-126840226D01*
X144082795Y-127009744D01*
X144004774Y-127198102D01*
X143965000Y-127398061D01*
X134660000Y-127398061D01*
X134660000Y-121550000D01*
X135211928Y-121550000D01*
X135211928Y-123250000D01*
X135224188Y-123374482D01*
X135260498Y-123494180D01*
X135319463Y-123604494D01*
X135398815Y-123701185D01*
X135495506Y-123780537D01*
X135605820Y-123839502D01*
X135725518Y-123875812D01*
X135850000Y-123888072D01*
X137550000Y-123888072D01*
X137674482Y-123875812D01*
X137794180Y-123839502D01*
X137904494Y-123780537D01*
X138001185Y-123701185D01*
X138080537Y-123604494D01*
X138139502Y-123494180D01*
X138161513Y-123421620D01*
X138293368Y-123553475D01*
X138536589Y-123715990D01*
X138806842Y-123827932D01*
X139093740Y-123885000D01*
X139386260Y-123885000D01*
X139673158Y-123827932D01*
X139943411Y-123715990D01*
X140186632Y-123553475D01*
X140393475Y-123346632D01*
X140515195Y-123164466D01*
X140584822Y-123281355D01*
X140779731Y-123497588D01*
X141013080Y-123671641D01*
X141275901Y-123796825D01*
X141423110Y-123841476D01*
X141653000Y-123720155D01*
X141653000Y-122527000D01*
X141633000Y-122527000D01*
X141633000Y-122273000D01*
X141653000Y-122273000D01*
X141653000Y-121079845D01*
X141907000Y-121079845D01*
X141907000Y-122273000D01*
X141927000Y-122273000D01*
X141927000Y-122527000D01*
X141907000Y-122527000D01*
X141907000Y-123720155D01*
X142136890Y-123841476D01*
X142284099Y-123796825D01*
X142546920Y-123671641D01*
X142780269Y-123497588D01*
X142975178Y-123281355D01*
X143044805Y-123164466D01*
X143166525Y-123346632D01*
X143373368Y-123553475D01*
X143616589Y-123715990D01*
X143886842Y-123827932D01*
X144173740Y-123885000D01*
X144466260Y-123885000D01*
X144753158Y-123827932D01*
X145023411Y-123715990D01*
X145266632Y-123553475D01*
X145473475Y-123346632D01*
X145590000Y-123172240D01*
X145706525Y-123346632D01*
X145913368Y-123553475D01*
X146156589Y-123715990D01*
X146426842Y-123827932D01*
X146713740Y-123885000D01*
X147006260Y-123885000D01*
X147293158Y-123827932D01*
X147563411Y-123715990D01*
X147806632Y-123553475D01*
X148013475Y-123346632D01*
X148175990Y-123103411D01*
X148178206Y-123098061D01*
X148265000Y-123098061D01*
X148265000Y-123301939D01*
X148304774Y-123501898D01*
X148382795Y-123690256D01*
X148496063Y-123859774D01*
X148640226Y-124003937D01*
X148809744Y-124117205D01*
X148998102Y-124195226D01*
X149198061Y-124235000D01*
X149401939Y-124235000D01*
X149601898Y-124195226D01*
X149685709Y-124160510D01*
X149965000Y-124439802D01*
X149965000Y-124501939D01*
X150004774Y-124701898D01*
X150082795Y-124890256D01*
X150196063Y-125059774D01*
X150340226Y-125203937D01*
X150509744Y-125317205D01*
X150698102Y-125395226D01*
X150898061Y-125435000D01*
X151101939Y-125435000D01*
X151301898Y-125395226D01*
X151490256Y-125317205D01*
X151659774Y-125203937D01*
X151803937Y-125059774D01*
X151917205Y-124890256D01*
X151995226Y-124701898D01*
X152035000Y-124501939D01*
X152035000Y-124298061D01*
X151995226Y-124098102D01*
X151917205Y-123909744D01*
X151803937Y-123740226D01*
X151659774Y-123596063D01*
X151490256Y-123482795D01*
X151301898Y-123404774D01*
X151101939Y-123365000D01*
X151039802Y-123365000D01*
X150363804Y-122689003D01*
X150340001Y-122659999D01*
X150224276Y-122565026D01*
X150092247Y-122494454D01*
X150043325Y-122479614D01*
X149961772Y-122398061D01*
X155965000Y-122398061D01*
X155965000Y-122601939D01*
X156004774Y-122801898D01*
X156082795Y-122990256D01*
X156196063Y-123159774D01*
X156340226Y-123303937D01*
X156509744Y-123417205D01*
X156698102Y-123495226D01*
X156898061Y-123535000D01*
X157101939Y-123535000D01*
X157301898Y-123495226D01*
X157490256Y-123417205D01*
X157659774Y-123303937D01*
X157803937Y-123159774D01*
X157917205Y-122990256D01*
X157995226Y-122801898D01*
X158035000Y-122601939D01*
X158035000Y-122539801D01*
X158914802Y-121660000D01*
X168696289Y-121660000D01*
X168740226Y-121703937D01*
X168909744Y-121817205D01*
X169098102Y-121895226D01*
X169298061Y-121935000D01*
X169501939Y-121935000D01*
X169701898Y-121895226D01*
X169890256Y-121817205D01*
X170059774Y-121703937D01*
X170203937Y-121559774D01*
X170317205Y-121390256D01*
X170395226Y-121201898D01*
X170435000Y-121001939D01*
X170435000Y-120798061D01*
X170395226Y-120598102D01*
X170317205Y-120409744D01*
X170203937Y-120240226D01*
X170059774Y-120096063D01*
X169890256Y-119982795D01*
X169701898Y-119904774D01*
X169501939Y-119865000D01*
X169298061Y-119865000D01*
X169098102Y-119904774D01*
X168909744Y-119982795D01*
X168740226Y-120096063D01*
X168696289Y-120140000D01*
X158637325Y-120140000D01*
X158600000Y-120136324D01*
X158562675Y-120140000D01*
X158562667Y-120140000D01*
X158451014Y-120150997D01*
X158307753Y-120194454D01*
X158175724Y-120265026D01*
X158059999Y-120359999D01*
X158036201Y-120388997D01*
X156960199Y-121465000D01*
X156898061Y-121465000D01*
X156698102Y-121504774D01*
X156509744Y-121582795D01*
X156340226Y-121696063D01*
X156196063Y-121840226D01*
X156082795Y-122009744D01*
X156004774Y-122198102D01*
X155965000Y-122398061D01*
X149961772Y-122398061D01*
X149959774Y-122396063D01*
X149790256Y-122282795D01*
X149601898Y-122204774D01*
X149401939Y-122165000D01*
X149198061Y-122165000D01*
X148998102Y-122204774D01*
X148809744Y-122282795D01*
X148640226Y-122396063D01*
X148496063Y-122540226D01*
X148382795Y-122709744D01*
X148304774Y-122898102D01*
X148265000Y-123098061D01*
X148178206Y-123098061D01*
X148287932Y-122833158D01*
X148345000Y-122546260D01*
X148345000Y-122253740D01*
X148287932Y-121966842D01*
X148175990Y-121696589D01*
X148013475Y-121453368D01*
X147806632Y-121246525D01*
X147563411Y-121084010D01*
X147293158Y-120972068D01*
X147006260Y-120915000D01*
X146713740Y-120915000D01*
X146426842Y-120972068D01*
X146156589Y-121084010D01*
X145913368Y-121246525D01*
X145706525Y-121453368D01*
X145590000Y-121627760D01*
X145473475Y-121453368D01*
X145266632Y-121246525D01*
X145023411Y-121084010D01*
X144753158Y-120972068D01*
X144466260Y-120915000D01*
X144173740Y-120915000D01*
X143886842Y-120972068D01*
X143616589Y-121084010D01*
X143373368Y-121246525D01*
X143166525Y-121453368D01*
X143044805Y-121635534D01*
X142975178Y-121518645D01*
X142780269Y-121302412D01*
X142546920Y-121128359D01*
X142284099Y-121003175D01*
X142136890Y-120958524D01*
X141907000Y-121079845D01*
X141653000Y-121079845D01*
X141423110Y-120958524D01*
X141275901Y-121003175D01*
X141013080Y-121128359D01*
X140779731Y-121302412D01*
X140584822Y-121518645D01*
X140515195Y-121635534D01*
X140393475Y-121453368D01*
X140186632Y-121246525D01*
X139943411Y-121084010D01*
X139673158Y-120972068D01*
X139386260Y-120915000D01*
X139093740Y-120915000D01*
X138806842Y-120972068D01*
X138536589Y-121084010D01*
X138293368Y-121246525D01*
X138161513Y-121378380D01*
X138139502Y-121305820D01*
X138080537Y-121195506D01*
X138001185Y-121098815D01*
X137904494Y-121019463D01*
X137794180Y-120960498D01*
X137674482Y-120924188D01*
X137550000Y-120911928D01*
X135850000Y-120911928D01*
X135725518Y-120924188D01*
X135605820Y-120960498D01*
X135495506Y-121019463D01*
X135398815Y-121098815D01*
X135319463Y-121195506D01*
X135260498Y-121305820D01*
X135224188Y-121425518D01*
X135211928Y-121550000D01*
X134660000Y-121550000D01*
X134660000Y-115693137D01*
X164015000Y-115693137D01*
X164015000Y-115906863D01*
X164056696Y-116116483D01*
X164138485Y-116313940D01*
X164257225Y-116491647D01*
X164408353Y-116642775D01*
X164586060Y-116761515D01*
X164783517Y-116843304D01*
X164993137Y-116885000D01*
X165206863Y-116885000D01*
X165416483Y-116843304D01*
X165613940Y-116761515D01*
X165791647Y-116642775D01*
X165942775Y-116491647D01*
X166061515Y-116313940D01*
X166143304Y-116116483D01*
X166185000Y-115906863D01*
X166185000Y-115693137D01*
X168415000Y-115693137D01*
X168415000Y-115906863D01*
X168456696Y-116116483D01*
X168538485Y-116313940D01*
X168657225Y-116491647D01*
X168808353Y-116642775D01*
X168986060Y-116761515D01*
X169183517Y-116843304D01*
X169393137Y-116885000D01*
X169606863Y-116885000D01*
X169816483Y-116843304D01*
X170013940Y-116761515D01*
X170191647Y-116642775D01*
X170342775Y-116491647D01*
X170461515Y-116313940D01*
X170543304Y-116116483D01*
X170585000Y-115906863D01*
X170585000Y-115693137D01*
X170543304Y-115483517D01*
X170461515Y-115286060D01*
X170342775Y-115108353D01*
X170191647Y-114957225D01*
X170013940Y-114838485D01*
X169816483Y-114756696D01*
X169606863Y-114715000D01*
X169393137Y-114715000D01*
X169183517Y-114756696D01*
X168986060Y-114838485D01*
X168808353Y-114957225D01*
X168657225Y-115108353D01*
X168538485Y-115286060D01*
X168456696Y-115483517D01*
X168415000Y-115693137D01*
X166185000Y-115693137D01*
X166143304Y-115483517D01*
X166061515Y-115286060D01*
X165942775Y-115108353D01*
X165791647Y-114957225D01*
X165613940Y-114838485D01*
X165416483Y-114756696D01*
X165206863Y-114715000D01*
X164993137Y-114715000D01*
X164783517Y-114756696D01*
X164586060Y-114838485D01*
X164408353Y-114957225D01*
X164257225Y-115108353D01*
X164138485Y-115286060D01*
X164056696Y-115483517D01*
X164015000Y-115693137D01*
X134660000Y-115693137D01*
X134660000Y-109660000D01*
X173340000Y-109660000D01*
X173340001Y-148340000D01*
M02*
