G04 #@! TF.GenerationSoftware,KiCad,Pcbnew,5.1.5-52549c5~84~ubuntu18.04.1*
G04 #@! TF.CreationDate,2020-02-05T12:35:19+01:00*
G04 #@! TF.ProjectId,Lab1,4c616231-2e6b-4696-9361-645f70636258,rev?*
G04 #@! TF.SameCoordinates,Original*
G04 #@! TF.FileFunction,Soldermask,Top*
G04 #@! TF.FilePolarity,Negative*
%FSLAX46Y46*%
G04 Gerber Fmt 4.6, Leading zero omitted, Abs format (unit mm)*
G04 Created by KiCad (PCBNEW 5.1.5-52549c5~84~ubuntu18.04.1) date 2020-02-05 12:35:19*
%MOMM*%
%LPD*%
G04 APERTURE LIST*
%ADD10C,0.100000*%
G04 APERTURE END LIST*
D10*
G36*
X166788674Y-146603465D02*
G01*
X166826367Y-146614899D01*
X166861103Y-146633466D01*
X166891548Y-146658452D01*
X166916534Y-146688897D01*
X166935101Y-146723633D01*
X166946535Y-146761326D01*
X166951000Y-146806661D01*
X166951000Y-147643339D01*
X166946535Y-147688674D01*
X166935101Y-147726367D01*
X166916534Y-147761103D01*
X166891548Y-147791548D01*
X166861103Y-147816534D01*
X166826367Y-147835101D01*
X166788674Y-147846535D01*
X166743339Y-147851000D01*
X165656661Y-147851000D01*
X165611326Y-147846535D01*
X165573633Y-147835101D01*
X165538897Y-147816534D01*
X165508452Y-147791548D01*
X165483466Y-147761103D01*
X165464899Y-147726367D01*
X165453465Y-147688674D01*
X165449000Y-147643339D01*
X165449000Y-146806661D01*
X165453465Y-146761326D01*
X165464899Y-146723633D01*
X165483466Y-146688897D01*
X165508452Y-146658452D01*
X165538897Y-146633466D01*
X165573633Y-146614899D01*
X165611326Y-146603465D01*
X165656661Y-146599000D01*
X166743339Y-146599000D01*
X166788674Y-146603465D01*
G37*
G36*
X162088674Y-146503465D02*
G01*
X162126367Y-146514899D01*
X162161103Y-146533466D01*
X162191548Y-146558452D01*
X162216534Y-146588897D01*
X162235101Y-146623633D01*
X162246535Y-146661326D01*
X162251000Y-146706661D01*
X162251000Y-147543339D01*
X162246535Y-147588674D01*
X162235101Y-147626367D01*
X162216534Y-147661103D01*
X162191548Y-147691548D01*
X162161103Y-147716534D01*
X162126367Y-147735101D01*
X162088674Y-147746535D01*
X162043339Y-147751000D01*
X160956661Y-147751000D01*
X160911326Y-147746535D01*
X160873633Y-147735101D01*
X160838897Y-147716534D01*
X160808452Y-147691548D01*
X160783466Y-147661103D01*
X160764899Y-147626367D01*
X160753465Y-147588674D01*
X160749000Y-147543339D01*
X160749000Y-146706661D01*
X160753465Y-146661326D01*
X160764899Y-146623633D01*
X160783466Y-146588897D01*
X160808452Y-146558452D01*
X160838897Y-146533466D01*
X160873633Y-146514899D01*
X160911326Y-146503465D01*
X160956661Y-146499000D01*
X162043339Y-146499000D01*
X162088674Y-146503465D01*
G37*
G36*
X158188674Y-146503465D02*
G01*
X158226367Y-146514899D01*
X158261103Y-146533466D01*
X158291548Y-146558452D01*
X158316534Y-146588897D01*
X158335101Y-146623633D01*
X158346535Y-146661326D01*
X158351000Y-146706661D01*
X158351000Y-147543339D01*
X158346535Y-147588674D01*
X158335101Y-147626367D01*
X158316534Y-147661103D01*
X158291548Y-147691548D01*
X158261103Y-147716534D01*
X158226367Y-147735101D01*
X158188674Y-147746535D01*
X158143339Y-147751000D01*
X157056661Y-147751000D01*
X157011326Y-147746535D01*
X156973633Y-147735101D01*
X156938897Y-147716534D01*
X156908452Y-147691548D01*
X156883466Y-147661103D01*
X156864899Y-147626367D01*
X156853465Y-147588674D01*
X156849000Y-147543339D01*
X156849000Y-146706661D01*
X156853465Y-146661326D01*
X156864899Y-146623633D01*
X156883466Y-146588897D01*
X156908452Y-146558452D01*
X156938897Y-146533466D01*
X156973633Y-146514899D01*
X157011326Y-146503465D01*
X157056661Y-146499000D01*
X158143339Y-146499000D01*
X158188674Y-146503465D01*
G37*
G36*
X150988674Y-146428465D02*
G01*
X151026367Y-146439899D01*
X151061103Y-146458466D01*
X151091548Y-146483452D01*
X151116534Y-146513897D01*
X151135101Y-146548633D01*
X151146535Y-146586326D01*
X151151000Y-146631661D01*
X151151000Y-147468339D01*
X151146535Y-147513674D01*
X151135101Y-147551367D01*
X151116534Y-147586103D01*
X151091548Y-147616548D01*
X151061103Y-147641534D01*
X151026367Y-147660101D01*
X150988674Y-147671535D01*
X150943339Y-147676000D01*
X149856661Y-147676000D01*
X149811326Y-147671535D01*
X149773633Y-147660101D01*
X149738897Y-147641534D01*
X149708452Y-147616548D01*
X149683466Y-147586103D01*
X149664899Y-147551367D01*
X149653465Y-147513674D01*
X149649000Y-147468339D01*
X149649000Y-146631661D01*
X149653465Y-146586326D01*
X149664899Y-146548633D01*
X149683466Y-146513897D01*
X149708452Y-146483452D01*
X149738897Y-146458466D01*
X149773633Y-146439899D01*
X149811326Y-146428465D01*
X149856661Y-146424000D01*
X150943339Y-146424000D01*
X150988674Y-146428465D01*
G37*
G36*
X154588674Y-146403465D02*
G01*
X154626367Y-146414899D01*
X154661103Y-146433466D01*
X154691548Y-146458452D01*
X154716534Y-146488897D01*
X154735101Y-146523633D01*
X154746535Y-146561326D01*
X154751000Y-146606661D01*
X154751000Y-147443339D01*
X154746535Y-147488674D01*
X154735101Y-147526367D01*
X154716534Y-147561103D01*
X154691548Y-147591548D01*
X154661103Y-147616534D01*
X154626367Y-147635101D01*
X154588674Y-147646535D01*
X154543339Y-147651000D01*
X153456661Y-147651000D01*
X153411326Y-147646535D01*
X153373633Y-147635101D01*
X153338897Y-147616534D01*
X153308452Y-147591548D01*
X153283466Y-147561103D01*
X153264899Y-147526367D01*
X153253465Y-147488674D01*
X153249000Y-147443339D01*
X153249000Y-146606661D01*
X153253465Y-146561326D01*
X153264899Y-146523633D01*
X153283466Y-146488897D01*
X153308452Y-146458452D01*
X153338897Y-146433466D01*
X153373633Y-146414899D01*
X153411326Y-146403465D01*
X153456661Y-146399000D01*
X154543339Y-146399000D01*
X154588674Y-146403465D01*
G37*
G36*
X166788674Y-144553465D02*
G01*
X166826367Y-144564899D01*
X166861103Y-144583466D01*
X166891548Y-144608452D01*
X166916534Y-144638897D01*
X166935101Y-144673633D01*
X166946535Y-144711326D01*
X166951000Y-144756661D01*
X166951000Y-145593339D01*
X166946535Y-145638674D01*
X166935101Y-145676367D01*
X166916534Y-145711103D01*
X166891548Y-145741548D01*
X166861103Y-145766534D01*
X166826367Y-145785101D01*
X166788674Y-145796535D01*
X166743339Y-145801000D01*
X165656661Y-145801000D01*
X165611326Y-145796535D01*
X165573633Y-145785101D01*
X165538897Y-145766534D01*
X165508452Y-145741548D01*
X165483466Y-145711103D01*
X165464899Y-145676367D01*
X165453465Y-145638674D01*
X165449000Y-145593339D01*
X165449000Y-144756661D01*
X165453465Y-144711326D01*
X165464899Y-144673633D01*
X165483466Y-144638897D01*
X165508452Y-144608452D01*
X165538897Y-144583466D01*
X165573633Y-144564899D01*
X165611326Y-144553465D01*
X165656661Y-144549000D01*
X166743339Y-144549000D01*
X166788674Y-144553465D01*
G37*
G36*
X162088674Y-144453465D02*
G01*
X162126367Y-144464899D01*
X162161103Y-144483466D01*
X162191548Y-144508452D01*
X162216534Y-144538897D01*
X162235101Y-144573633D01*
X162246535Y-144611326D01*
X162251000Y-144656661D01*
X162251000Y-145493339D01*
X162246535Y-145538674D01*
X162235101Y-145576367D01*
X162216534Y-145611103D01*
X162191548Y-145641548D01*
X162161103Y-145666534D01*
X162126367Y-145685101D01*
X162088674Y-145696535D01*
X162043339Y-145701000D01*
X160956661Y-145701000D01*
X160911326Y-145696535D01*
X160873633Y-145685101D01*
X160838897Y-145666534D01*
X160808452Y-145641548D01*
X160783466Y-145611103D01*
X160764899Y-145576367D01*
X160753465Y-145538674D01*
X160749000Y-145493339D01*
X160749000Y-144656661D01*
X160753465Y-144611326D01*
X160764899Y-144573633D01*
X160783466Y-144538897D01*
X160808452Y-144508452D01*
X160838897Y-144483466D01*
X160873633Y-144464899D01*
X160911326Y-144453465D01*
X160956661Y-144449000D01*
X162043339Y-144449000D01*
X162088674Y-144453465D01*
G37*
G36*
X158188674Y-144453465D02*
G01*
X158226367Y-144464899D01*
X158261103Y-144483466D01*
X158291548Y-144508452D01*
X158316534Y-144538897D01*
X158335101Y-144573633D01*
X158346535Y-144611326D01*
X158351000Y-144656661D01*
X158351000Y-145493339D01*
X158346535Y-145538674D01*
X158335101Y-145576367D01*
X158316534Y-145611103D01*
X158291548Y-145641548D01*
X158261103Y-145666534D01*
X158226367Y-145685101D01*
X158188674Y-145696535D01*
X158143339Y-145701000D01*
X157056661Y-145701000D01*
X157011326Y-145696535D01*
X156973633Y-145685101D01*
X156938897Y-145666534D01*
X156908452Y-145641548D01*
X156883466Y-145611103D01*
X156864899Y-145576367D01*
X156853465Y-145538674D01*
X156849000Y-145493339D01*
X156849000Y-144656661D01*
X156853465Y-144611326D01*
X156864899Y-144573633D01*
X156883466Y-144538897D01*
X156908452Y-144508452D01*
X156938897Y-144483466D01*
X156973633Y-144464899D01*
X157011326Y-144453465D01*
X157056661Y-144449000D01*
X158143339Y-144449000D01*
X158188674Y-144453465D01*
G37*
G36*
X150988674Y-144378465D02*
G01*
X151026367Y-144389899D01*
X151061103Y-144408466D01*
X151091548Y-144433452D01*
X151116534Y-144463897D01*
X151135101Y-144498633D01*
X151146535Y-144536326D01*
X151151000Y-144581661D01*
X151151000Y-145418339D01*
X151146535Y-145463674D01*
X151135101Y-145501367D01*
X151116534Y-145536103D01*
X151091548Y-145566548D01*
X151061103Y-145591534D01*
X151026367Y-145610101D01*
X150988674Y-145621535D01*
X150943339Y-145626000D01*
X149856661Y-145626000D01*
X149811326Y-145621535D01*
X149773633Y-145610101D01*
X149738897Y-145591534D01*
X149708452Y-145566548D01*
X149683466Y-145536103D01*
X149664899Y-145501367D01*
X149653465Y-145463674D01*
X149649000Y-145418339D01*
X149649000Y-144581661D01*
X149653465Y-144536326D01*
X149664899Y-144498633D01*
X149683466Y-144463897D01*
X149708452Y-144433452D01*
X149738897Y-144408466D01*
X149773633Y-144389899D01*
X149811326Y-144378465D01*
X149856661Y-144374000D01*
X150943339Y-144374000D01*
X150988674Y-144378465D01*
G37*
G36*
X154588674Y-144353465D02*
G01*
X154626367Y-144364899D01*
X154661103Y-144383466D01*
X154691548Y-144408452D01*
X154716534Y-144438897D01*
X154735101Y-144473633D01*
X154746535Y-144511326D01*
X154751000Y-144556661D01*
X154751000Y-145393339D01*
X154746535Y-145438674D01*
X154735101Y-145476367D01*
X154716534Y-145511103D01*
X154691548Y-145541548D01*
X154661103Y-145566534D01*
X154626367Y-145585101D01*
X154588674Y-145596535D01*
X154543339Y-145601000D01*
X153456661Y-145601000D01*
X153411326Y-145596535D01*
X153373633Y-145585101D01*
X153338897Y-145566534D01*
X153308452Y-145541548D01*
X153283466Y-145511103D01*
X153264899Y-145476367D01*
X153253465Y-145438674D01*
X153249000Y-145393339D01*
X153249000Y-144556661D01*
X153253465Y-144511326D01*
X153264899Y-144473633D01*
X153283466Y-144438897D01*
X153308452Y-144408452D01*
X153338897Y-144383466D01*
X153373633Y-144364899D01*
X153411326Y-144353465D01*
X153456661Y-144349000D01*
X154543339Y-144349000D01*
X154588674Y-144353465D01*
G37*
G36*
X161701000Y-141501000D02*
G01*
X152299000Y-141501000D01*
X152299000Y-140599000D01*
X161701000Y-140599000D01*
X161701000Y-141501000D01*
G37*
G36*
X161701000Y-139901000D02*
G01*
X152299000Y-139901000D01*
X152299000Y-138999000D01*
X161701000Y-138999000D01*
X161701000Y-139901000D01*
G37*
G36*
X147588674Y-137453465D02*
G01*
X147626367Y-137464899D01*
X147661103Y-137483466D01*
X147691548Y-137508452D01*
X147716534Y-137538897D01*
X147735101Y-137573633D01*
X147746535Y-137611326D01*
X147751000Y-137656661D01*
X147751000Y-138743339D01*
X147746535Y-138788674D01*
X147735101Y-138826367D01*
X147716534Y-138861103D01*
X147691548Y-138891548D01*
X147661103Y-138916534D01*
X147626367Y-138935101D01*
X147588674Y-138946535D01*
X147543339Y-138951000D01*
X146706661Y-138951000D01*
X146661326Y-138946535D01*
X146623633Y-138935101D01*
X146588897Y-138916534D01*
X146558452Y-138891548D01*
X146533466Y-138861103D01*
X146514899Y-138826367D01*
X146503465Y-138788674D01*
X146499000Y-138743339D01*
X146499000Y-137656661D01*
X146503465Y-137611326D01*
X146514899Y-137573633D01*
X146533466Y-137538897D01*
X146558452Y-137508452D01*
X146588897Y-137483466D01*
X146623633Y-137464899D01*
X146661326Y-137453465D01*
X146706661Y-137449000D01*
X147543339Y-137449000D01*
X147588674Y-137453465D01*
G37*
G36*
X145538674Y-137453465D02*
G01*
X145576367Y-137464899D01*
X145611103Y-137483466D01*
X145641548Y-137508452D01*
X145666534Y-137538897D01*
X145685101Y-137573633D01*
X145696535Y-137611326D01*
X145701000Y-137656661D01*
X145701000Y-138743339D01*
X145696535Y-138788674D01*
X145685101Y-138826367D01*
X145666534Y-138861103D01*
X145641548Y-138891548D01*
X145611103Y-138916534D01*
X145576367Y-138935101D01*
X145538674Y-138946535D01*
X145493339Y-138951000D01*
X144656661Y-138951000D01*
X144611326Y-138946535D01*
X144573633Y-138935101D01*
X144538897Y-138916534D01*
X144508452Y-138891548D01*
X144483466Y-138861103D01*
X144464899Y-138826367D01*
X144453465Y-138788674D01*
X144449000Y-138743339D01*
X144449000Y-137656661D01*
X144453465Y-137611326D01*
X144464899Y-137573633D01*
X144483466Y-137538897D01*
X144508452Y-137508452D01*
X144538897Y-137483466D01*
X144573633Y-137464899D01*
X144611326Y-137453465D01*
X144656661Y-137449000D01*
X145493339Y-137449000D01*
X145538674Y-137453465D01*
G37*
G36*
X152251000Y-138501000D02*
G01*
X151349000Y-138501000D01*
X151349000Y-129099000D01*
X152251000Y-129099000D01*
X152251000Y-138501000D01*
G37*
G36*
X150651000Y-138501000D02*
G01*
X149749000Y-138501000D01*
X149749000Y-129099000D01*
X150651000Y-129099000D01*
X150651000Y-138501000D01*
G37*
G36*
X162651000Y-138501000D02*
G01*
X161749000Y-138501000D01*
X161749000Y-129099000D01*
X162651000Y-129099000D01*
X162651000Y-138501000D01*
G37*
G36*
X164251000Y-138501000D02*
G01*
X163349000Y-138501000D01*
X163349000Y-129099000D01*
X164251000Y-129099000D01*
X164251000Y-138501000D01*
G37*
G36*
X168238674Y-136853465D02*
G01*
X168276367Y-136864899D01*
X168311103Y-136883466D01*
X168341548Y-136908452D01*
X168366534Y-136938897D01*
X168385101Y-136973633D01*
X168396535Y-137011326D01*
X168401000Y-137056661D01*
X168401000Y-138143339D01*
X168396535Y-138188674D01*
X168385101Y-138226367D01*
X168366534Y-138261103D01*
X168341548Y-138291548D01*
X168311103Y-138316534D01*
X168276367Y-138335101D01*
X168238674Y-138346535D01*
X168193339Y-138351000D01*
X167356661Y-138351000D01*
X167311326Y-138346535D01*
X167273633Y-138335101D01*
X167238897Y-138316534D01*
X167208452Y-138291548D01*
X167183466Y-138261103D01*
X167164899Y-138226367D01*
X167153465Y-138188674D01*
X167149000Y-138143339D01*
X167149000Y-137056661D01*
X167153465Y-137011326D01*
X167164899Y-136973633D01*
X167183466Y-136938897D01*
X167208452Y-136908452D01*
X167238897Y-136883466D01*
X167273633Y-136864899D01*
X167311326Y-136853465D01*
X167356661Y-136849000D01*
X168193339Y-136849000D01*
X168238674Y-136853465D01*
G37*
G36*
X170288674Y-136853465D02*
G01*
X170326367Y-136864899D01*
X170361103Y-136883466D01*
X170391548Y-136908452D01*
X170416534Y-136938897D01*
X170435101Y-136973633D01*
X170446535Y-137011326D01*
X170451000Y-137056661D01*
X170451000Y-138143339D01*
X170446535Y-138188674D01*
X170435101Y-138226367D01*
X170416534Y-138261103D01*
X170391548Y-138291548D01*
X170361103Y-138316534D01*
X170326367Y-138335101D01*
X170288674Y-138346535D01*
X170243339Y-138351000D01*
X169406661Y-138351000D01*
X169361326Y-138346535D01*
X169323633Y-138335101D01*
X169288897Y-138316534D01*
X169258452Y-138291548D01*
X169233466Y-138261103D01*
X169214899Y-138226367D01*
X169203465Y-138188674D01*
X169199000Y-138143339D01*
X169199000Y-137056661D01*
X169203465Y-137011326D01*
X169214899Y-136973633D01*
X169233466Y-136938897D01*
X169258452Y-136908452D01*
X169288897Y-136883466D01*
X169323633Y-136864899D01*
X169361326Y-136853465D01*
X169406661Y-136849000D01*
X170243339Y-136849000D01*
X170288674Y-136853465D01*
G37*
G36*
X157851000Y-137151000D02*
G01*
X156149000Y-137151000D01*
X156149000Y-135449000D01*
X157851000Y-135449000D01*
X157851000Y-137151000D01*
G37*
G36*
X160351000Y-137151000D02*
G01*
X158649000Y-137151000D01*
X158649000Y-135449000D01*
X160351000Y-135449000D01*
X160351000Y-137151000D01*
G37*
G36*
X155351000Y-137151000D02*
G01*
X153649000Y-137151000D01*
X153649000Y-135449000D01*
X155351000Y-135449000D01*
X155351000Y-137151000D01*
G37*
G36*
X147388674Y-133453465D02*
G01*
X147426367Y-133464899D01*
X147461103Y-133483466D01*
X147491548Y-133508452D01*
X147516534Y-133538897D01*
X147535101Y-133573633D01*
X147546535Y-133611326D01*
X147551000Y-133656661D01*
X147551000Y-134743339D01*
X147546535Y-134788674D01*
X147535101Y-134826367D01*
X147516534Y-134861103D01*
X147491548Y-134891548D01*
X147461103Y-134916534D01*
X147426367Y-134935101D01*
X147388674Y-134946535D01*
X147343339Y-134951000D01*
X146506661Y-134951000D01*
X146461326Y-134946535D01*
X146423633Y-134935101D01*
X146388897Y-134916534D01*
X146358452Y-134891548D01*
X146333466Y-134861103D01*
X146314899Y-134826367D01*
X146303465Y-134788674D01*
X146299000Y-134743339D01*
X146299000Y-133656661D01*
X146303465Y-133611326D01*
X146314899Y-133573633D01*
X146333466Y-133538897D01*
X146358452Y-133508452D01*
X146388897Y-133483466D01*
X146423633Y-133464899D01*
X146461326Y-133453465D01*
X146506661Y-133449000D01*
X147343339Y-133449000D01*
X147388674Y-133453465D01*
G37*
G36*
X145338674Y-133453465D02*
G01*
X145376367Y-133464899D01*
X145411103Y-133483466D01*
X145441548Y-133508452D01*
X145466534Y-133538897D01*
X145485101Y-133573633D01*
X145496535Y-133611326D01*
X145501000Y-133656661D01*
X145501000Y-134743339D01*
X145496535Y-134788674D01*
X145485101Y-134826367D01*
X145466534Y-134861103D01*
X145441548Y-134891548D01*
X145411103Y-134916534D01*
X145376367Y-134935101D01*
X145338674Y-134946535D01*
X145293339Y-134951000D01*
X144456661Y-134951000D01*
X144411326Y-134946535D01*
X144373633Y-134935101D01*
X144338897Y-134916534D01*
X144308452Y-134891548D01*
X144283466Y-134861103D01*
X144264899Y-134826367D01*
X144253465Y-134788674D01*
X144249000Y-134743339D01*
X144249000Y-133656661D01*
X144253465Y-133611326D01*
X144264899Y-133573633D01*
X144283466Y-133538897D01*
X144308452Y-133508452D01*
X144338897Y-133483466D01*
X144373633Y-133464899D01*
X144411326Y-133453465D01*
X144456661Y-133449000D01*
X145293339Y-133449000D01*
X145338674Y-133453465D01*
G37*
G36*
X160351000Y-134651000D02*
G01*
X158649000Y-134651000D01*
X158649000Y-132949000D01*
X160351000Y-132949000D01*
X160351000Y-134651000D01*
G37*
G36*
X157851000Y-134651000D02*
G01*
X156149000Y-134651000D01*
X156149000Y-132949000D01*
X157851000Y-132949000D01*
X157851000Y-134651000D01*
G37*
G36*
X155351000Y-134651000D02*
G01*
X153649000Y-134651000D01*
X153649000Y-132949000D01*
X155351000Y-132949000D01*
X155351000Y-134651000D01*
G37*
G36*
X170188674Y-132953465D02*
G01*
X170226367Y-132964899D01*
X170261103Y-132983466D01*
X170291548Y-133008452D01*
X170316534Y-133038897D01*
X170335101Y-133073633D01*
X170346535Y-133111326D01*
X170351000Y-133156661D01*
X170351000Y-134243339D01*
X170346535Y-134288674D01*
X170335101Y-134326367D01*
X170316534Y-134361103D01*
X170291548Y-134391548D01*
X170261103Y-134416534D01*
X170226367Y-134435101D01*
X170188674Y-134446535D01*
X170143339Y-134451000D01*
X169306661Y-134451000D01*
X169261326Y-134446535D01*
X169223633Y-134435101D01*
X169188897Y-134416534D01*
X169158452Y-134391548D01*
X169133466Y-134361103D01*
X169114899Y-134326367D01*
X169103465Y-134288674D01*
X169099000Y-134243339D01*
X169099000Y-133156661D01*
X169103465Y-133111326D01*
X169114899Y-133073633D01*
X169133466Y-133038897D01*
X169158452Y-133008452D01*
X169188897Y-132983466D01*
X169223633Y-132964899D01*
X169261326Y-132953465D01*
X169306661Y-132949000D01*
X170143339Y-132949000D01*
X170188674Y-132953465D01*
G37*
G36*
X168138674Y-132953465D02*
G01*
X168176367Y-132964899D01*
X168211103Y-132983466D01*
X168241548Y-133008452D01*
X168266534Y-133038897D01*
X168285101Y-133073633D01*
X168296535Y-133111326D01*
X168301000Y-133156661D01*
X168301000Y-134243339D01*
X168296535Y-134288674D01*
X168285101Y-134326367D01*
X168266534Y-134361103D01*
X168241548Y-134391548D01*
X168211103Y-134416534D01*
X168176367Y-134435101D01*
X168138674Y-134446535D01*
X168093339Y-134451000D01*
X167256661Y-134451000D01*
X167211326Y-134446535D01*
X167173633Y-134435101D01*
X167138897Y-134416534D01*
X167108452Y-134391548D01*
X167083466Y-134361103D01*
X167064899Y-134326367D01*
X167053465Y-134288674D01*
X167049000Y-134243339D01*
X167049000Y-133156661D01*
X167053465Y-133111326D01*
X167064899Y-133073633D01*
X167083466Y-133038897D01*
X167108452Y-133008452D01*
X167138897Y-132983466D01*
X167173633Y-132964899D01*
X167211326Y-132953465D01*
X167256661Y-132949000D01*
X168093339Y-132949000D01*
X168138674Y-132953465D01*
G37*
G36*
X155351000Y-132151000D02*
G01*
X153649000Y-132151000D01*
X153649000Y-130449000D01*
X155351000Y-130449000D01*
X155351000Y-132151000D01*
G37*
G36*
X160351000Y-132151000D02*
G01*
X158649000Y-132151000D01*
X158649000Y-130449000D01*
X160351000Y-130449000D01*
X160351000Y-132151000D01*
G37*
G36*
X157851000Y-132151000D02*
G01*
X156149000Y-132151000D01*
X156149000Y-130449000D01*
X157851000Y-130449000D01*
X157851000Y-132151000D01*
G37*
G36*
X147688674Y-129753465D02*
G01*
X147726367Y-129764899D01*
X147761103Y-129783466D01*
X147791548Y-129808452D01*
X147816534Y-129838897D01*
X147835101Y-129873633D01*
X147846535Y-129911326D01*
X147851000Y-129956661D01*
X147851000Y-131043339D01*
X147846535Y-131088674D01*
X147835101Y-131126367D01*
X147816534Y-131161103D01*
X147791548Y-131191548D01*
X147761103Y-131216534D01*
X147726367Y-131235101D01*
X147688674Y-131246535D01*
X147643339Y-131251000D01*
X146806661Y-131251000D01*
X146761326Y-131246535D01*
X146723633Y-131235101D01*
X146688897Y-131216534D01*
X146658452Y-131191548D01*
X146633466Y-131161103D01*
X146614899Y-131126367D01*
X146603465Y-131088674D01*
X146599000Y-131043339D01*
X146599000Y-129956661D01*
X146603465Y-129911326D01*
X146614899Y-129873633D01*
X146633466Y-129838897D01*
X146658452Y-129808452D01*
X146688897Y-129783466D01*
X146723633Y-129764899D01*
X146761326Y-129753465D01*
X146806661Y-129749000D01*
X147643339Y-129749000D01*
X147688674Y-129753465D01*
G37*
G36*
X145638674Y-129753465D02*
G01*
X145676367Y-129764899D01*
X145711103Y-129783466D01*
X145741548Y-129808452D01*
X145766534Y-129838897D01*
X145785101Y-129873633D01*
X145796535Y-129911326D01*
X145801000Y-129956661D01*
X145801000Y-131043339D01*
X145796535Y-131088674D01*
X145785101Y-131126367D01*
X145766534Y-131161103D01*
X145741548Y-131191548D01*
X145711103Y-131216534D01*
X145676367Y-131235101D01*
X145638674Y-131246535D01*
X145593339Y-131251000D01*
X144756661Y-131251000D01*
X144711326Y-131246535D01*
X144673633Y-131235101D01*
X144638897Y-131216534D01*
X144608452Y-131191548D01*
X144583466Y-131161103D01*
X144564899Y-131126367D01*
X144553465Y-131088674D01*
X144549000Y-131043339D01*
X144549000Y-129956661D01*
X144553465Y-129911326D01*
X144564899Y-129873633D01*
X144583466Y-129838897D01*
X144608452Y-129808452D01*
X144638897Y-129783466D01*
X144673633Y-129764899D01*
X144711326Y-129753465D01*
X144756661Y-129749000D01*
X145593339Y-129749000D01*
X145638674Y-129753465D01*
G37*
G36*
X137955997Y-129153051D02*
G01*
X137989652Y-129163261D01*
X138020665Y-129179838D01*
X138047851Y-129202149D01*
X138070162Y-129229335D01*
X138086739Y-129260348D01*
X138096949Y-129294003D01*
X138101000Y-129335138D01*
X138101000Y-130664862D01*
X138096949Y-130705997D01*
X138086739Y-130739652D01*
X138070162Y-130770665D01*
X138047851Y-130797851D01*
X138020665Y-130820162D01*
X137989652Y-130836739D01*
X137955997Y-130846949D01*
X137914862Y-130851000D01*
X134685138Y-130851000D01*
X134644003Y-130846949D01*
X134610348Y-130836739D01*
X134579335Y-130820162D01*
X134552149Y-130797851D01*
X134529838Y-130770665D01*
X134513261Y-130739652D01*
X134503051Y-130705997D01*
X134499000Y-130664862D01*
X134499000Y-129335138D01*
X134503051Y-129294003D01*
X134513261Y-129260348D01*
X134529838Y-129229335D01*
X134552149Y-129202149D01*
X134579335Y-129179838D01*
X134610348Y-129163261D01*
X134644003Y-129153051D01*
X134685138Y-129149000D01*
X137914862Y-129149000D01*
X137955997Y-129153051D01*
G37*
G36*
X143355997Y-129153051D02*
G01*
X143389652Y-129163261D01*
X143420665Y-129179838D01*
X143447851Y-129202149D01*
X143470162Y-129229335D01*
X143486739Y-129260348D01*
X143496949Y-129294003D01*
X143501000Y-129335138D01*
X143501000Y-130664862D01*
X143496949Y-130705997D01*
X143486739Y-130739652D01*
X143470162Y-130770665D01*
X143447851Y-130797851D01*
X143420665Y-130820162D01*
X143389652Y-130836739D01*
X143355997Y-130846949D01*
X143314862Y-130851000D01*
X140085138Y-130851000D01*
X140044003Y-130846949D01*
X140010348Y-130836739D01*
X139979335Y-130820162D01*
X139952149Y-130797851D01*
X139929838Y-130770665D01*
X139913261Y-130739652D01*
X139903051Y-130705997D01*
X139899000Y-130664862D01*
X139899000Y-129335138D01*
X139903051Y-129294003D01*
X139913261Y-129260348D01*
X139929838Y-129229335D01*
X139952149Y-129202149D01*
X139979335Y-129179838D01*
X140010348Y-129163261D01*
X140044003Y-129153051D01*
X140085138Y-129149000D01*
X143314862Y-129149000D01*
X143355997Y-129153051D01*
G37*
G36*
X171351000Y-130001000D02*
G01*
X167449000Y-130001000D01*
X167449000Y-127899000D01*
X171351000Y-127899000D01*
X171351000Y-130001000D01*
G37*
G36*
X161701000Y-128601000D02*
G01*
X152299000Y-128601000D01*
X152299000Y-127699000D01*
X161701000Y-127699000D01*
X161701000Y-128601000D01*
G37*
G36*
X161701000Y-127001000D02*
G01*
X152299000Y-127001000D01*
X152299000Y-126099000D01*
X161701000Y-126099000D01*
X161701000Y-127001000D01*
G37*
G36*
X153088674Y-123803465D02*
G01*
X153126367Y-123814899D01*
X153161103Y-123833466D01*
X153191548Y-123858452D01*
X153216534Y-123888897D01*
X153235101Y-123923633D01*
X153246535Y-123961326D01*
X153251000Y-124006661D01*
X153251000Y-124843339D01*
X153246535Y-124888674D01*
X153235101Y-124926367D01*
X153216534Y-124961103D01*
X153191548Y-124991548D01*
X153161103Y-125016534D01*
X153126367Y-125035101D01*
X153088674Y-125046535D01*
X153043339Y-125051000D01*
X151956661Y-125051000D01*
X151911326Y-125046535D01*
X151873633Y-125035101D01*
X151838897Y-125016534D01*
X151808452Y-124991548D01*
X151783466Y-124961103D01*
X151764899Y-124926367D01*
X151753465Y-124888674D01*
X151749000Y-124843339D01*
X151749000Y-124006661D01*
X151753465Y-123961326D01*
X151764899Y-123923633D01*
X151783466Y-123888897D01*
X151808452Y-123858452D01*
X151838897Y-123833466D01*
X151873633Y-123814899D01*
X151911326Y-123803465D01*
X151956661Y-123799000D01*
X153043339Y-123799000D01*
X153088674Y-123803465D01*
G37*
G36*
X156088674Y-123803465D02*
G01*
X156126367Y-123814899D01*
X156161103Y-123833466D01*
X156191548Y-123858452D01*
X156216534Y-123888897D01*
X156235101Y-123923633D01*
X156246535Y-123961326D01*
X156251000Y-124006661D01*
X156251000Y-124843339D01*
X156246535Y-124888674D01*
X156235101Y-124926367D01*
X156216534Y-124961103D01*
X156191548Y-124991548D01*
X156161103Y-125016534D01*
X156126367Y-125035101D01*
X156088674Y-125046535D01*
X156043339Y-125051000D01*
X154956661Y-125051000D01*
X154911326Y-125046535D01*
X154873633Y-125035101D01*
X154838897Y-125016534D01*
X154808452Y-124991548D01*
X154783466Y-124961103D01*
X154764899Y-124926367D01*
X154753465Y-124888674D01*
X154749000Y-124843339D01*
X154749000Y-124006661D01*
X154753465Y-123961326D01*
X154764899Y-123923633D01*
X154783466Y-123888897D01*
X154808452Y-123858452D01*
X154838897Y-123833466D01*
X154873633Y-123814899D01*
X154911326Y-123803465D01*
X154956661Y-123799000D01*
X156043339Y-123799000D01*
X156088674Y-123803465D01*
G37*
G36*
X170201000Y-123701000D02*
G01*
X168599000Y-123701000D01*
X168599000Y-121599000D01*
X170201000Y-121599000D01*
X170201000Y-123701000D01*
G37*
G36*
X167901000Y-123701000D02*
G01*
X166299000Y-123701000D01*
X166299000Y-121599000D01*
X167901000Y-121599000D01*
X167901000Y-123701000D01*
G37*
G36*
X172501000Y-123701000D02*
G01*
X170899000Y-123701000D01*
X170899000Y-121599000D01*
X172501000Y-121599000D01*
X172501000Y-123701000D01*
G37*
G36*
X146973512Y-121503927D02*
G01*
X147122812Y-121533624D01*
X147286784Y-121601544D01*
X147434354Y-121700147D01*
X147559853Y-121825646D01*
X147658456Y-121973216D01*
X147726376Y-122137188D01*
X147761000Y-122311259D01*
X147761000Y-122488741D01*
X147726376Y-122662812D01*
X147658456Y-122826784D01*
X147559853Y-122974354D01*
X147434354Y-123099853D01*
X147286784Y-123198456D01*
X147122812Y-123266376D01*
X146973512Y-123296073D01*
X146948742Y-123301000D01*
X146771258Y-123301000D01*
X146746488Y-123296073D01*
X146597188Y-123266376D01*
X146433216Y-123198456D01*
X146285646Y-123099853D01*
X146160147Y-122974354D01*
X146061544Y-122826784D01*
X145993624Y-122662812D01*
X145959000Y-122488741D01*
X145959000Y-122311259D01*
X145993624Y-122137188D01*
X146061544Y-121973216D01*
X146160147Y-121825646D01*
X146285646Y-121700147D01*
X146433216Y-121601544D01*
X146597188Y-121533624D01*
X146746488Y-121503927D01*
X146771258Y-121499000D01*
X146948742Y-121499000D01*
X146973512Y-121503927D01*
G37*
G36*
X137601000Y-123301000D02*
G01*
X135799000Y-123301000D01*
X135799000Y-121499000D01*
X137601000Y-121499000D01*
X137601000Y-123301000D01*
G37*
G36*
X141893512Y-121503927D02*
G01*
X142042812Y-121533624D01*
X142206784Y-121601544D01*
X142354354Y-121700147D01*
X142479853Y-121825646D01*
X142578456Y-121973216D01*
X142646376Y-122137188D01*
X142681000Y-122311259D01*
X142681000Y-122488741D01*
X142646376Y-122662812D01*
X142578456Y-122826784D01*
X142479853Y-122974354D01*
X142354354Y-123099853D01*
X142206784Y-123198456D01*
X142042812Y-123266376D01*
X141893512Y-123296073D01*
X141868742Y-123301000D01*
X141691258Y-123301000D01*
X141666488Y-123296073D01*
X141517188Y-123266376D01*
X141353216Y-123198456D01*
X141205646Y-123099853D01*
X141080147Y-122974354D01*
X140981544Y-122826784D01*
X140913624Y-122662812D01*
X140879000Y-122488741D01*
X140879000Y-122311259D01*
X140913624Y-122137188D01*
X140981544Y-121973216D01*
X141080147Y-121825646D01*
X141205646Y-121700147D01*
X141353216Y-121601544D01*
X141517188Y-121533624D01*
X141666488Y-121503927D01*
X141691258Y-121499000D01*
X141868742Y-121499000D01*
X141893512Y-121503927D01*
G37*
G36*
X144433512Y-121503927D02*
G01*
X144582812Y-121533624D01*
X144746784Y-121601544D01*
X144894354Y-121700147D01*
X145019853Y-121825646D01*
X145118456Y-121973216D01*
X145186376Y-122137188D01*
X145221000Y-122311259D01*
X145221000Y-122488741D01*
X145186376Y-122662812D01*
X145118456Y-122826784D01*
X145019853Y-122974354D01*
X144894354Y-123099853D01*
X144746784Y-123198456D01*
X144582812Y-123266376D01*
X144433512Y-123296073D01*
X144408742Y-123301000D01*
X144231258Y-123301000D01*
X144206488Y-123296073D01*
X144057188Y-123266376D01*
X143893216Y-123198456D01*
X143745646Y-123099853D01*
X143620147Y-122974354D01*
X143521544Y-122826784D01*
X143453624Y-122662812D01*
X143419000Y-122488741D01*
X143419000Y-122311259D01*
X143453624Y-122137188D01*
X143521544Y-121973216D01*
X143620147Y-121825646D01*
X143745646Y-121700147D01*
X143893216Y-121601544D01*
X144057188Y-121533624D01*
X144206488Y-121503927D01*
X144231258Y-121499000D01*
X144408742Y-121499000D01*
X144433512Y-121503927D01*
G37*
G36*
X139353512Y-121503927D02*
G01*
X139502812Y-121533624D01*
X139666784Y-121601544D01*
X139814354Y-121700147D01*
X139939853Y-121825646D01*
X140038456Y-121973216D01*
X140106376Y-122137188D01*
X140141000Y-122311259D01*
X140141000Y-122488741D01*
X140106376Y-122662812D01*
X140038456Y-122826784D01*
X139939853Y-122974354D01*
X139814354Y-123099853D01*
X139666784Y-123198456D01*
X139502812Y-123266376D01*
X139353512Y-123296073D01*
X139328742Y-123301000D01*
X139151258Y-123301000D01*
X139126488Y-123296073D01*
X138977188Y-123266376D01*
X138813216Y-123198456D01*
X138665646Y-123099853D01*
X138540147Y-122974354D01*
X138441544Y-122826784D01*
X138373624Y-122662812D01*
X138339000Y-122488741D01*
X138339000Y-122311259D01*
X138373624Y-122137188D01*
X138441544Y-121973216D01*
X138540147Y-121825646D01*
X138665646Y-121700147D01*
X138813216Y-121601544D01*
X138977188Y-121533624D01*
X139126488Y-121503927D01*
X139151258Y-121499000D01*
X139328742Y-121499000D01*
X139353512Y-121503927D01*
G37*
G36*
X153088674Y-121753465D02*
G01*
X153126367Y-121764899D01*
X153161103Y-121783466D01*
X153191548Y-121808452D01*
X153216534Y-121838897D01*
X153235101Y-121873633D01*
X153246535Y-121911326D01*
X153251000Y-121956661D01*
X153251000Y-122793339D01*
X153246535Y-122838674D01*
X153235101Y-122876367D01*
X153216534Y-122911103D01*
X153191548Y-122941548D01*
X153161103Y-122966534D01*
X153126367Y-122985101D01*
X153088674Y-122996535D01*
X153043339Y-123001000D01*
X151956661Y-123001000D01*
X151911326Y-122996535D01*
X151873633Y-122985101D01*
X151838897Y-122966534D01*
X151808452Y-122941548D01*
X151783466Y-122911103D01*
X151764899Y-122876367D01*
X151753465Y-122838674D01*
X151749000Y-122793339D01*
X151749000Y-121956661D01*
X151753465Y-121911326D01*
X151764899Y-121873633D01*
X151783466Y-121838897D01*
X151808452Y-121808452D01*
X151838897Y-121783466D01*
X151873633Y-121764899D01*
X151911326Y-121753465D01*
X151956661Y-121749000D01*
X153043339Y-121749000D01*
X153088674Y-121753465D01*
G37*
G36*
X156088674Y-121753465D02*
G01*
X156126367Y-121764899D01*
X156161103Y-121783466D01*
X156191548Y-121808452D01*
X156216534Y-121838897D01*
X156235101Y-121873633D01*
X156246535Y-121911326D01*
X156251000Y-121956661D01*
X156251000Y-122793339D01*
X156246535Y-122838674D01*
X156235101Y-122876367D01*
X156216534Y-122911103D01*
X156191548Y-122941548D01*
X156161103Y-122966534D01*
X156126367Y-122985101D01*
X156088674Y-122996535D01*
X156043339Y-123001000D01*
X154956661Y-123001000D01*
X154911326Y-122996535D01*
X154873633Y-122985101D01*
X154838897Y-122966534D01*
X154808452Y-122941548D01*
X154783466Y-122911103D01*
X154764899Y-122876367D01*
X154753465Y-122838674D01*
X154749000Y-122793339D01*
X154749000Y-121956661D01*
X154753465Y-121911326D01*
X154764899Y-121873633D01*
X154783466Y-121838897D01*
X154808452Y-121808452D01*
X154838897Y-121783466D01*
X154873633Y-121764899D01*
X154911326Y-121753465D01*
X154956661Y-121749000D01*
X156043339Y-121749000D01*
X156088674Y-121753465D01*
G37*
G36*
X169201000Y-119701000D02*
G01*
X165399000Y-119701000D01*
X165399000Y-117099000D01*
X169201000Y-117099000D01*
X169201000Y-119701000D01*
G37*
G36*
X163951000Y-119701000D02*
G01*
X161849000Y-119701000D01*
X161849000Y-117099000D01*
X163951000Y-117099000D01*
X163951000Y-119701000D01*
G37*
G36*
X172751000Y-119701000D02*
G01*
X170649000Y-119701000D01*
X170649000Y-117099000D01*
X172751000Y-117099000D01*
X172751000Y-119701000D01*
G37*
G36*
X169597740Y-115308627D02*
G01*
X169646136Y-115318253D01*
X169683902Y-115333896D01*
X169737311Y-115356019D01*
X169737312Y-115356020D01*
X169819369Y-115410848D01*
X169889152Y-115480631D01*
X169889153Y-115480633D01*
X169943981Y-115562689D01*
X169981747Y-115653865D01*
X170001000Y-115750655D01*
X170001000Y-115849345D01*
X169981747Y-115946135D01*
X169943981Y-116037311D01*
X169943980Y-116037312D01*
X169889152Y-116119369D01*
X169819369Y-116189152D01*
X169806350Y-116197851D01*
X169737311Y-116243981D01*
X169720365Y-116251000D01*
X169646136Y-116281747D01*
X169597740Y-116291374D01*
X169549345Y-116301000D01*
X169450655Y-116301000D01*
X169402260Y-116291374D01*
X169353864Y-116281747D01*
X169279635Y-116251000D01*
X169262689Y-116243981D01*
X169193650Y-116197851D01*
X169180631Y-116189152D01*
X169110848Y-116119369D01*
X169056020Y-116037312D01*
X169056019Y-116037311D01*
X169018253Y-115946135D01*
X168999000Y-115849345D01*
X168999000Y-115750655D01*
X169018253Y-115653865D01*
X169056019Y-115562689D01*
X169110847Y-115480633D01*
X169110848Y-115480631D01*
X169180631Y-115410848D01*
X169262688Y-115356020D01*
X169262689Y-115356019D01*
X169316098Y-115333896D01*
X169353864Y-115318253D01*
X169402260Y-115308627D01*
X169450655Y-115299000D01*
X169549345Y-115299000D01*
X169597740Y-115308627D01*
G37*
G36*
X165197740Y-115308627D02*
G01*
X165246136Y-115318253D01*
X165283902Y-115333896D01*
X165337311Y-115356019D01*
X165337312Y-115356020D01*
X165419369Y-115410848D01*
X165489152Y-115480631D01*
X165489153Y-115480633D01*
X165543981Y-115562689D01*
X165581747Y-115653865D01*
X165601000Y-115750655D01*
X165601000Y-115849345D01*
X165581747Y-115946135D01*
X165543981Y-116037311D01*
X165543980Y-116037312D01*
X165489152Y-116119369D01*
X165419369Y-116189152D01*
X165406350Y-116197851D01*
X165337311Y-116243981D01*
X165320365Y-116251000D01*
X165246136Y-116281747D01*
X165197740Y-116291374D01*
X165149345Y-116301000D01*
X165050655Y-116301000D01*
X165002260Y-116291374D01*
X164953864Y-116281747D01*
X164879635Y-116251000D01*
X164862689Y-116243981D01*
X164793650Y-116197851D01*
X164780631Y-116189152D01*
X164710848Y-116119369D01*
X164656020Y-116037312D01*
X164656019Y-116037311D01*
X164618253Y-115946135D01*
X164599000Y-115849345D01*
X164599000Y-115750655D01*
X164618253Y-115653865D01*
X164656019Y-115562689D01*
X164710847Y-115480633D01*
X164710848Y-115480631D01*
X164780631Y-115410848D01*
X164862688Y-115356020D01*
X164862689Y-115356019D01*
X164916098Y-115333896D01*
X164953864Y-115318253D01*
X165002260Y-115308627D01*
X165050655Y-115299000D01*
X165149345Y-115299000D01*
X165197740Y-115308627D01*
G37*
G36*
X152755997Y-114553051D02*
G01*
X152789652Y-114563261D01*
X152820665Y-114579838D01*
X152847851Y-114602149D01*
X152870162Y-114629335D01*
X152886739Y-114660348D01*
X152896949Y-114694003D01*
X152901000Y-114735138D01*
X152901000Y-116064862D01*
X152896949Y-116105997D01*
X152886739Y-116139652D01*
X152870162Y-116170665D01*
X152847851Y-116197851D01*
X152820665Y-116220162D01*
X152789652Y-116236739D01*
X152755997Y-116246949D01*
X152714862Y-116251000D01*
X149485138Y-116251000D01*
X149444003Y-116246949D01*
X149410348Y-116236739D01*
X149379335Y-116220162D01*
X149352149Y-116197851D01*
X149329838Y-116170665D01*
X149313261Y-116139652D01*
X149303051Y-116105997D01*
X149299000Y-116064862D01*
X149299000Y-114735138D01*
X149303051Y-114694003D01*
X149313261Y-114660348D01*
X149329838Y-114629335D01*
X149352149Y-114602149D01*
X149379335Y-114579838D01*
X149410348Y-114563261D01*
X149444003Y-114553051D01*
X149485138Y-114549000D01*
X152714862Y-114549000D01*
X152755997Y-114553051D01*
G37*
G36*
X158155997Y-114553051D02*
G01*
X158189652Y-114563261D01*
X158220665Y-114579838D01*
X158247851Y-114602149D01*
X158270162Y-114629335D01*
X158286739Y-114660348D01*
X158296949Y-114694003D01*
X158301000Y-114735138D01*
X158301000Y-116064862D01*
X158296949Y-116105997D01*
X158286739Y-116139652D01*
X158270162Y-116170665D01*
X158247851Y-116197851D01*
X158220665Y-116220162D01*
X158189652Y-116236739D01*
X158155997Y-116246949D01*
X158114862Y-116251000D01*
X154885138Y-116251000D01*
X154844003Y-116246949D01*
X154810348Y-116236739D01*
X154779335Y-116220162D01*
X154752149Y-116197851D01*
X154729838Y-116170665D01*
X154713261Y-116139652D01*
X154703051Y-116105997D01*
X154699000Y-116064862D01*
X154699000Y-114735138D01*
X154703051Y-114694003D01*
X154713261Y-114660348D01*
X154729838Y-114629335D01*
X154752149Y-114602149D01*
X154779335Y-114579838D01*
X154810348Y-114563261D01*
X154844003Y-114553051D01*
X154885138Y-114549000D01*
X158114862Y-114549000D01*
X158155997Y-114553051D01*
G37*
G36*
X163951000Y-114201000D02*
G01*
X161849000Y-114201000D01*
X161849000Y-111599000D01*
X163951000Y-111599000D01*
X163951000Y-114201000D01*
G37*
G36*
X172751000Y-114201000D02*
G01*
X170649000Y-114201000D01*
X170649000Y-111599000D01*
X172751000Y-111599000D01*
X172751000Y-114201000D01*
G37*
M02*
