G04 #@! TF.GenerationSoftware,KiCad,Pcbnew,5.1.5-52549c5~84~ubuntu18.04.1*
G04 #@! TF.CreationDate,2020-02-05T12:35:19+01:00*
G04 #@! TF.ProjectId,Lab1,4c616231-2e6b-4696-9361-645f70636258,rev?*
G04 #@! TF.SameCoordinates,Original*
G04 #@! TF.FileFunction,Soldermask,Bot*
G04 #@! TF.FilePolarity,Negative*
%FSLAX46Y46*%
G04 Gerber Fmt 4.6, Leading zero omitted, Abs format (unit mm)*
G04 Created by KiCad (PCBNEW 5.1.5-52549c5~84~ubuntu18.04.1) date 2020-02-05 12:35:19*
%MOMM*%
%LPD*%
G04 APERTURE LIST*
%ADD10C,0.100000*%
G04 APERTURE END LIST*
D10*
G36*
X146973512Y-121503927D02*
G01*
X147122812Y-121533624D01*
X147286784Y-121601544D01*
X147434354Y-121700147D01*
X147559853Y-121825646D01*
X147658456Y-121973216D01*
X147726376Y-122137188D01*
X147761000Y-122311259D01*
X147761000Y-122488741D01*
X147726376Y-122662812D01*
X147658456Y-122826784D01*
X147559853Y-122974354D01*
X147434354Y-123099853D01*
X147286784Y-123198456D01*
X147122812Y-123266376D01*
X146973512Y-123296073D01*
X146948742Y-123301000D01*
X146771258Y-123301000D01*
X146746488Y-123296073D01*
X146597188Y-123266376D01*
X146433216Y-123198456D01*
X146285646Y-123099853D01*
X146160147Y-122974354D01*
X146061544Y-122826784D01*
X145993624Y-122662812D01*
X145959000Y-122488741D01*
X145959000Y-122311259D01*
X145993624Y-122137188D01*
X146061544Y-121973216D01*
X146160147Y-121825646D01*
X146285646Y-121700147D01*
X146433216Y-121601544D01*
X146597188Y-121533624D01*
X146746488Y-121503927D01*
X146771258Y-121499000D01*
X146948742Y-121499000D01*
X146973512Y-121503927D01*
G37*
G36*
X144433512Y-121503927D02*
G01*
X144582812Y-121533624D01*
X144746784Y-121601544D01*
X144894354Y-121700147D01*
X145019853Y-121825646D01*
X145118456Y-121973216D01*
X145186376Y-122137188D01*
X145221000Y-122311259D01*
X145221000Y-122488741D01*
X145186376Y-122662812D01*
X145118456Y-122826784D01*
X145019853Y-122974354D01*
X144894354Y-123099853D01*
X144746784Y-123198456D01*
X144582812Y-123266376D01*
X144433512Y-123296073D01*
X144408742Y-123301000D01*
X144231258Y-123301000D01*
X144206488Y-123296073D01*
X144057188Y-123266376D01*
X143893216Y-123198456D01*
X143745646Y-123099853D01*
X143620147Y-122974354D01*
X143521544Y-122826784D01*
X143453624Y-122662812D01*
X143419000Y-122488741D01*
X143419000Y-122311259D01*
X143453624Y-122137188D01*
X143521544Y-121973216D01*
X143620147Y-121825646D01*
X143745646Y-121700147D01*
X143893216Y-121601544D01*
X144057188Y-121533624D01*
X144206488Y-121503927D01*
X144231258Y-121499000D01*
X144408742Y-121499000D01*
X144433512Y-121503927D01*
G37*
G36*
X141893512Y-121503927D02*
G01*
X142042812Y-121533624D01*
X142206784Y-121601544D01*
X142354354Y-121700147D01*
X142479853Y-121825646D01*
X142578456Y-121973216D01*
X142646376Y-122137188D01*
X142681000Y-122311259D01*
X142681000Y-122488741D01*
X142646376Y-122662812D01*
X142578456Y-122826784D01*
X142479853Y-122974354D01*
X142354354Y-123099853D01*
X142206784Y-123198456D01*
X142042812Y-123266376D01*
X141893512Y-123296073D01*
X141868742Y-123301000D01*
X141691258Y-123301000D01*
X141666488Y-123296073D01*
X141517188Y-123266376D01*
X141353216Y-123198456D01*
X141205646Y-123099853D01*
X141080147Y-122974354D01*
X140981544Y-122826784D01*
X140913624Y-122662812D01*
X140879000Y-122488741D01*
X140879000Y-122311259D01*
X140913624Y-122137188D01*
X140981544Y-121973216D01*
X141080147Y-121825646D01*
X141205646Y-121700147D01*
X141353216Y-121601544D01*
X141517188Y-121533624D01*
X141666488Y-121503927D01*
X141691258Y-121499000D01*
X141868742Y-121499000D01*
X141893512Y-121503927D01*
G37*
G36*
X139353512Y-121503927D02*
G01*
X139502812Y-121533624D01*
X139666784Y-121601544D01*
X139814354Y-121700147D01*
X139939853Y-121825646D01*
X140038456Y-121973216D01*
X140106376Y-122137188D01*
X140141000Y-122311259D01*
X140141000Y-122488741D01*
X140106376Y-122662812D01*
X140038456Y-122826784D01*
X139939853Y-122974354D01*
X139814354Y-123099853D01*
X139666784Y-123198456D01*
X139502812Y-123266376D01*
X139353512Y-123296073D01*
X139328742Y-123301000D01*
X139151258Y-123301000D01*
X139126488Y-123296073D01*
X138977188Y-123266376D01*
X138813216Y-123198456D01*
X138665646Y-123099853D01*
X138540147Y-122974354D01*
X138441544Y-122826784D01*
X138373624Y-122662812D01*
X138339000Y-122488741D01*
X138339000Y-122311259D01*
X138373624Y-122137188D01*
X138441544Y-121973216D01*
X138540147Y-121825646D01*
X138665646Y-121700147D01*
X138813216Y-121601544D01*
X138977188Y-121533624D01*
X139126488Y-121503927D01*
X139151258Y-121499000D01*
X139328742Y-121499000D01*
X139353512Y-121503927D01*
G37*
G36*
X137601000Y-123301000D02*
G01*
X135799000Y-123301000D01*
X135799000Y-121499000D01*
X137601000Y-121499000D01*
X137601000Y-123301000D01*
G37*
G36*
X169597740Y-115308627D02*
G01*
X169646136Y-115318253D01*
X169683902Y-115333896D01*
X169737311Y-115356019D01*
X169737312Y-115356020D01*
X169819369Y-115410848D01*
X169889152Y-115480631D01*
X169889153Y-115480633D01*
X169943981Y-115562689D01*
X169981747Y-115653865D01*
X170001000Y-115750655D01*
X170001000Y-115849345D01*
X169981747Y-115946135D01*
X169943981Y-116037311D01*
X169943980Y-116037312D01*
X169889152Y-116119369D01*
X169819369Y-116189152D01*
X169778062Y-116216752D01*
X169737311Y-116243981D01*
X169683902Y-116266104D01*
X169646136Y-116281747D01*
X169597740Y-116291374D01*
X169549345Y-116301000D01*
X169450655Y-116301000D01*
X169402260Y-116291374D01*
X169353864Y-116281747D01*
X169316098Y-116266104D01*
X169262689Y-116243981D01*
X169221938Y-116216752D01*
X169180631Y-116189152D01*
X169110848Y-116119369D01*
X169056020Y-116037312D01*
X169056019Y-116037311D01*
X169018253Y-115946135D01*
X168999000Y-115849345D01*
X168999000Y-115750655D01*
X169018253Y-115653865D01*
X169056019Y-115562689D01*
X169110847Y-115480633D01*
X169110848Y-115480631D01*
X169180631Y-115410848D01*
X169262688Y-115356020D01*
X169262689Y-115356019D01*
X169316098Y-115333896D01*
X169353864Y-115318253D01*
X169402260Y-115308627D01*
X169450655Y-115299000D01*
X169549345Y-115299000D01*
X169597740Y-115308627D01*
G37*
G36*
X165197740Y-115308627D02*
G01*
X165246136Y-115318253D01*
X165283902Y-115333896D01*
X165337311Y-115356019D01*
X165337312Y-115356020D01*
X165419369Y-115410848D01*
X165489152Y-115480631D01*
X165489153Y-115480633D01*
X165543981Y-115562689D01*
X165581747Y-115653865D01*
X165601000Y-115750655D01*
X165601000Y-115849345D01*
X165581747Y-115946135D01*
X165543981Y-116037311D01*
X165543980Y-116037312D01*
X165489152Y-116119369D01*
X165419369Y-116189152D01*
X165378062Y-116216752D01*
X165337311Y-116243981D01*
X165283902Y-116266104D01*
X165246136Y-116281747D01*
X165197740Y-116291374D01*
X165149345Y-116301000D01*
X165050655Y-116301000D01*
X165002260Y-116291374D01*
X164953864Y-116281747D01*
X164916098Y-116266104D01*
X164862689Y-116243981D01*
X164821938Y-116216752D01*
X164780631Y-116189152D01*
X164710848Y-116119369D01*
X164656020Y-116037312D01*
X164656019Y-116037311D01*
X164618253Y-115946135D01*
X164599000Y-115849345D01*
X164599000Y-115750655D01*
X164618253Y-115653865D01*
X164656019Y-115562689D01*
X164710847Y-115480633D01*
X164710848Y-115480631D01*
X164780631Y-115410848D01*
X164862688Y-115356020D01*
X164862689Y-115356019D01*
X164916098Y-115333896D01*
X164953864Y-115318253D01*
X165002260Y-115308627D01*
X165050655Y-115299000D01*
X165149345Y-115299000D01*
X165197740Y-115308627D01*
G37*
M02*
